/* XPM */
static char * wall_grey_bottom_xpm[] = {
"48 48 99 2",
"  	c None",
". 	c #4F2913",
"+ 	c #666057",
"@ 	c #655444",
"# 	c #86847B",
"$ 	c #767469",
"% 	c #5E3B25",
"& 	c #56321C",
"* 	c #665F58",
"= 	c #573D2D",
"- 	c #584132",
"; 	c #5A4537",
"> 	c #5F5349",
", 	c #5C4B3E",
"' 	c #6C675F",
") 	c #60564F",
"! 	c #61574F",
"~ 	c #655D56",
"{ 	c #53321F",
"] 	c #615851",
"^ 	c #512F1B",
"/ 	c #543523",
"( 	c #5E4F44",
"_ 	c #5A4538",
": 	c #5E4F45",
"< 	c #594234",
"[ 	c #655C55",
"} 	c #5D4C41",
"| 	c #594032",
"1 	c #563C2C",
"2 	c #573C2D",
"3 	c #5B483B",
"4 	c #512D19",
"5 	c #512E19",
"6 	c #512E1A",
"7 	c #543422",
"8 	c #553726",
"9 	c #5B4435",
"0 	c #583E2E",
"a 	c #52311E",
"b 	c #533320",
"c 	c #533220",
"d 	c #52301D",
"e 	c #52301E",
"f 	c #5B4538",
"g 	c #533321",
"h 	c #543321",
"i 	c #563929",
"j 	c #5B473A",
"k 	c #676159",
"l 	c #726E67",
"m 	c #6D6861",
"n 	c #746F69",
"o 	c #5D4D41",
"p 	c #75716B",
"q 	c #74706A",
"r 	c #6D685F",
"s 	c #76726C",
"t 	c #76726B",
"u 	c #757068",
"v 	c #747068",
"w 	c #746F67",
"x 	c #736E66",
"y 	c #736E67",
"z 	c #5E5146",
"A 	c #563B2A",
"B 	c #553827",
"C 	c #543624",
"D 	c #5C5247",
"E 	c #4F3625",
"F 	c #5C5147",
"G 	c #5D5247",
"H 	c #5D5248",
"I 	c #4F311E",
"J 	c #53321E",
"K 	c #676259",
"L 	c #68625A",
"M 	c #68635A",
"N 	c #69635B",
"O 	c #6A655C",
"P 	c #6A645C",
"Q 	c #69645B",
"R 	c #6B655D",
"S 	c #593D2A",
"T 	c #6B675D",
"U 	c #6B665D",
"V 	c #5B4231",
"W 	c #6A665C",
"X 	c #6C685E",
"Y 	c #6C675E",
"Z 	c #918F88",
"` 	c #929088",
" .	c #94928B",
"..	c #99978F",
"+.	c #665444",
"@.	c #868579",
"#.	c #675544",
"$.	c #624937",
"%.	c #5A3B27",
". . . . . . . . . . . . . . . . . . . . . . . . . . . . . . . . . . . . . . . . . . . . . . . . ",
"+ + + + + + + + + + + + . + + + + + + + + + + + + + + + + + + + + + + + . + + + + + + + + + + + ",
"+ + + + + + + + + + + + @ + + + + + + + + + + + + + + + + + + + + + + + @ + + + + + + + + + + + ",
"# # # # # # # # # # # # @ # # # # # # # # # # # # # # # # # # # # # # # @ # # # # # # # # # # # ",
"$ $ $ $ $ $ $ $ $ $ $ $ @ $ $ $ $ $ $ $ $ $ $ $ $ $ $ $ $ $ $ $ $ $ $ $ @ $ $ $ $ $ $ $ $ $ $ $ ",
"$ $ $ $ $ $ $ $ $ $ $ $ @ $ $ $ $ $ $ $ $ $ $ $ $ $ $ $ $ $ $ $ $ $ $ $ @ $ $ $ $ $ $ $ $ $ $ $ ",
"$ $ $ $ $ $ $ $ $ $ $ $ % $ $ $ $ $ $ $ $ $ $ $ $ $ $ $ $ $ $ $ $ $ $ $ % $ $ $ $ $ $ $ $ $ $ $ ",
"& & & & & & & & & & & & * & & & & & & & & & & & & & & & & & & & & & & & * & & & & & & & & & & & ",
"* * * * = * * * * * * * * * * * * * * * * * * * * * * * = * * * * * * * * * * * * * * * * * * * ",
"* * * * - * * * * * * * * * * * * * * * * * * * * * * * ; * * * * * * * * * * * * * * * * * * * ",
"* * * * > * * * * * * * * * * * * * * * * * * * * * * * ; * * * * * * * * * * * * * * * * * * * ",
"* * * * , * * * * * * * * * * * * * * * * * * * * * * * = * * * * * * * * * * * * * * * * * * * ",
"* * * * , * * * * * * * * * * * * * * * * * * * * * * * = = * * * * * * * * * * * * * * * * * * ",
"' ' ' ' , ' ' ' ' ' ' ' ' ' ' ' ' ' ' ' ' ' ' ' ' ' ' ' ) ! = ' ' ' ' ' ' ' ' ' ' ' ' ' ' ' ' ' ",
"* * ~ * * * * * * * * * * * * * * { ] ] ] ] ] ] ] ] ] ] ] ] ] ] ] ] ] ] ] ] ] ] ] ^ * * * * * * ",
"* * * * * * * * * * * * * * * * * / ] ] ] ] ] ] ] ] ] ] ] ] ] ] ] ] ] ] ] ] ] ] ] / * * * * * * ",
"* * * * * * * * * * * * * * * * * ( ] ] ] ] ] ] ] ] ] ] ] ] ] ] ] ] ] ] ] ] ] ] ] _ * * * * * * ",
"* * * * * * * * * * * * * * * * * : ] ] ] ] ] ] ] ] ] ] ] ] ] ] ] ] ] ] ] ] ] ] ] < [ * * * * * ",
"* * * * * * * * * * * * * * * * * = ] ] ] ] ] ] ] ] ] ] ] ] ] ] ] ] ] ] ] ] ] ] } | * * * * * * ",
"* * * * * * * * * * * * * * * * * 1 } ] ] ] ] ] ] ] ] ] ] ] ] ] ] ] ] ] ] ] ] ] } 2 * * * * * * ",
"3 3 2 2 4 5 6 7 8 8 9 9 9 9 9 9 0 a b b b c d d e 4 4 5 f { g g g g h 8 i 2 2 2 2 2 2 j > > > > ",
"k k k k g l m m m m m m m m m m m m m m m m m m m m m m b k k k k k k k k k k k k k k k k k k k ",
"k k k k - n m m m m m m m m m m m m m m m m m m m m m m b k k k k k k k k k k k k k k k k k k k ",
"k k k k o p m m m m m m m m m m m m m m m m m m m m m m o k k k k k k k k k k k k k k k k k k k ",
"k k k k o p m m m m m m m m m m m m m m m m m m m m m m o k k k k k k k k k k k k k k k k k k k ",
"k k k k o q m m m m m m m m m m m m m m m m m m m m m m o k k k k k k k k k k k k k k k k k k k ",
"r r r r o o s s s s s t t u u v w w w x x x x x x t t y o ' ' ' ' ' ' ' ' ' ' ' ' ' ' ' ' ' ' ' ",
"z z z z o o z z > > > > > > - - A 8 B > > > > > z z z z o o z z > > > > > > - - A 8 B > > > > > ",
"k k k k k k k k k k k k k k k k k C k k k k k k k k k k k k k k k k k k k k k k k C k k k k k k ",
"D D D D D D D D D D D D D D D D D E F D G G G G D D D D D D D D D D D D D D D D D E F D G G G G ",
"D D D D D D D D D D D D D D D D D E D D G G G H D D D D D D D D D D D D D D D D D E D D G G G H ",
"D D D D D D D D D D D D D D D D D E D D G G G H D D D D D D D D D D D D D D D D D E D D G G G H ",
"D D D D D D D D D D D D D D D D D I D G G G G H D D D D D D D D D D D D D D D D D I D G G G G H ",
"D D D D D D D D D D D D D D D D D I F D G G G H D D D D D D D D D D D D D D D D D I F D G G G H ",
". . . . . . . . . . . . D . . . . . . . . . . . . . . . . . . . . . . . D . . . . . . . . . . . ",
"k k k k k k k k k k k k J k k k k k k k k k k k k k k k k k k k k k k k J k k k k k k k k k k k ",
"K K K K K L K L L M M L J L L L L L L M M L M M K K K K K L K L L M M L J L L L L L L M M L M M ",
"N N N N N N N N N N M M J M M M M M M M M M N N N N N N N N N N N N M M J M M M M M M M M M N N ",
"O O O O O O O O O O P O J Q Q Q Q Q Q Q Q Q Q Q O O O O O O O O O O P O J Q Q Q Q Q Q Q Q Q Q Q ",
"O O O O O O O O O R R R S R O P P P P P P O O O O O O O O O O O O R R R S R O P P P P P P O O O ",
"T U U U U U U U U U U U V U U U R R O O O W W W T U U U U U U U U U U U V U U U R R O O O W W W ",
"r X X X X X X X Y Y Y Y V Y Y Y T T Y Y Y Y U U r X X X X X X X Y Y Y Y V Y Y Y T T Y Y Y Y U U ",
"r r r r r r X X X X Y Y V X X Y X X X Y Y Y Y Y r r r r r r X X X X Y Y V X X Y X X X Y Y Y Y Y ",
"r r r r r r r r r r r r V r X X r r r Y Y Y Y Y r r r r r r r r r r r r V r X X r r r Y Y Y Y Y ",
"Z Z Z Z Z Z Z Z `  .....+....... . . . . . . . .Z Z Z Z Z Z Z Z `  .....+....... . . . . . . . .",
"@.@.@.@.@.@.@.@.@.@.@.@.#.@.@.@.@.@.@.@.@.@.@.@.@.@.@.@.@.@.@.@.@.@.@.@.#.@.@.@.@.@.@.@.@.@.@.@.",
"@.@.@.@.@.@.@.@.@.@.@.@.$.@.@.@.@.@.@.@.@.@.@.@.@.@.@.@.@.@.@.@.@.@.@.@.$.@.@.@.@.@.@.@.@.@.@.@.",
"%.%.%.%.%.%.%.%.%.%.%.%.  %.%.%.%.%.%.%.%.%.%.%.%.%.%.%.%.%.%.%.%.%.%.%.  %.%.%.%.%.%.%.%.%.%.%."};
