/* XPM */
static char * bas_gauche_xpm[] = {
"48 48 85 1",
" 	c None",
".	c #5A3B27",
"+	c #868579",
"@	c #94928B",
"#	c #6D685F",
"$	c #6C685E",
"%	c #6C675E",
"&	c #6B665D",
"*	c #6B655D",
"=	c #6A655C",
"-	c #69635B",
";	c #68635A",
">	c #676159",
",	c #4F2913",
"'	c #5C5247",
")	c #5F5349",
"!	c #6C675F",
"~	c #533321",
"{	c #615851",
"]	c #665F58",
"^	c #929088",
"/	c #68625A",
"(	c #918F88",
"_	c #5E5146",
":	c #676259",
"<	c #573D2D",
"[	c #5D4D41",
"}	c #53321F",
"|	c #61574F",
"1	c #533320",
"2	c #5B4538",
"3	c #60564F",
"4	c #5A4537",
"5	c #736E67",
"6	c #6D6861",
"7	c #512E19",
"8	c #76726B",
"9	c #512D19",
"0	c #6B675D",
"a	c #736E66",
"b	c #52301E",
"c	c #624937",
"d	c #675544",
"e	c #665444",
"f	c #5B4231",
"g	c #593D2A",
"h	c #53321E",
"i	c #5D5248",
"j	c #5D5247",
"k	c #52301D",
"l	c #99978F",
"m	c #69645B",
"n	c #533220",
"o	c #6A645C",
"p	c #5C5147",
"q	c #553827",
"r	c #746F67",
"s	c #5D4C41",
"t	c #4F311E",
"u	c #4F3625",
"v	c #543624",
"w	c #553726",
"x	c #52311E",
"y	c #563C2C",
"z	c #5E4F45",
"A	c #5E4F44",
"B	c #543523",
"C	c #563B2A",
"D	c #583E2E",
"E	c #584132",
"F	c #747068",
"G	c #5B4435",
"H	c #6A665C",
"I	c #757068",
"J	c #76726C",
"K	c #543422",
"L	c #512E1A",
"M	c #74706A",
"N	c #75716B",
"O	c #746F69",
"P	c #726E67",
"Q	c #5C4B3E",
"R	c #573C2D",
"S	c #655D56",
"T	c #5B483B",
".++@#$%&*=-;>,'''''>)!>>>>>~{{{{{{!]]~{{{{{{!]]]",
".++^#$%&==-/>,'''''>)!>>>>>~{{{{{{!]]~{{{{{{!]]]",
".++(#$$&==-/>,'''''>_!>>>>>~{{{{{{!]]~{{{{{{!]]]",
".++(#$$&==-:>,'''''>_!>>>>>~{{{{{{<]]~{{{{{{<]]]",
".++(##$&==-/>,'''''>[!>>>>>}{{{{{{|<]}{{{{{{|<]]",
".++(##$&==-:>,'''''>[[[[[112{{{{{{3<<2{{{{{{3<<4",
".++(##$&==-:>,'''''>_5666667{{{{{{!]]7{{{{{{!]]]",
".++(##$&==-:>,'''''>_8666669{{{{{{!]]9{{{{{{!]]]",
".++(##$&==-:>,'''''>_8666669{{{{{{!]]9{{{{{{!]]]",
".++(###0==-:>,'''''>_a66666b{{{{{{!]]b{{{{{{!]]]",
".cdeffffghhhh'iiiij>)a66666k{{{{{{!]]k{{{{{{!]]]",
".++l#$%&*m;/>,jjjjj>)a66666k{{{{{{!]]k{{{{{{!]]]",
".++l$$%&=m;/>,jjjjj>)a66666n{{{{{{!]]n{{{{{{!]]]",
".++l$%%&om;/>,jjjjj>)a666661{{{{{{!]]1{{{{{{!]]]",
".++@#$0*om;/>,'j'''>)a666661{{{{{{!]]1{{{{{{!]]]",
".++@#$0*om;/>,p'''p>qr666661s{{{{{!]]1s{{{{{!]]]",
".++@#$%=om;/>,ttuuuvwr66666xy<zAB}!]]xy<zAB}!]]]",
".++@%%%=om;;>,'''''>Cr66666D]]]]]]!]]D]]]]]]!]]]",
".++@%%%=om;;>,'''''>EF66666G]]]]]]!]]G]]]]]]!]]]",
".++@%%%H=m;/>,'''''>EI66666G]]]]]]!]]G]]]]]]!]]]",
".++@%%&H=m-;>,'''''>)I66666G]]]]]]!]]G]]]]]]!]]]",
".++@%%&H=m-;>,'''''>)866666G]]]]]]!]]G]]]]]]!]]]",
".++(###0==-:>,'''''>)866666G]]]]]]!]]G]]]]]]!]]]",
".++(##$&==-:>,'''''>)J66666G]]]]]]!]]G]]]]]]!]]]",
".++(##$&==-:>,'''''>)J66666w]]]]]]!]]w]]]]]]!]]]",
".++(##$&==-:>,'''''>)J66666w]]]]]]!]]w]]]]]]!]]]",
".++(##$&==-:>,'''''>_J66666K]]]]]]!]]K]]]]]]!]]]",
".++(##$&==-/>,'''''>_J66666L]]]]]]!]]L]]]]]]!]]]",
".++(#$$&==-:>,'''''>[[MNNOP7]]]]]]!]]7]]]]]]!]]]",
".++(#$$&==-/>,'''''>[[[[[E~9]]]]]]QQQ9]]]]]]QQQ)",
".++^#$%&==-/>,'''''>_#>>>>>R]]]]]]!]]R]]]]]]!]]]",
".++@#$%&*=-;>,'''''>_#>>>>>R]]]]]S!]]R]]]]]S!]]]",
".++l#%%&*o;;>,'''''>_#>>>>>T]]]]]]!]]T]]]]]]!]]]",
".++l#%%&*=;/>,'''''>_#>>>>>T]]]]]]!]]T]]]]]]!]]]",
" cdeffffghhhh',,,,,,,,,,,,,,,,,,,,,,,',,,,,,,,,,",
".++(#$%&*m;/>,>>>>>>>>>>>>>>>>>>>>>>>h>>>>>>>>>>",
".++($$%&=m;/>,/;;//:/:::::;;/;;//////h/;;//:/:::",
".++@$%%&om;/>,;;------------;;;;;;;;;h;;--------",
".++@#$0*om;/>,=o==========mmmmmmmmmmmh=o========",
".++@#$0*om;/>,***============oooooo=*g***=======",
".++@#$%=om;/>,&&&&&&&&&&&0HHH===**&&&f&&&&&&&&&&",
".++@%%%=om;;>,%%%%$$$$$$$#&&%%%%00%%%f%%%%$$$$$$",
".++@%%%=om;;>,%%$$$$######%%%%%$$$%$$f%%$$$$####",
".++@%%%H=m;/>,############%%%%%###$$#f##########",
".++@@@@@@@@ll,ll@^((((((((@@@@@@@@lllell@^((((((",
".++++++++++++,+++++++++++++++++++++++d++++++++++",
".++++++++++++c+++++++++++++++++++++++c++++++++++",
"............. ....................... .........."};
