/* XPM */
static char * bas_droit_xpm[] = {
"48 48 85 1",
" 	c None",
".	c #665F58",
"+	c #5A4537",
"@	c #5F5349",
"#	c #4F2913",
"$	c #676159",
"%	c #676259",
"&	c #69635B",
"*	c #6A655C",
"=	c #6B665D",
"-	c #6C685E",
";	c #6D685F",
">	c #918F88",
",	c #868579",
"'	c #5A3B27",
")	c #573D2D",
"!	c #5C4B3E",
"~	c #6C675F",
"{	c #61574F",
"]	c #60564F",
"^	c #68625A",
"/	c #615851",
"(	c #53321F",
"_	c #655D56",
":	c #543523",
"<	c #5E4F44",
"[	c #6C675E",
"}	c #929088",
"|	c #5E4F45",
"1	c #68635A",
"2	c #6B655D",
"3	c #94928B",
"4	c #6A645C",
"5	c #99978F",
"6	c #5D4C41",
"7	c #563C2C",
"8	c #533321",
"9	c #5B4538",
"0	c #512E19",
"a	c #512D19",
"b	c #52301E",
"c	c #52301D",
"d	c #533220",
"e	c #533320",
"f	c #52311E",
"g	c #583E2E",
"h	c #5B4435",
"i	c #553726",
"j	c #543422",
"k	c #512E1A",
"l	c #573C2D",
"m	c #5B483B",
"n	c #5C5247",
"o	c #53321E",
"p	c #593D2A",
"q	c #5B4231",
"r	c #665444",
"s	c #675544",
"t	c #624937",
"u	c #69645B",
"v	c #6B675D",
"w	c #6A665C",
"x	c #6D6861",
"y	c #726E67",
"z	c #746F69",
"A	c #584132",
"B	c #5D4D41",
"C	c #75716B",
"D	c #74706A",
"E	c #736E67",
"F	c #76726B",
"G	c #736E66",
"H	c #746F67",
"I	c #747068",
"J	c #757068",
"K	c #76726C",
"L	c #5E5146",
"M	c #553827",
"N	c #563B2A",
"O	c #543624",
"P	c #5D5247",
"Q	c #5C5147",
"R	c #4F3625",
"S	c #5D5248",
"T	c #4F311E",
".....+.......................@....#$%&**=-;;>,,'",
".....).......................!....#$%&**=-;;>,,'",
"....)).......................!....#$%&**=-;;>,,'",
"~~~){]~~~~~~~~~~~~~~~~~~~~~~~!~~~~#$^&**=-;;>,,'",
"////////////////(.............._..#$%&**=--;>,,'",
"////////////////:.................#$^&**=--;>,,'",
"////////////////<.................#$^&**=[-;},,'",
"////////////////|.................#$1&*2=[-;3,,'",
"////////////////).................#$1142=[[;5,,'",
"///////////////67.................#$^1*2=[[;5,,'",
"8888(90aabccdeeefghhhhhhiijk0allmmnoooopqqqqrst ",
".....).......................!....#$^1u2=[-;5,,'",
"....)).......................!....#$^1u*=[--5,,'",
"~~~){]~~~~~~~~~~~~~~~~~~~~~~~!~~~~#$^1u4=[[-5,,'",
"////////////////(.............._..#$^1u42v-;3,,'",
"////////////////:.................#$^1u42v-;3,,'",
"////////////////<.................#$^1u4*[-;3,,'",
"////////////////|.................#$11u4*[[[3,,'",
"////////////////).................#$11u4*[[[3,,'",
"///////////////67.................#$^1u*w[[[3,,'",
"8888(90aabccdeeefghhhhhhiijk0allmm#$1&u*w=[[3,,'",
"$$$$$exxxxxxxxxxxxxxxxxxxxxxy8$$$$#$1&u*w=[[3,,'",
"$$$$$exxxxxxxxxxxxxxxxxxxxxxzA$$$$#$%&**v;;;>,,'",
"$$$$$BxxxxxxxxxxxxxxxxxxxxxxCB$$$$#$%&**=-;;>,,'",
"$$$$$BxxxxxxxxxxxxxxxxxxxxxxCB$$$$#$%&**=-;;>,,'",
"$$$$$BxxxxxxxxxxxxxxxxxxxxxxDB$$$$#$%&**=-;;>,,'",
"~~~~~BEFFGGGGGGHHHIJJFFKKKKKBB;;;;#$%&**=-;;>,,'",
"@@LLBBLLLL@@@@@MiNAA@@@@@@LLBBLLLL#$^&**=-;;>,,'",
"$$$$$$$$$$$$$$$$O$$$$$$$$$$$$$$$$$#$%&**=--;>,,'",
"nnnnnnnnnnPPPPnQRnnnnnnnnnnnnnnnnn#$^&**=--;>,,'",
"nnnnnnnnnnSPPPnnRnnnnnnnnnnnnnnnnn#$^&**=[-;},,'",
"nnnnnnnnnnSPPPnnRnnnnnnnnnnnnnnnnn#$1&*2=[-;3,,'",
"nnnnnnnnnnSPPPPnTnnnnnnnnnnnnnnnnn#$1142=[[;5,,'",
"nnnnnnnnnnSPPPnQTnnnnnnnnnnnnnnnnn#$^1*2=[[;5,,'",
"##########n#######################n###########t ",
"$$$$$$$$$$o$$$$$$$$$$$$$$$$$$$$$$$o$$$$$$$$$5,,'",
"1^^%^%%%%%o^^^^^^11^11%%%%%^%^^11^o^^^^^^11^5,,'",
"&&&&&&&&&&o111111111&&&&&&&&&&&&11o1111111113,,'",
"**********ouuuuuuuuuuu**********4*ouuuuuuuuu3,,'",
"2*********p2*444444************222p2*444444*3,,'",
"=========vq===22***wwwv===========q===22***w3,,'",
"[[-------;q[[[vv[[[[==;-------[[[[q[[[vv[[[[3,,'",
"----;;;;;;q--[---[[[[[;;;;;;----[[q--[---[[[3,,'",
";;;;;;;;;;q;--;;;[[[[[;;;;;;;;;;;;q;--;;;[[[3,,'",
"3}>>>>>>>>r55533333333>>>>>>>>}355r>>33333333,,'",
",,,,,,,,,,s,,,,,,,,,,,,,,,,,,,,,,,s,,,,,,,,,,,,'",
",,,,,,,,,,t,,,,,,,,,,,,,,,,,,,,,,,t,,,,,,,,,,,,'",
"'''''''''''''''''''''''''''''''''' '''''''''''''"};
