/* XPM */
static char *coin_compress[] = {
/* columns rows colors chars-per-pixel */
"48 48 19 1 ",
"  c #72751B",
". c #787B21",
"X c #7F8226",
"o c #656C17",
"O c #B3B0A9",
"+ c #A2814F",
"@ c #636917",
"# c #9CA8AD",
"$ c #1A3542",
"% c #5995B3",
"& c #C6A740",
"* c white",
"= c #A2783C",
"- c #C1EAFF",
"; c #3689B3",
": c #266280",
"> c #7F8124",
", c #686F16",
"< c #BD9842",
/* pixels */
"                                                ",
"                                                ",
"                                 .              ",
"             X..                                ",
"             .o.         o.O                    ",
"             o o          oO                    ",
"                                        o       ",
"                     o         O       .        ",
"                   .+X         O@O         .X   ",
"                   o.                       #O  ",
"                                                ",
"                                                ",
"                                                ",
"                                                ",
"                                X               ",
"                   X.$$$$      X..o             ",
"                   X$%%%%$      @@&             ",
"   ..              $%****%$    =& @  . o        ",
"  oo+O@           $%*----*%$         o.         ",
"   # OO          $%*-%%%%-*%$                   ",
"   @O@           $*-%%%%%%-*$                X  ",
"              X  $-%%%%%%%%-$                   ",
"                .$%%%%%%%%%%$                   ",
"                 $%%%%%%%%%%$                   ",
"                 $%%%%%%%%%%$                   ",
"                 $;;;;;;;;;;$                   ",
"                 $:;;;;;;;;:$              .    ",
"       X .       $;:;;;;;;:%$               &.  ",
"       o.o        $;:;;;;:%$  >             @   ",
"                   $;::::%$   ,>                ",
"                    $;;;;$   , .,               ",
"   <                 $$$$                       ",
"   <=          .X                               ",
"              .+          >                     ",
"                @                               ",
"                                                ",
"                                                ",
"             .                    ,             ",
"  ,          >.                                 ",
"  ,           ,=    .>                          ",
"                @  .&,                      ..  ",
"                   @&.                     .,.  ",
"         O        .  <    >..              @#.  ",
" >..                &      +@            ,+     ",
" O+, >                     @              @     ",
"    +#       ,..      .                         ",
"      @              .                          ",
"                                                "
};
