/* XPM */
static char *death_compress_1_[] = {
/* columns rows colors chars-per-pixel */
"48 48 26 1 ",
"  c #72751B",
". c #787B21",
"X c #7F8226",
"o c #C6DBDE",
"O c #656C17",
"+ c #B3B0A9",
"@ c #E6A3A3",
"# c #DFEDED",
"$ c #9CA8AD",
"% c #A7B8C2",
"& c #4E4D5C",
"* c #A2814F",
"= c #636917",
"- c #C6A740",
"; c #8A98A0",
": c #A6AFB4",
"> c #BD9842",
", c #A2783C",
"< c #9BAAB3",
"1 c #7B888F",
"2 c #6E7A80",
"3 c #728794",
"4 c #BAC4CA",
"5 c #5C6D77",
"6 c #686F16",
"7 c #7F8124",
/* pixels */
"                                                ",
"                                                ",
"                                 .              ",
"             X..ooo            ooo              ",
"             .O.ooo      O.+   ooo              ",
"             O Oooo       O+   ooo              ",
"             ooo@@@ooo      ooo@@@ooo   O       ",
"             ooo@@@ooo      ooo@@@ooo  .        ",
"             ooo@@@ooo      ooo@@@ooo      .X   ",
"             ooo@@@###############ooo       $+  ",
"             ooo@@@###############ooo           ",
"             ooo@@@###############ooo           ",
"          ooo###########################        ",
"          ooo###########################        ",
"          ooo###########################        ",
"       %%%%%%%%%###&&&############&&&###%%%     ",
"       %%%%%%%%%###&&&############&&&###%%%     ",
"   ..  %%%%%%%%%###&&&############&&&###%%%     ",
"  OO*+=   ooo###############&&&#########        ",
"   $ ++   ooo###############&&&#########        ",
"   =+=    ooo###############&&&#########     X  ",
"       %%%%%%%%%#########&&&@@@&&&######%%%     ",
"       %%%%%%%%%#########&&&@@@&&&######%%%     ",
"       %%%%%%%%%#########&&&@@@&&&######%%%     ",
"          ooo###########################        ",
"          ooo###########################        ",
"          ooo###########################   .    ",
"       X .   ooo#####################       -.  ",
"       O.O   ooo#####################       =   ",
"             ooo#####################           ",
"       ###      ;;;:::::::::::::::              ",
"   >   ###      ;;;:::::::::::::::              ",
"   >,  ###     .;;;:::::::::::::::              ",
"       ###    .*<<<111111:::222222              ",
"       ###      <<<111111:::222222              ",
"       ###      <<<111111:::222222              ",
"          ###333333<<<444222:::;;;555           ",
"          ###333333<<<444222:::;;;555           ",
"  6       ###333333<<<444222:::;;;555           ",
"  6       ###333333<<<<<<:::;;;;;;555           ",
"          ###333333<<<<<<:::;;;;;;555       ..  ",
"          ###333333<<<<<<:::;;;;;;555      .6.  ",
"         +   ###<<<<<<<<<<<<;;;;;;         =$.  ",
" 7..         ###<<<<<<<<<<<<;;;;;;       6*     ",
" +*6 7       ###<<<<<<<<<<<<;;;;;;        =     ",
"    *$       6..   111.        222              ",
"      =            111         222              ",
"                   111         222              "
};
