/* XPM */
static char *death_compress_2_[] = {
/* columns rows colors chars-per-pixel */
"48 48 26 1 ",
"  c #72751B",
". c #787B21",
"X c #7F8226",
"o c #656C17",
"O c #B3B0A9",
"+ c #C6DBDE",
"@ c #A2814F",
"# c #E6A3A3",
"$ c #9CA8AD",
"% c #DFEDED",
"& c #4E4D5C",
"* c #4F4E5D",
"= c #A7B8C2",
"- c #636917",
"; c #C6A740",
": c #BD9842",
"> c #A2783C",
", c #A6AFB4",
"< c #9BAAB3",
"1 c #7B888F",
"2 c #6E7A80",
"3 c #686F16",
"4 c #728794",
"5 c #BAC4CA",
"6 c #8A98A0",
"7 c #7F8124",
/* pixels */
"                                                ",
"                                                ",
"                                 .              ",
"             X..                                ",
"             .o.         o.O                    ",
"             o o          oO +++                ",
"                             +++        o       ",
"                     o       +++       .        ",
"             +++   .@X    +++###++         .X   ",
"             +++   o.     +++###++          $O  ",
"             +++          +++###++              ",
"          +++###+++    %%%%%%%%%++              ",
"          +++###+++    %%%%%%%%%++              ",
"          +++###+++    %%%%%%%%%++              ",
"          +++###+++    %%%%%%%%%++              ",
"          +++###%%%%%%%%%%%%%%%%%%%%%%          ",
"          +++###%%%%%%%%%%%%%%%%%%%%%%          ",
"   ..   ++%%%%%%%%%%%%%%%%%%%%%%&&*%%%======    ",
"  oo@O- ++%%%%%%%%%%%%%%%%%%%%%%&&*%%%======    ",
"   $ OO ++%%%%%%%%%%%%%%%%%%%%%%&&*%%%======    ",
"   -O-  ========%%%&&&&%%%%%%&&&%%%%%%%%%    X  ",
"        ========%%%&&&&%%%%%%&&&%%%%%%%%%       ",
"        ========%%%&&&&%%%%%%&&&%%%%%%%%%       ",
"          +++%%%%%%%%%%%%%&&&###&&*%%%%%%===    ",
"          +++%%%%%%%%%%%%%&&&###&&*%%%%%%===    ",
"          +++%%%%%%%%%%%%%&&&###&&*%%%%%%===    ",
"        ========%%%%%%%%%%%%%%%%%%%%%%%%%  .    ",
"       X========%%%%%%%%%%%%%%%%%%%%%%%%%   ;.  ",
"       o========%%%%%%%%%%%%%%%%%%%%%%%%%   -   ",
"        ========%%%%%%%%%%%%%%%%%%%%%%%%%       ",
"          +++%%%%%%%%%%%%%%%%%%%%%%%%%          ",
"   :      +++%%%%%%%%%%%%%%%%%%%%%%%%%          ",
"   :>     +++%%%%%%%%%%%%%%%%%%%%%%%%%          ",
"             +++%%%%%%%%%%,,,,,,,,              ",
"             +++%%%%%%%%%%,,,,,,,,              ",
"             +++%%%%%%%%%%,,,,,,,,              ",
"    %%%%        <<<1111111,,,22222              ",
"    %%%%     .  <<<1111111,,,222223             ",
"  3 %%%%  444444<<<<<<<555222,,,66              ",
"  3 %%%%  444444<<<<<<<555222,,,66              ",
"    %%%%  444444<<<<<<<555222,,,66          ..  ",
"    %%%%  444444<<<<<<<555222,,,66         .3.  ",
"        %%444444<<<<<<<<<<,,,66666         -$.  ",
" 7..    %%444444<<<<<<<<<<,,,66666       3@     ",
" O@3 7  %%444444<<<<<<<<<<,,,66666        -     ",
"    @$    %%%%%%<<<<<<<<<<<<<66666              ",
"      -   %%%%%%<<<<<<<<<<<<<66666              ",
"          %%%%%%<<<<<<<<<<<<<66666              "
};
