/* XPM */
static char *death_compress_4_[] = {
/* columns rows colors chars-per-pixel */
"48 48 25 1 ",
"  c #72751B",
". c #787B21",
"X c #7F8226",
"o c #656C17",
"O c #B3B0A9",
"+ c #A2814F",
"@ c #636917",
"# c #9CA8AD",
"$ c #C6A740",
"% c #A2783C",
"& c #A7B8C2",
"* c #C6DBDE",
"= c #DFEDED",
"- c #BD9842",
"; c #7F8124",
": c #E6A3A3",
"> c #8A98A0",
", c #686F16",
"< c #9BAAB3",
"1 c #7B888F",
"2 c #A6AFB4",
"3 c #4E4D5C",
"4 c #6E7A80",
"5 c #728794",
"6 c #5C6D77",
/* pixels */
"                                                ",
"                                                ",
"                                 .              ",
"             X..                                ",
"             .o.         o.O                    ",
"             o o          oO                    ",
"                                        o       ",
"                     o         O       .        ",
"                   .+X         O@O         .X   ",
"                   o.                       #O  ",
"                                                ",
"                                                ",
"                                                ",
"                                                ",
"                                X               ",
"                   X..         X..o             ",
"                   Xo#.         @@$             ",
"   ..              O+O         %$ @  . o        ",
"  oo+O@              @               o.         ",
"   # OO                                         ",
"   @O@                     X                 X  ",
"              X          X.                     ",
"                .                               ",
"                                                ",
"                               &&  &&&          ",
"                 X             &&  &&&          ",
"                 ooX           &&  &&&     .    ",
"       X .       #.          **&&**&&&****  $.  ",
"       o.o                   **&&**&&&****  @   ",
"                           **==&&==&&&====****  ",
"                     oX    **==&&==&&&====****  ",
"   -                       **==&&==&&&====****  ",
"   -%          .X          **==&&==&&&====****  ",
"              .+          ;===============::::**",
"                @          ===============::::**",
"                       >>>>========***======**  ",
"                       >>>>========***======**  ",
"             .         >>>>========***======**  ",
"  ,          ;.<<<<11222222====33===========    ",
"  ,           ,<<<<11222222====33===========    ",
"             <<22442222>>>>====::33=========**  ",
"             <<22442222>>>>====::33=========**  ",
"         O   <<22442222>>>>====::33=========**  ",
" ;..         <<22442222>>>>====::33=========**  ",
" O+, ;    111>>>>2255556622====33===========::**",
"    +#    111>>>>2255556622====33===========::**",
"==========444>>>>>>55556622========***====****  ",
"==========444>>>>>>55556622========***====****  "
};
