/* XPM */
static char *death_compress_3_[] = {
/* columns rows colors chars-per-pixel */
"48 48 24 1 ",
"  c #72751B",
". c #787B21",
"X c #7F8226",
"o c #656C17",
"O c #B3B0A9",
"+ c #C6DBDE",
"@ c #A2814F",
"# c #E6A3A3",
"$ c #636917",
"% c #9CA8AD",
"& c #DFEDED",
"* c #A7B8C2",
"= c #4E4D5C",
"- c #BD9842",
"; c #A2783C",
": c #9BAAB3",
"> c #7B888F",
", c #BAC4CA",
"< c #A6AFB4",
"1 c #6E7A80",
"2 c #686F16",
"3 c #7F8124",
"4 c #728794",
"5 c #8A98A0",
/* pixels */
"                                                ",
"                                                ",
"                                 .              ",
"             X..                                ",
"             .o.         o.O                    ",
"             o o          o+++                  ",
"                           +++          o       ",
"                     o     +++ O       .        ",
"                   .@+++###+++ O$O         .X   ",
"                   o.+++###+++              %O  ",
"                     +++###+++                  ",
"                   +++++###&&&        +++       ",
"                   +++++###&&&        +++       ",
"                   +++++###&&&        +++       ",
"                   +++++###&&&  X     +++       ",
"                *****&&&&&&&&&&&&&&+++###+++    ",
"                *****&&&&&&&&&&&&&&+++###+++    ",
"   ..           +++&&&&&+++&&&&&&&&&&&&&&+++    ",
"  oo@O$         +++&&&&&+++&&&&&&&&&&&&&&+++    ",
"   % OO         +++&&&&&+++&&&&&&&&&&&&&&+++    ",
"   $O$       ********&&&&&&+++&&&&&+++&&&&&& X  ",
"             ********&&&&&&+++&&&&&+++&&&&&&    ",
"             ********&&&&&&+++&&&&&+++&&&&&&    ",
"                +++&&&&&&&&&&&&&&&&&&&+++&&&    ",
"                +++&&&&&&&&&&&&&&&&&&&+++&&&    ",
"                +++&&&&&&&&&&&&&&&&&&&+++&&&    ",
"                +++&&&&&&&&&&&===&&&&&&&&&&&**  ",
"       X .      +++&&&&&&&&&&&===&&&&&&&&&&&**  ",
"       o.o      +++&&&&&&&&&&&===&&&&&&&&&&&**  ",
"                +++&&&&&&&&&&&===&&&&&&&&&&&**  ",
"                   &&&&&&&&===###==&&&&&&&&&    ",
"   -               &&&&&&&&===###==&&&&&&&&&    ",
"   -;          .X  &&&&&&&&===###==&&&&&&&&&    ",
"              .@   ::>>>>>>&&&&&&&&&&&&&&***    ",
"                $  ::>>>>>>&&&&&&&&&&&&&&***    ",
"                   ::>>>>>>&&&&&&&&&&&&&&***    ",
"                :::,,,,,,,,<<<111&&&&&          ",
"             .  :::,,,,,,,,<<<111&&&&&          ",
"  2          3. 44444,,,111<<<111               ",
"  2           2;44444,,,111<<<111               ",
"                44444,,,111<<<111           ..  ",
"                44444,,,111<<<111          .2.  ",
"  &&&&&& O      44444:::<<<555555          $%.  ",
" 3&&&&&&        44444:::<<<555555        2@     ",
" O&&&&&&        44444:::<<<555555         $     ",
"    @%  &&&&&&&&::::::::555555                  ",
"      $ &&&&&&&&::::::::555555                  ",
"        &&&&&&&&::::::::555555                  "
};
