/* XPM */
static char *door_compress_3_[] = {
/* columns rows colors chars-per-pixel */
"48 48 32 1 ",
"  c #72751B",
". c #E4A672",
"X c #B86F50",
"o c #787B21",
"O c #7F8226",
"+ c #3F2832",
"@ c #743F39",
"# c #656C17",
"$ c #9CA8AD",
"% c #B3B0A9",
"& c #A2814F",
"* c #636917",
"= c #C6A740",
"- c #BD9842",
"; c #A2783C",
": c #686F16",
"> c #6B5631",
", c #6E5935",
"< c #6A552E",
"1 c #B9B4AC",
"2 c #664F27",
"3 c #563915",
"4 c #644E25",
"5 c #A9854E",
"6 c #A8854F",
"7 c #644D24",
"8 c #5B4216",
"9 c #888930",
"0 c #7F8124",
"q c #5F4C17",
"w c #645619",
"e c #695E1B",
/* pixels */
"                                                ",
"                     ......                     ",
"                 ....XXXXXX....  o              ",
"             Oo..XXXXX++++XXXXX..               ",
"             ..XXX++++++++++++XXX..             ",
"            .XXX++++++@@@@@@@@++XXX@            ",
"           .XX+++++++@@@@@@XXXX@++XX@   #       ",
"          .XX++++++@@@@@XX@XXXXX@@+XX@ o        ",
"          .X++++++@@@@@XXX@XXXXXXX@+X@     oO   ",
"         .XX++++++@@@@@XXX@XXXXXXX@+XX@     $%  ",
"         .X++++++@@@@@XXXX@XXXXXXXX@+X@         ",
"        .XX++++++@@@@@XXXX@XXXXXXXX@+XX@        ",
"        .X++++++@@@@@@XXXX@XXXXXXXXX@+X@        ",
"        .X++++++@@@@@@XXXX@XXXXXXXXX@+X@        ",
"        .X++++++@@@@@@XXXXXXXXXXXXXX@+X@        ",
"        .X++++++@@@@@@XXXXXXXXXXXXXX@+X@        ",
"        .X++++++@@@@@@XXXXXXXXXXXXXX@+X@        ",
"   oo   .X++++++@@@@@@XXXXXXXXXXXXXX@+X@        ",
"  ##&%* .X++++++@@@@@@XXXXXXXXXXXXXX@+X@        ",
"   $ %% .X++++++@@@@@@XXXXXXXXXXXXXX@+X@        ",
"   *%*  .X++++++@@@@@@XXXXXXXXXXXXXX@+X@     O  ",
"        .X++++++@@@@@@XXXXXXXXXXXX@X@+X@        ",
"        .X++++++@@@@@@XXXXXXXXXXXX@X@+X@        ",
"        .X++++++@@@@@@XXXXXXXXXXXX@X@+X@        ",
"        .X++++++@@@@@@XXXXXXXXXXXX@X@+X@        ",
"        .X++++++@@@@@@XXXXXXXXXXXX@X@+X@        ",
"        .X++++++@@@@@XXXXXXXXXXXXX@X@+X@   o    ",
"       O.X++++++@@@@@XXXXXXXXXXXXX@X@+X@    =o  ",
"       #.X++++++@@++@XXXXXXXXXXXXX@X@+X@    *   ",
"        .X++++++@++++XXXXXXXXXXXXX@X@+X@        ",
"        .X++++++@++++XXXXX@XXXXXXX@X@+X@        ",
"   -    .X++++++@++++XXXXX@XXXXXXX@X@+X@        ",
"   -;   .X++++++@@++@XXXXX@XXXXXXX@X@+X@        ",
"        .X++++++@@@@@XXXXX@XXXXXXX@X@+X@        ",
"        .X++++++@@@@@XXXXX@XXXXXXX@X@+X@        ",
"        .X++++++@@@@@XXXXX@XXXXXXX@X@+X@        ",
"        .X++++++@@@@@XXXXX@XXXXXXX@X@+X@        ",
"        .X++++++@@@@@XXXXX@XXXXXXX@X@+X@        ",
"  :     .X++++++@@@@@XXXXX@XXXXXXX@X@+X@        ",
"  :     .X>,++++@@@@@XXXXX@XXXXXXXXX@+X@        ",
"        .<112+++@@@@@XXXXX@XXXXXXXXX@+X3    oo  ",
"        415617++@@@@@XXXXX@XXXXXXXXX@33o3  o:o  ",
"        38118+++3@@@@X@XXX@XXXXXXXXX39o>,  *$o  ",
" 0o33   3988+++393@@@X@XXX@XXXXXXXX399<112&     ",
" %3o93 3993+3+393@@@@X@XXX@XXX3XXXX39415617     ",
"   39933oo339qoo3@@@@X@XXX@XX3o33X3oo38118      ",
"    qoo3oo399qoq@@@@@X@XXX@XXX39933ooq988       ",
"    qooqooqooqoq@@@@@X@XXX@XXXXqooqoowooe       "
};
