/* XPM */
static char *door_compress_2_[] = {
/* columns rows colors chars-per-pixel */
"48 48 33 1 ",
"  c #72751B",
". c #E4A672",
"X c #787B21",
"o c #7F8226",
"O c #B86F50",
"+ c #656C17",
"@ c #3F2832",
"# c #743F39",
"$ c #9CA8AD",
"% c #B3B0A9",
"& c #A2814F",
"* c #636917",
"= c #C6A740",
"- c #EAD4AA",
"; c #BD9842",
": c #A2783C",
"> c #686F16",
", c #6B5631",
"< c #6E5935",
"1 c #6A552E",
"2 c #B9B4AC",
"3 c #664F27",
"4 c #563915",
"5 c #644E25",
"6 c #A9854E",
"7 c #A8854F",
"8 c #644D24",
"9 c #5B4216",
"0 c #888930",
"q c #7F8124",
"w c #5F4C17",
"e c #645619",
"r c #695E1B",
/* pixels */
"                                                ",
"                                                ",
"                     ......      X              ",
"             oXX ....OOOOOO....                 ",
"             X+..OOOOO@@@@OOOOO..               ",
"             ..OOO@@@@@@@@@@@@OOO..             ",
"            .OOO@@@@@#########@@OOO#    +       ",
"           .OO@@@@@###OOOO#OOO##@@OO#  X        ",
"          .OO@@@@####OOOOO#OOOOO##@OO#     Xo   ",
"          .O@@@@#####OOOOO#OOOOOOO#@O#      $%  ",
"         .OO@@@@###O#OOOOO#OOOOOOO#@OO#         ",
"         .O@@@@###OO#OOOOO#OOOOOOOO#@O#         ",
"        .OO@@@@###OO#OOOOO#OOOOOOOO#@OO#        ",
"        .O@@@@###OOO#OOOOO#OOOOOOOOO#@O#        ",
"        .O@@@@###OOO#OOOOO#OOOOOOOOO#@O#        ",
"        .O@@@@###OOO#OOOOOOOOOOOOOOO#@O#        ",
"        .O@@@@###OOO#OOOOOOOOOOOOOOO#@O#        ",
"   XX   .O@@@@###OOO#OOOOOOOOOOOOOOO#@O#        ",
"  ++&%* .O@@@@###OOO#OOOOOOOOOOOOOOO#@O#        ",
"   $ %% .O@@@@###OOO#OOOOOOOOOOOOOOO#@O#        ",
"   *%*  .O@@@@###OOO#OOOOOOOOOOOOOOO#@O#     o  ",
"        .O@@@@###OOO#OOOOOOOOOOOOOOO#@O#        ",
"        .O@@@@###OOO#OOOOOOOOOOOOO#O#@O#        ",
"        .O@@@@###OOO#OOOOOOOOOOOOO#O#@O#        ",
"        .O@@@@###OOO#OOOOOOOOOOOOO#O#@O#        ",
"        .O@@@@###OOO#OOOOOOOOOOOOO#O#@O#        ",
"        .O@@@@###OOO#OOOOOOOOOOOOO#O#@O#   X    ",
"       o.O@@@@###OOOOOOOOOOOOOOOOO#O#@O#    =X  ",
"       +.O@@@@###OOOOOOOOOOOOOOOOO#O#@O#    *   ",
"        .O@@@@##-@@OOOOOOOOOOOOOOO#O#@O#        ",
"        .O@@@@#-@@@@OOOOOOOOOOOOOO#O#@O#        ",
"   ;    .O@@@@#-@@@@OOOOOO#OOOOOOO#O#@O#        ",
"   ;:   .O@@@@#.@@@@OOOOOO#OOOOOOO#O#@O#        ",
"        .O@@@@##.@@#OOOOOO#OOOOOOO#O#@O#        ",
"        .O@@@@#####OOOOOOO#OOOOOOO#O#@O#        ",
"        .O@@@@###OOOOOOOOO#OOOOOOO#O#@O#        ",
"        .O@@@@###OOOOOOOOO#OOOOOOO#O#@O#        ",
"        .O@@@@###OOOOOOOOO#OOOOOOO#O#@O#        ",
"  >     .O@@@@###OOOOOOOOO#OOOOOOO#O#@O#        ",
"  >     .O,<@@###OOOOOOOOO#OOOOOOO#O#@O#        ",
"        .1223@###OOOOOOOOO#OOOOOOOOO#@O4    XX  ",
"        526728###OOOOOOOOO#OOOOOOOOO#44X4  X>X  ",
"        49229@##4OOOOOOOOO#OOOOOOOOO40X,<  *$X  ",
" qX44   4099@@#404OOO#OOOO#OOOOOOOO4001223&     ",
" %4X04 4004@4@404OOOO#OOOO#OOO4OOOO40526728     ",
"   40044XX440wXX4OOOO#OOOO#OO4X44O4XX49229      ",
"    wXX4XX400wXw#OOOO#OOOO#OOO40044XXw099       ",
"    wXXwXXwXXwXw#OOOO#OOOO#OOOOwXXwXXeXXr       "
};
