/* XPM */
static char *door_compress_6_[] = {
/* columns rows colors chars-per-pixel */
"48 48 32 1 ",
"  c #72751B",
". c #E4A672",
"X c #B86F50",
"o c #787B21",
"O c #7F8226",
"+ c #3F2832",
"@ c #743F39",
"# c #656C17",
"$ c #9CA8AD",
"% c #B3B0A9",
"& c #A2814F",
"* c #636917",
"= c #C6A740",
"- c #BD9842",
"; c #A2783C",
": c #686F16",
"> c #6B5631",
", c #6E5935",
"< c #6A552E",
"1 c #B9B4AC",
"2 c #664F27",
"3 c #563915",
"4 c #644E25",
"5 c #A9854E",
"6 c #A8854F",
"7 c #644D24",
"8 c #5B4216",
"9 c #888930",
"0 c #7F8124",
"q c #5F4C17",
"w c #645619",
"e c #695E1B",
/* pixels */
"                                                ",
"                     ......                     ",
"                 ....XXXXXX....  o              ",
"             Oo..XXXXX++++XXXXX..               ",
"             ..XXX++++++++++++XXX..             ",
"            .XXX+++++++++++@@@++XXX@            ",
"           .XX+++++++++++++@@@@@++XX@   #       ",
"          .XX+++++++++++++@@@@@@@@+XX@ o        ",
"          .X++++++++++++++@@@@@@@X@+X@     oO   ",
"         .XX++++++++++++++@@@@@@XX@+XX@     $%  ",
"         .X++++++++++++++@@@@@@@XXX@+X@         ",
"        .XX++++++++++++++@@@@@@XXXX@+XX@        ",
"        .X++++++++++++++@@@@@@@XXXX@@+X@        ",
"        .X++++++++++++++@@@@@@@XXXX@@+X@        ",
"        .X++++++++++++++@@@@@@@XXXX@@+X@        ",
"        .X++++++++++++++@@@@@@@XXXX@@+X@        ",
"        .X++++++++++++++@@@@@@@XXXX@@+X@        ",
"   oo   .X++++++++++++++@@@@@@@XXXX@@+X@        ",
"  ##&%* .X++++++++++++++@@@@@@@XXXX@@+X@        ",
"   $ %% .X++++++++++++++@@@@@@@XXXX@@+X@        ",
"   *%*  .X++++++++++++++@@@@@@@XXXX@@+X@     O  ",
"        .X++++++++++++++@@@@@@@XX@X@@+X@        ",
"        .X++++++++++++++@@@@@@@XX@X@@+X@        ",
"        .X++++++++++++++@@@@@@@XX@X@@+X@        ",
"        .X++++++++++++++@@@@@@@XX@X@@+X@        ",
"        .X++++++++++++++@@@@@@@XX@X@@+X@        ",
"        .X++++++++++++++@@@@@@@XX@X@@+X@   o    ",
"       O.X++++++++++++++@@@@@@@XX@X@@+X@    =o  ",
"       #.X++++++++++++++@@+@@@@XX@X@@+X@    *   ",
"        .X++++++++++++++@++@@@@XX@X@@+X@        ",
"        .X++++++++++++++@++@@@@XX@X@@+X@        ",
"   -    .X++++++++++++++@++@@@@XX@X@@+X@        ",
"   -;   .X++++++++++++++@@+@@@@XX@X@@+X@        ",
"        .X++++++++++++++@@@@@@@XX@X@@+X@        ",
"        .X++++++++++++++@@@@@@@XX@X@@+X@        ",
"        .X++++++++++++++@@@@@@@XX@X@@+X@        ",
"        .X++++++++++++++@@@@@@@XX@X@@+X@        ",
"        .X++++++++++++++@@@@@@@XX@X@@+X@        ",
"  :     .X++++++++++++++@@@@@@@XX@X@@+X@        ",
"  :     .X>,++++++++++++@@@@@@@XXXX@@+X@        ",
"        .<112+++++++++++@@@@@@@XXXX@@+X3    oo  ",
"        415617++++++++++@@@@@@@XXXX@@33o3  o:o  ",
"        38118+++3+++++++@@@@@@@XXXX@39o>,  *$o  ",
" 0o33   3988+++393++++++@@@@@@@XXXX399<112&     ",
" %3o93 3993+3+393+++++++@@@@@@3XXXX39415617     ",
"   39933oo339qoo3+++++++@@@@@3o33X3oo38118      ",
"    qoo3oo399qoq++++++++@@@@@@39933ooq988       ",
"    qooqooqooqoq++++++++@@@@@@@qooqoowooe       "
};
