/* XPM */
static char *door_compress_1_[] = {
/* columns rows colors chars-per-pixel */
"48 48 33 1 ",
"  c #72751B",
". c #E4A672",
"X c #B86F50",
"o c #787B21",
"O c #7F8226",
"+ c #3F2832",
"@ c #743F39",
"# c #656C17",
"$ c #9CA8AD",
"% c #B3B0A9",
"& c #A2814F",
"* c #636917",
"= c #EAD4AA",
"- c #C6A740",
"; c #BD9842",
": c #A2783C",
"> c #686F16",
", c #6B5631",
"< c #6E5935",
"1 c #6A552E",
"2 c #B9B4AC",
"3 c #664F27",
"4 c #563915",
"5 c #644E25",
"6 c #A9854E",
"7 c #A8854F",
"8 c #644D24",
"9 c #5B4216",
"0 c #888930",
"q c #7F8124",
"w c #5F4C17",
"e c #645619",
"r c #695E1B",
/* pixels */
"                                                ",
"                     .....                      ",
"                 ....XXXXX....   o              ",
"             Oo..XXXXX+++XXXXX..                ",
"             ..XXX++++@@@++++XXX..              ",
"            .XXX++@@@@XXX@@@@++XXX@             ",
"           .XX++@@XXXXXXX@XXX@@++XX@    #       ",
"          .XX+@@X@XXXXXXX@XXXXX@@+XX@  o        ",
"          .X+@XXX@XXXXXXX@XXXXXXX@+X@      oO   ",
"         .XX+@XXX@XXXXXXX@XXXXXXX@+XX@      $%  ",
"         .X+@XXXX@XXXXXXX@XXXXXXXX@+X@          ",
"        .XX+@XXXX@XXXXXXX@XXXXXXXX@+XX@         ",
"        .X+@XXXXX@XXXXXXX@XXXXXXXXX@+X@         ",
"        .X+@XXXXX@XXXXXXX@XXXXXXXXX@+X@         ",
"        .X+@XXXXX@XXXXXXXXXXXXXXXXX@+X@         ",
"        .X+@XXXXX@XXXXXXXXXXXXXXXXX@+X@         ",
"        .X+@XXXXX@XXXXXXXXXXXXXXXXX@+X@         ",
"   oo   .X+@XXXXX@XXXXXXXXXXXXXXXXX@+X@#        ",
"  ##&%* .X+@XXXXX@XXXXXXXXXXXXXXXXX@+X@         ",
"   $ %% .X+@XXXXX@XXXXXXXXXXXXXXXXX@+X@         ",
"   *%*  .X+@XXXXX@XXXXXXXXXXXXXXXXX@+X@      O  ",
"        .X+@XXXXX@XXXXXXXXXXXXXXX@X@+X@         ",
"        .X+@XXXXX@XXXXXXXXXXXXXXX@X@+X@         ",
"        .X+@XXXXX@XXXXXXXXXXXXXXX@X@+X@         ",
"        .X+@XXXXX@XXXXXXXXXXXXXXX@X@+X@         ",
"        .X+@XXXXXXXXXXXXXXXXXXXXX@X@+X@         ",
"        .X+@XXXXXXXXXXXXXXXXXXXXX@X@+X@    o    ",
"       O.X+@X=++XXXXXXXXXXXXXXXXX@X@+X@     -o  ",
"       #.X+@=++++XXXXXXXXXXXXXXXX@X@+X@     *   ",
"        .X+@=++++XXXXXXXX@XXXXXXX@X@+X@         ",
"        .X+@.++++XXXXXXXX@XXXXXXX@X@+X@         ",
"   ;    .X+@@.++@XXXXXXXX@XXXXXXX@X@+X@         ",
"   ;:   .X+@X@@@XXXXXXXXX@XXXXXXX@X@+X@         ",
"        .X+@XXXXXXXXXXXXX@XXXXXXX@X@+X@         ",
"        .X+@XXXXXXXXXXXXX@XXXXXXX@X@+X@         ",
"        .X+@XXXXXXXXXXXXX@XXXXXXX@X@+X@         ",
"        .X+@XXXXXXXXXXXXX@XXXXXXX@X@+X@         ",
"        .X+@XXXXXXXXXXXXX@XXXXXXX@X@+X@         ",
"  >     .X+@XXXXXXXXXXXXX@XXXXXXXXX@+X@         ",
"  >     .X,<XXXXXXXXXXXXX@XXXXXXXXX@+X@         ",
"        .1223XXXXXXXXXXXX@XXXXXXXXX@+X4     oo  ",
"        526728XXXX@XXXXXX@XXXXXXXXX@44o4   o>o  ",
"        49229XXX4X@XXXXXX@XXXXXXXXX40o4,<  *$o  ",
" qo44   4099XXX404@XXXXXX@XXXXXXXX40041223&     ",
" %4o04 4004@4X404X@XXXXXX@XXX4XXXX404526728     ",
"   40044oo440woo4X@XXXXXX@XX4o44X4oo449229      ",
"    woo4oo400wowXX@XXXXXX@XXX40044oow0099       ",
"    woowoowoowowXX@XXXXXX@XXXXwoowooeoor        "
};
