/* XPM */
static char * empty_grass_xpm[] = {
"48 48 13 1",
" 	c #72751B",
".	c #787B21",
"+	c #7F8226",
"@	c #656C17",
"#	c #B3B0A9",
"$	c #A2814F",
"%	c #636917",
"&	c #9CA8AD",
"*	c #C6A740",
"=	c #A2783C",
"-	c #7F8124",
";	c #686F16",
">	c #BD9842",
"                                                ",
"                                                ",
"                                 .              ",
"             +..                                ",
"             .@.         @.#                    ",
"             @ @          @#                    ",
"                                        @       ",
"                     @         #       .        ",
"                   .$+         #%#         .+   ",
"                   @.                       &#  ",
"                                                ",
"                                                ",
"                                                ",
"                                                ",
"                                +               ",
"                   +..         +..@             ",
"                   +@&.         %%*             ",
"   ..              #$#         =* %  . @        ",
"  @@$#%              %               @.         ",
"   & ##                                         ",
"   %#%                     +                 +  ",
"              +          +.                     ",
"                .                               ",
"                                                ",
"                                                ",
"                 +                              ",
"                 @@+                       .    ",
"       + .       &.                         *.  ",
"       @.@                    -             %   ",
"                              ;-                ",
"                     @+      ; .;               ",
"   >                                            ",
"   >=          .+                               ",
"              .$          -                     ",
"                %                               ",
"                                                ",
"                                                ",
"             .                    ;             ",
"  ;          -.                                 ",
"  ;           ;=    .-                          ",
"                %  .*;                      ..  ",
"                   %*.                     .;.  ",
"         #        .  >    -..              %&.  ",
" -..                *      $%            ;$     ",
" #$; -                     %              %     ",
"    $&       ;..      .                         ",
"      %              .                          ",
"                                                "};
