/* XPM */
static char *get_hit_compress_2_[] = {
/* columns rows colors chars-per-pixel */
"48 48 14 1 ",
"  c #72751B",
". c #787B21",
"X c #7F8226",
"o c #656C17",
"O c #BF2651",
"+ c #B3B0A9",
"@ c #636917",
"# c #9CA8AD",
"$ c #A2814F",
"% c #911D55",
"& c #C6A740",
"* c #BF2652",
"= c #686F16",
"- c #7F8124",
/* pixels */
"                                                ",
"                                                ",
"                                 .              ",
"             X..                                ",
"             .o.    OOOO o.+       OOOO         ",
"             o o    OOOO  o+       OOOO         ",
"                    OOOO           OOOO o       ",
"                 OOOOOOO       + OOOOOO.        ",
"                 OOOOOOO       +@OOOOOO    .X   ",
"                 OOOOOOO         OOOOOO     #+  ",
"              OOOOOOOOOOOOOOOOOOOOOOOOO         ",
"              OOOOOOOOOOOOOOOOOOOOOOOOO         ",
"              OOOOOOOOOOOOOOOOOOOOOOOOO         ",
"              OOOOOOOOOOOOOOOOOOOOOOOOO         ",
"           OOOOOOOOOOOOOOOOOOOOOOOOOOOOOOO      ",
"           OOOOOOOOOOOOOOOOOOOOOOOOOOOOOOO      ",
"           OOOOOOOOOOOOOOOOOOOOOOOOOOOOOOO      ",
"   ..   OOOOOOOOOOOOOOOOOOOOOOOOOOOOOOOOOOOOO   ",
"  oo$+@ OOOOOOOOOOOOOOOOOOOOOOOOOOOOOOOOOOOOO   ",
"   # ++ OOOOOOOOOOOOOOOOOOOOOOOOOOOOOOOOOOOOO   ",
"   @+@     OOOOOOOOOOOOOOOOOOOOOOOOOOOOOOO   X  ",
"           OOOOOOOOOOOOOOOOOOOOOOOOOOOOOOO      ",
"           OOOOOOOOOOOOOOOOOOOOOOOOOOOOOOO      ",
"        OOOOOOOOOOOOOOOOOOOOOOOOOOOOOOOOOOOOO   ",
"        OOOOOOOOOOOOOOOOOOOOOOOOOOOOOOOOOOOOO   ",
"        OOOOOOOOOOOOOOOOOOOOOOOOOOOOOOOOOOOOO   ",
"      %%   OOOOOOOOOOOOOOOOOOOOOOOOOOOOOOO .    ",
"      %% . OOOOOOOOOOOOOOOOOOOOOOOOOOOOOOO  &.  ",
"      %%.o OOOOOOOOOOOOOOOOOOOOOOOOOOOOOOO  @   ",
"      %%   OOOOOOOOOOOOOOOOOOOOOOOOOOOOOOO      ",
"  %%%%%%      OOOOOOOOOOOOOOOOOOOOOOOOO         ",
"  %%%%%%      OOOOOOOOOOOOOOOOOOOOOOOOO         ",
"  %%%%%%      OOOOOOOOOOOOOOOOOOOOOOOOO         ",
"  %%%%%%%%%   %%%%%%%%%%%%%%%%%%%               ",
"  %%%%%%%%%   %%%%%%%%%%%%%%%%%%%               ",
"  %%%%%%%%%   %%%%%%%%%%%%%%%%%%%               ",
"      %%%%%%%%%%%%%%%%%*OOOOOO%%%  OOOOOOO      ",
"      %%%%%%%%%%%%%%%%%*OOOOOO%%% =OOOOOOO      ",
"  =   %%%%%%%%%%%%%%%%%*OOOOOO%%%  OOOOOOO      ",
"  =   %%%%%%%%%%%%%%%%%*OOOOOO%%%  OOOOOOO      ",
"      %%%%%%%%%%%%%%%%%*OOOOOO%%%  OOOOOOO  ..  ",
"      %%%%%%%%%%%%%%%%%*OOOOOO%%%  OOOOOOO .=.  ",
"      %%%%%%%%%%%%%%%%%*OOOOOO%%%  OOOOOOO @#.  ",
" -..    %%%%%%%%%%%%%%%%%%%%%%%%%        =$     ",
" +$= -  %%%%%%%%%%%%%%%%%%%%%%%%%         @     ",
"    $#  %%%%%%%%%%%%%%%%%%%%%%%%%               ",
"      @       %%%    .     %%%                  ",
"              %%%          %%%                  "
};
