/* XPM */
static char *get_hit_compress_1_[] = {
/* columns rows colors chars-per-pixel */
"48 48 26 1 ",
"  c #72751B",
". c #787B21",
"X c #7F8226",
"o c #C6DBDE",
"O c #656C17",
"+ c #B3B0A9",
"@ c #E6A3A3",
"# c #A2814F",
"$ c #DFEDED",
"% c #9CA8AD",
"& c #A7B8C2",
"* c #4E4D5C",
"= c #636917",
"- c #C6A740",
"; c #8A98A0",
": c #A6AFB4",
"> c #686F16",
", c #BD9842",
"< c #A2783C",
"1 c #9BAAB3",
"2 c #BAC4CA",
"3 c #728794",
"4 c #7B888F",
"5 c #6E7A80",
"6 c #5C6D77",
"7 c #7F8124",
/* pixels */
"                                                ",
"                                                ",
"                                 .              ",
"             Xooo            ooo                ",
"             .ooo        O.+ ooo                ",
"             Oooo         O+ ooo                ",
"           ooo@@@ooo      ooo@@@ooo     O       ",
"           ooo@@@ooo O    ooo@@@ooo    .        ",
"           ooo@@@ooo#X    ooo@@@ooo        .X   ",
"           ooo@@@$$$$$$$$$$$$$$$ooo         %+  ",
"           ooo@@@$$$$$$$$$$$$$$$ooo             ",
"           ooo@@@$$$$$$$$$$$$$$$ooo             ",
"        ooo$$$$$$$$$$$$$$$$$$$$$$$$$$$          ",
"        ooo$$$$$$$$$$$$$$$$$$$$$$$$$$$          ",
"        ooo$$$$$$$$$$$$$$$$$$$$$$$$$$$          ",
"     &&&&&&&&&$$$***$$$$$$$$$$$$***$$$&&&       ",
"     &&&&&&&&&$$$***$$$$$$$$$$$$***$$$&&&       ",
"   ..&&&&&&&&&$$$***$$$$$$$$$$$$***$$$&&&       ",
"  OO#+= ooo$$$$$$$$$$$$$$$***$$$$$$$$$.         ",
"   % ++ ooo$$$$$$$$$$$$$$$***$$$$$$$$$          ",
"   =+=  ooo$$$$$$$$$$$$$$$***$$$$$$$$$       X  ",
"     &&&&&&&&&$$$$$$$$$***@@@***$$$$$$&&&       ",
"     &&&&&&&&&$$$$$$$$$***@@@***$$$$$$&&&       ",
"     &&&&&&&&&$$$$$$$$$***@@@***$$$$$$&&&       ",
"        ooo$$$$$$$$$$$$$$$$$$$$$$$$$$$          ",
"        ooo$$$$$$$$$$$$$$$$$$$$$$$$$$$          ",
"        ooo$$$$$$$$$$$$$$$$$$$$$$$$$$$     .    ",
"       X . ooo$$$$$$$$$$$$$$$$$$$$$         -.  ",
"       O.O ooo$$$$$$$$$$$$$$$$$$$$$         =   ",
"           ooo$$$$$$$$$$$$$$$$$$$$$             ",
"              ;;;::::::;;;::::::>               ",
"   ,          ;;;::::::;;;::::::                ",
"   ,<         ;;;::::::;;;::::::                ",
"     $$$   111111222222:::::::::;;;             ",
"     $$$   111111222222:::::::::;;;             ",
"     $$$   111111222222:::::::::;;;             ",
"     $$$333333111444444:::555555;;;666          ",
"     $$$333333111444444:::555555;;;666          ",
"  >  $$$333333111444444:::555555;;;666          ",
"  >  $$$333333111111222555:::;;;;;;666          ",
"     $$$333333111111222555:::;;;;;;666      ..  ",
"     $$$333333111111222555:::;;;;;;666     .>.  ",
"        $$$$$$111111111:::;;;;;;           =%.  ",
" 7..    $$$$$$111111111:::;;;;;;         >#     ",
" +#> 7  $$$$$$111111111:::;;;;;;          =     ",
"    #%       >.. 444  .      555                ",
"      =          444 .       555                ",
"                 444         555                "
};
