/* XPM */
static char *health_compress_2_[] = {
/* columns rows colors chars-per-pixel */
"48 48 131 2 ",
"   c black",
".  c #010101",
"X  c #4F2913",
"o  c #512D19",
"O  c #512E19",
"+  c #512E1A",
"@  c #512F1B",
"#  c #4F311E",
"$  c #52301D",
"%  c #52301E",
"&  c #52311E",
"*  c #53321E",
"=  c #53321F",
"-  c #56321C",
";  c #4F3625",
":  c #533220",
">  c #533320",
",  c #533321",
"<  c #543321",
"1  c #543422",
"2  c #543523",
"3  c #543624",
"4  c #553726",
"5  c #553827",
"6  c #5A3B27",
"7  c #5E3B25",
"8  c #563929",
"9  c #563B2A",
"0  c #563C2C",
"q  c #573C2D",
"w  c #573D2D",
"e  c #593D2A",
"r  c #583E2E",
"t  c #5B4231",
"y  c #594032",
"u  c #584132",
"i  c #594234",
"p  c #5B4435",
"a  c #5A4537",
"s  c #5A4538",
"d  c #5B4538",
"f  c #5B473A",
"g  c #5B483B",
"h  c #5C4B3E",
"j  c #624937",
"k  c #5D4C41",
"l  c #5D4D41",
"z  c #5E4F44",
"x  c #5E4F45",
"c  c #5A5045",
"v  c #5B5146",
"b  c #5B5247",
"n  c #5C5147",
"m  c #5E5146",
"M  c #5C5247",
"N  c #5D5247",
"B  c #5D5248",
"V  c #5F5349",
"C  c #694F44",
"Z  c #655444",
"A  c #665444",
"S  c #675544",
"D  c #635349",
"F  c #655248",
"G  c #60564F",
"H  c #61574F",
"J  c #6A5248",
"K  c #6C5248",
"L  c #6F5248",
"P  c #615851",
"I  c #655C55",
"U  c #655D56",
"Y  c #6C5F57",
"T  c #665F58",
"R  c #745F57",
"E  c #725F58",
"W  c #666057",
"Q  c #676159",
"!  c #676259",
"~  c #696058",
"^  c #686159",
"/  c #696159",
"(  c #6A6058",
")  c #6B6058",
"_  c #6A6059",
"`  c #6B6159",
"'  c #68625A",
"]  c #68635A",
"[  c #69635B",
"{  c #6C6058",
"}  c #6D6058",
"|  c #69645B",
" . c #6A645C",
".. c #6A655C",
"X. c #6B655D",
"o. c #6A665C",
"O. c #6B665D",
"+. c #6B675D",
"@. c #6C675E",
"#. c #6C675F",
"$. c #6E675F",
"%. c #6C685E",
"&. c #6D685F",
"*. c #71655E",
"=. c #70665E",
"-. c #71665E",
";. c #75645C",
":. c #75665E",
">. c #6C6760",
",. c #6D6861",
"<. c #716D66",
"1. c #726E67",
"2. c #746F67",
"3. c #746F69",
"4. c #74706A",
"5. c #75716B",
"6. c #767469",
"7. c #76726C",
"8. c #B71C1C",
"9. c #C62828",
"0. c #D32F2F",
"q. c #E53935",
"w. c #F44336",
"e. c #868579",
"r. c #86847B",
"t. c #918F88",
"y. c #929088",
"u. c #94928B",
"i. c #99978F",
"p. c white",
"a. c None",
/* pixels */
"6 6 6 6 6 6 6 6 6 6 6 6 a.6 6 6 6 6 6 6 6 6 6 6 6 6 6 6 6 6 6 6 6 6 6 6 a.6 6 6 6 6 6 6 6 6 6 6 ",
"e.e.e.e.e.e.e.e.e.e.e.e.j e.e.e.e.e.e.e.e.e.e.e.e.e.e.e.e.e.e.e.e.e.e.e.j e.e.e.e.e.e.e.e.e.e.e.",
"e.e.e.e.e.e.e.e.e.e.e.e.S e.e.e.e.e.e.e.e.e.e.e.e.e.e.e.e.e.e.e.e.e.e.e.A e.e.e.e.e.e.e.e.e.e.e.",
"t.t.t.t.t.t.t.t.y.u.i.i.S i.i.i.u.u.u.u.u.u.u.u.t.t.t.t.t.t.t.t.y.u.i.i.A i.i.i.u.u.u.u.u.u.u.u.",
"&.&.&.&.&.&.&.&.&.&.&.&.t &.@.@.@.&.@.@.@.@.@.@.&.&.&.&.@.@.,.&.&.&.&.&.t &.&.@.&.&.@.@.@.@.@.@.",
"&.&.&.&.&.&.%.&.%.&.o.&.t %.&.@.%.&.@.@.@.@.@.@.&.&.&.&.@.>.&.&.&.@.@.@.t &.&.@.&.&.@.@.@.@.@.@.",
"&.%.@.&.&.@.%.%.@.@.&.&.t o.@.@.o.o.@.@.@.@.@.@.&.&.&.&.&.&.&.&.@.@.@.@.t o.@.@.o.o.@.@.@.@.@.@.",
"o.o.@.o.o.@.o.o.@.@.| | t @.@.@.o.@.o.o.o.o.o.o.o.o.| &.| o.@.| o.@.o.@.t o.o.@.o.@.o.o.@.| | o.",
"o.o. .o.o. .o. .o. .@. .e @.| |  .o.o.|  .o.o.o.| o.o.o.o.o. .o.o.@.o.@.e  .@.| @.| | | | | @.| ",
"o.o.o. . .o. .o. .o. . .& | | | ' | ' | ' | ' | +.| o.| o. .o. .| |  .o.* ' | | ' | | | | | | | ",
" .'  .' ' o.o.' o.' ' ' * | ' ' | ' | ' | ' ' | | | | '  .' ' ' | | ' | * ' ' ' ' | | ' | ' | ' ",
"Q Q Q ' Q ' Q ' ' | ' ' & ' ' ' ' ' ' ' | ' ' ' ' ! ! ! ' ' ' ' ' Q | ' * ' ' ' ' ' ' ' | ' ' ' ",
"Q Q Q Q Q Q Q Q Q Q Q Q & ' Q Q ' ' ! ! T ' T ' ! ' T ! ' ' T ' Q Q Q Q & Q Q Q Q Q Q Q Q Q Q Q ",
"X X X X X X X X X X X X M X X X X X X X X X X X X X X X X X X X X X X X M X X X X X X X X X X X ",
"M M M M M M M M M M M M M M M M v # x M M M M M M M M M M M M M M M M M M M M M v # M M M M M B ",
"M M M M M M M M M M M M M M M M v & M M M D M M M M M M M M M M M M M M M M M M M & M M D M M B ",
"M M M M M M M M M M M M M M M M M ; M M M D M M M M M M M M M M M M M M M M M M M ; M M M D M B ",
"M M M M M M M M M M M M M M M M M ; M M M M M M M M M M M M M M M v M M M M M M M ; M M M M M M ",
"M M M M M M M M M M v v M v B M M ; M M M M M M M M M M M M M M v v B v M v M M M ; M M M M M B ",
"Q Q Q Q Q Q W W Q       Q       Q 3 Q Q       '       ' Q Q '       Q       Q Q Q 3 Q Q Q Q Q Q ",
"M M D m m h M D   9.0.q.  w.w.w.  3 5   9.0.q.  w.w.w.  k k   C F L   L D J   u 9 3 9 B B D B D ",
"&.&.&.@.k k 7.7.  9.9.q.q.w.p.w.  4.2.  9.9.q.q.w.p.w.  k @.  ;.;.-.;.>.<.-.  @.@.,.@.>.>.o.>.>.",
"' T W ! k 4.,.,.  8.9.0.q.q.q.w.  ,.,.  8.9.0.q.q.q.w.  h '   ' T  .Y R '  .  Q Q Q Q Q Q Q Q Q ",
"! ! ! ! k 4.,.,.  8.8.9.q.q.q.q.  ,.,.  8.8.9.q.q.q.q.  k '   Y Y ' Y R Y Y   Q Q Q Q Q Q Q Q Q ",
"T ' Q Q k 4.,.,.,.    9.9.9.    ,.,.,.,.    9.9.9.    ,.k Q Q      .T T     Q Q Q Q Q Q Q Q Q Q ",
"T ! Q Q u 3.,.,.,.,.,.  9.  ,.,.,.,.,.,.,.,.  9.  ,.,.,.> Q Q Q Q   '   ' ' ' T Q Q Q Q Q Q Q Q ",
"' ' Q ' < 1.,.,.,.,.,.,.  ,.,.,.,.,.,.,.,.,.>.  ,.,.,.,.> Q Q Q Q Q   Q ' T ' ' Q Q Q Q Q Q Q Q ",
"f f 0 q o o o < 5 3 p p p p p p r & > < & < & & & o o o d > > > > 1 > 4 8 0 q q 0 w w g D B B D ",
"T T T T Q T T T T T T T T T T T Q w k P P P P P P P P P P P P P P P P P P P P P k r T T T T T T ",
"T T T T T T T T T T T T T T T T U w P P P P P P P P P P P P P P P P P P P P P P k r T T T T T T ",
"T T T T T T T T T T T T T T T T U x P P P P P P P P P P P P P P P P P P P P P P P i U T T T Q U ",
"T T T T T T T T T T T T T T T T Q x P P P P P P P P P P P P P P P P P P P P P P P d T T T T T Q ",
"T T T T T T T T T T T T T T T T T < P P P P P P P P P P P P P P P P P P P P P P P < T T T T T T ",
"T T U T T T T T T T T T T T T T T * P P P P P P P P P P P P P P P P P P P P P P P & T T T T T T ",
"@.>.o.,.h >.@.>.@.>.@.>.>.@.@.>.@.@.@.@.,.,.@.@.@.>.>.@.V P w >.,.o.,.,.>.>.o.>.o.>.>.@.@.>.>.@.",
"T T T T h T T T T T T T T T T T T T T T Q U T T T T T T w w T T T T T T T T Q T T T T T T T T T ",
"T T T T h T T T T T T T T T T T T T T T T T T T T T T T r T T T T T T T T T T T T T T T T T T T ",
"T T T T B T T T T T T T T T T T T T T T T T T T T T T T p T T T T T T T T T T T T T T T T T T T ",
"T T T T u T T T T T T T T T T T T T T T T T T T T T T T d T T T T T T T T T T T T T T T T T T T ",
"T T T T r T T T T T T T T T T T T T T T T T U ! T T T T w T T T T T T T T T T T T T T T T T T T ",
"- - - - - - - * * - - - T - - - - - - - - - - - - - - - - - - * - - - * W - - * * - - - - - - - ",
"6.6.6.6.6.6.6.6.6.6.6.6.7 6.6.6.6.6.6.6.6.6.6.6.6.6.6.6.6.6.6.6.6.6.6.6.7 6.6.6.6.6.6.6.6.6.6.6.",
"6.6.6.6.6.6.6.6.6.6.6.6.S 6.6.6.6.6.6.6.6.6.6.6.6.6.6.6.6.6.6.6.6.6.6.6.A 6.6.6.6.6.6.6.6.6.6.6.",
"6.6.6.6.6.6.6.4.6.6.6.6.S 6.6.6.6.6.6.6.6.6.6.6.6.6.6.6.6.6.6.6.6.6.6.6.A 6.6.6.6.6.6.6.6.6.6.6.",
"r.e.e.e.e.r.r.e.r.e.r.e.Z e.r.r.e.r.r.r.r.r.e.e.r.r.r.r.e.r.r.e.e.e.r.r.S e.r.r.e.e.e.e.r.r.r.r.",
"! ! U T W W Q W T W T W Z U W Q W W ! U ! T T W ! T T ! W W Q U W W Q T S W T U T ' U W ! U W ! ",
"W W ' U W W W W Q U W W X W W W W W W U U ! W W W W T W W W W W W W U W X W W Q T U W W W W W W ",
"X X X X X X X X X X X X X X X X X X X X X X X X X X X X X X X X X X X X X X X X X X X X X X X X "
};
