/* XPM */
static char *health_compress_3_[] = {
/* columns rows colors chars-per-pixel */
"48 48 106 2 ",
"   c black",
".  c #010101",
"X  c #4F2913",
"o  c #512D19",
"O  c #512E19",
"+  c #512E1A",
"@  c #512F1B",
"#  c #4F311E",
"$  c #52301D",
"%  c #52301E",
"&  c #52311E",
"*  c #53321E",
"=  c #53321F",
"-  c #56321C",
";  c #4F3625",
":  c #533220",
">  c #533320",
",  c #533321",
"<  c #543321",
"1  c #543422",
"2  c #543523",
"3  c #543624",
"4  c #553726",
"5  c #553827",
"6  c #5A3B27",
"7  c #5E3B25",
"8  c #563929",
"9  c #563B2A",
"0  c #563C2C",
"q  c #573C2D",
"w  c #573D2D",
"e  c #593D2A",
"r  c #583E2E",
"t  c #5B4231",
"y  c #594032",
"u  c #584132",
"i  c #594234",
"p  c #5B4435",
"a  c #5A4537",
"s  c #5A4538",
"d  c #5B4538",
"f  c #5B473A",
"g  c #5B483B",
"h  c #5C4B3E",
"j  c #624937",
"k  c #5D4C41",
"l  c #5D4D41",
"z  c #5E4F44",
"x  c #5E4F45",
"c  c #5A5045",
"v  c #5B5146",
"b  c #5B5247",
"n  c #5C5147",
"m  c #5E5146",
"M  c #5C5247",
"N  c #5D5247",
"B  c #5D5248",
"V  c #5F5349",
"C  c #655444",
"Z  c #665444",
"A  c #675544",
"S  c #60564F",
"D  c #61574F",
"F  c #615851",
"G  c #655C55",
"H  c #655D56",
"J  c #665F58",
"K  c #666057",
"L  c #676159",
"P  c #676259",
"I  c #68625A",
"U  c #68635A",
"Y  c #69635B",
"T  c #69645B",
"R  c #6A645C",
"E  c #6A655C",
"W  c #6B655D",
"Q  c #6A665C",
"!  c #6B665D",
"~  c #6B675D",
"^  c #6C675E",
"/  c #6C675F",
"(  c #6C685E",
")  c #6D685F",
"_  c #6C6760",
"`  c #6D6861",
"'  c #726E67",
"]  c #746F67",
"[  c #746F69",
"{  c #74706A",
"}  c #75716B",
"|  c #767469",
" . c #76726C",
".. c #B71C1C",
"X. c #C62828",
"o. c #D32F2F",
"O. c #E53935",
"+. c #F44336",
"@. c #868579",
"#. c #86847B",
"$. c #918F88",
"%. c #929088",
"&. c #94928B",
"*. c #99978F",
"=. c white",
"-. c None",
/* pixels */
"6 6 6 6 6 6 6 6 6 6 6 6 -.6 6 6 6 6 6 6 6 6 6 6 6 6 6 6 6 6 6 6 6 6 6 6 -.6 6 6 6 6 6 6 6 6 6 6 ",
"@.@.@.@.@.@.@.@.@.@.@.@.j @.@.@.@.@.@.@.@.@.@.@.@.@.@.@.@.@.@.@.@.@.@.@.j @.@.@.@.@.@.@.@.@.@.@.",
"@.@.@.@.@.@.@.@.@.@.@.@.A @.@.@.@.@.@.@.@.@.@.@.@.@.@.@.@.@.@.@.@.@.@.@.A @.@.@.@.@.@.@.@.@.@.@.",
"$.$.$.$.$.$.$.$.%.&.*.*.A *.*.*.&.&.&.&.&.&.&.&.$.$.$.$.$.$.$.$.%.&.*.*.A *.*.*.&.&.&.&.&.&.&.&.",
") ) ) ) ) ) ) ) ) ) ) ) t ) ^ ^ ^ ) ^ ^ ^ ^ ^ ^ ) ) ) ) ^ ^ ` ) ) ) ) ) t ) ^ ^ ^ ) _ ^ ^ ^ ^ ^ ",
") ) ) ) ) ) ( ) ( ) Q ) t ( ) ^ ( ) ^ ^ ^ ^ ^ ^ ) ) ) ) ^ _ ) ) ^ ^ ^ ^ t ) ^ ^ ( ) ^ ^ ^ ^ ^ ^ ",
") ( ^ ) ) ^ ( ( ^ ^ ) ) t Q ^ ^ Q Q ^ ^ ^ ^ ^ ^ ) ) ) ) ) ) ) ) ^ ^ ^ ^ t Q ^ ^ Q Q ^ ^ ^ ^ ^ ^ ",
"Q Q ^ Q Q ^ Q Q ^ ^ T T t ^ ^ ^ Q ^ Q Q Q Q Q Q Q Q T ) T Q ^ T ^ Q ^ Q t ^ ^ ^ Q ^ Q Q Q Q Q Q ",
"Q Q R Q Q R Q R Q R ^ R e ^ T T R R R Q R Q R Q T Q Q Q Q Q R Q Q ^ ^ W e W Q R ^ T T T I ^ I ^ ",
"Q Q Q R R Q R Q R Q R R & T T T I Q I T I Q I Q ~ T Q T Q R Q R Q T I Q * I T T I T T T T T T Q ",
"R I R I I Q Q I Q I I I * T I I T L T U I I R I T T T I R I I I T I I I * I I T I I I T I T T I ",
"L L L I L I L I I T I I & I I I I I I L T I I I I P P P I I I I L T I I * I I I I I I T I I I I ",
"L L L L L L L L L L L L & I L L L L L L J L L L P I J P I I J I I K I L & L L L I I K I J I I J ",
"X X X X X X X X X X X X M X X X X X X X X X X X X X X X X X X X X X X X M X X X X X X X X X X X ",
"M M M M M M M M M M M M M M M M b # B b B M M M M M M M M M M M M M M M M M M M b # M M M M B B ",
"M M M M M M M M M M M M M M M M b & M M n C M M M M M M M M M M M M M M M M M M b & M M M M M B ",
"M M M M M M b n M M M M M M M M M ; M M M C n B n n M M M M M M b b M M M M M M M ; M M M C n B ",
"M M M M M M b n M M M M M M M M M ; M M M M B B n n M M M M M M b b M M M M M M M ; M M M M B B ",
"M M M M M M n n M M b b M M M M M ; M M M M M M b M M M M M M M b z M b M b M M M ; M M M M M B ",
"L L L L L L L J L       L       L 3 L L       I       L L L L       L       L L L 2 L L L L I I ",
"B M M C l l M C   X.o.O.  +.+.+.  3 5   X.o.O.  +.+.+.  l l   X.o.O.  +.+.+.  p 8 5 5 B S C B B ",
") ) _ ^ l l  . .  X.X.O.O.+.=.+.  { ]   X.X.O.O.+.=.+.  l `   X.X.O.O.+.=.+.  _ _ ^ _ ^ _ Q _ _ ",
"L L L L l { ` `   ..X.o.O.O.O.+.  ` `   ..X.o.O.O.O.+.  l L   ..X.o.O.O.O.+.  L L L L L L L L L ",
"L L L L l { ` `   ....X.O.O.O.O.  ` `   ....X.O.O.O.O.  l L   ....X.O.O.O.O.  L L L L L L L L L ",
"L L L L l [ _ ` `     X.X.X.    ` ` ` `     X.X.X.    ` l L L     X.X.X.    L L L L L I L L L L ",
"L L L L p [ ` ` ` ` `   X.  ` ` ` ` ` ` ` `   X.  ` ` ` > L L L L   X.  L I L L L L L I L L L L ",
"L L L L > [ ` ` _ ` ` _   ` ` ` ` ` _ ` ` ` `   ` ` ` ` > L L L I L   L L L L I L L I H L L L L ",
"d g w w o o @ 2 8 3 p p p p p p r & > > > < @ & & o o o d > > > > > < 3 8 w 0 q q 0 r f S M M B ",
"J J J J J J J J J J J J J J J J J 0 k F F F F F F F F F F F F F F F F F F F F F k r J J J J J J ",
"J J J J J J J J J J J J J J J J J r F F F F F F F F F F F F F F F F F F F F F F k r J J J J J J ",
"J J J J J J J J J J J J J J J J J x F F F F F F F F F F F F F F F F F F F F F F F p G J J J L H ",
"J J J J J J J J J J J J J J J J J x F F F F F F F F F F F F F F F F F F F F F F F d J J J J J L ",
"J J J J J J J J J J J J J J J J J 2 F F F F F F F F F F F F F F F F F F F F F F F 3 J J J J J J ",
"J J H J J J J J J J J J J J J J L & F F F F F F F F F F F F F F F F F F F F F F F o J J J J J J ",
"_ _ Q _ g _ _ Q _ _ ^ _ _ ^ ^ _ _ _ _ Q Q _ _ _ _ ^ ^ _ F S w ^ ^ _ ^ ^ _ ^ ^ _ _ _ ^ _ _ ^ ^ _ ",
"J J J J k J J J J J J J J J J J J J J J J J J J J J J J w w J J J J J J J J J J J J J J J J J J ",
"J J J J g L J J J J J J J J J J J J J J J J J J J J J J w J J J J J J J J J J J J J J J J J J J ",
"J J J J B J J J J J J J J J J J J J J J J J J J J J J J a J J J J J J J J J J J J J J J J J J J ",
"J J J J p J J J J J J J J J J J J J J J J J H L J J J J a J J J J J J J J J J J J J J J J J J J ",
"J J J J w J J J J J J J J J J J J J J J J J L L J J J J w J J J J J J J J J J J J J J J J J J J ",
"- - - - - - - & * - - - H - - - - - - - - - - - - - - - - - - - - - - - L - - - * - - - - - - - ",
"| | | | | | | | | | | | 7 | | | | | | | | | | | | | | | | | | | | | | | 7 | | | | | | | | | | | ",
"| | | | | | | | | | | | A | | | | | | | | | | | | | | | | | | | | | | | A | | | | | | | | | | | ",
"| | | | | | | | | | | | A | | | | | | { | | | | | | | | | | | { | | | { A | | { | | | | | | | | ",
"@.@.#.#.#.#.#.#.#.@.#.@.A #.#.#.@.#.#.@.#.@.#.@.#.@.#.#.@.#.#.@.@.@.#.#.A @.#.@.@.@.@.@.#.#.#.#.",
"K K L J K K K K L H L K A H K L K K L K J K J K L K K L K K L K L K H L A K J K J P H K P H H P ",
"K K H K K K K K K K K K X K K K K K K K L H K K K K K K K K K K K K K K X K K H H I K K K K P K ",
"X X X X X X X X X X X X X X X X X X X X X X X X X X X X X X X X X X X X X X X X X X X X X X X X "
};
