/* XPM */
static char *health_compress_1_[] = {
/* columns rows colors chars-per-pixel */
"48 48 155 2 ",
"   c black",
".  c #010101",
"X  c #4F2913",
"o  c #512D19",
"O  c #512E19",
"+  c #512E1A",
"@  c #512F1B",
"#  c #4F311E",
"$  c #52301D",
"%  c #52301E",
"&  c #52311E",
"*  c #53321E",
"=  c #53321F",
"-  c #56321C",
";  c #4F3625",
":  c #533220",
">  c #533320",
",  c #533321",
"<  c #543321",
"1  c #543422",
"2  c #543523",
"3  c #543624",
"4  c #553726",
"5  c #553827",
"6  c #5A3B27",
"7  c #5E3B25",
"8  c #563929",
"9  c #563B2A",
"0  c #563C2C",
"q  c #573C2D",
"w  c #573D2D",
"e  c #593D2A",
"r  c #583E2E",
"t  c #5B4231",
"y  c #594032",
"u  c #584132",
"i  c #594234",
"p  c #5B4435",
"a  c #5A4537",
"s  c #5A4538",
"d  c #5B4538",
"f  c #5B473A",
"g  c #5B483B",
"h  c #5C4B3E",
"j  c #624937",
"k  c #5D4C41",
"l  c #5D4D41",
"z  c #5E4F44",
"x  c #5E4F45",
"c  c #5A5045",
"v  c #5B5146",
"b  c #5B5247",
"n  c #5C5147",
"m  c #5E5146",
"M  c #5C5247",
"N  c #5D5247",
"B  c #5D5248",
"V  c #5F5349",
"C  c #694F44",
"Z  c #635146",
"A  c #655444",
"S  c #665444",
"D  c #675544",
"F  c #6C5045",
"G  c #635349",
"H  c #655248",
"J  c #665248",
"K  c #675248",
"L  c #60564F",
"P  c #61574F",
"I  c #6A5248",
"U  c #6C5248",
"Y  c #6F5248",
"T  c #705045",
"R  c #705148",
"E  c #615851",
"W  c #655C55",
"Q  c #655D56",
"!  c #6C5F57",
"~  c #665F58",
"^  c #745F57",
"/  c #725F58",
"(  c #666057",
")  c #676159",
"_  c #676259",
"`  c #696058",
"'  c #686159",
"]  c #696159",
"[  c #6A6058",
"{  c #6B6058",
"}  c #6A6059",
"|  c #6B6159",
" . c #68625A",
".. c #68635A",
"X. c #69635B",
"o. c #6C6058",
"O. c #6D6058",
"+. c #69645B",
"@. c #6A645C",
"#. c #6A655C",
"$. c #6B655D",
"%. c #6A665C",
"&. c #6B665D",
"*. c #6B675D",
"=. c #6C675E",
"-. c #6C675F",
";. c #6E675F",
":. c #6C685E",
">. c #6D685F",
",. c #71655E",
"<. c #70665E",
"1. c #71665E",
"2. c #75645C",
"3. c #75655E",
"4. c #76655E",
"5. c #75665E",
"6. c #7B635D",
"7. c #78665F",
"8. c #7A665F",
"9. c #6C6760",
"0. c #6F6760",
"q. c #6D6861",
"w. c #6E6861",
"e. c #6F6861",
"r. c #706760",
"t. c #716760",
"y. c #726760",
"u. c #716D66",
"i. c #726E67",
"p. c #756D65",
"a. c #776C65",
"s. c #756E66",
"d. c #746F67",
"f. c #7D6C64",
"g. c #7E6C64",
"h. c #746F69",
"j. c #74706A",
"k. c #75716B",
"l. c #767469",
"z. c #76726C",
"x. c #79716A",
"c. c #78746D",
"v. c #B71C1C",
"b. c #C62828",
"n. c #D32F2F",
"m. c #E53935",
"M. c #F44336",
"N. c #868579",
"B. c #86847B",
"V. c #918F88",
"C. c #929088",
"Z. c #94928B",
"A. c #99978F",
"S. c white",
"D. c None",
/* pixels */
"6 6 6 6 6 6 6 6 6 6 6 6 D.6 6 6 6 6 6 6 6 6 6 6 6 6 6 6 6 6 6 6 6 6 6 6 D.6 6 6 6 6 6 6 6 6 6 6 ",
"N.N.N.N.N.N.N.N.N.N.N.N.j N.N.N.N.N.N.N.N.N.N.N.N.N.N.N.N.N.N.N.N.N.N.N.j N.N.N.N.N.N.N.N.N.N.N.",
"N.N.N.N.N.N.N.N.N.N.N.N.D N.N.N.N.N.N.N.N.N.N.N.N.N.N.N.N.N.N.N.N.N.N.N.D N.N.N.N.N.N.N.N.N.N.N.",
"V.V.V.V.V.V.V.V.C.Z.A.A.D A.A.A.Z.Z.Z.Z.Z.Z.Z.Z.V.V.V.V.V.V.V.V.C.Z.A.A.D A.A.A.Z.Z.Z.Z.Z.Z.Z.Z.",
">.>.>.>.>.>.>.>.>.>.>.>.t >.=.=.=.>.=.=.=.=.=.=.>.>.>.>.=.=.w.>.>.>.>.>.u >.=.=.=.>.=.=.=.=.=.=.",
">.>.>.>.>.>.:.>.:.>.%.>.t :.>.=.:.>.=.=.=.=.=.=.>.>.>.>.=.0.:.>.>.=.=.=.t >.=.=.:.>.=.=.=.=.=.=.",
">.:.=.>.>.=.:.:.=.=.>.>.t %.=.=.%.%.=.=.=.=.=.=.>.:.=.>.>.=.:.:.=.=.=.=.t >.=.=.%.%.=.=.=.=.=.=.",
"%.%.=.%.%.=.%.%.=.=.+.+.t =.=.=.%.=.%.%.%.%.%.%.%.%.=.%.%.=.%.%.=.#.=.#.t =.%.=.%.=.%.%.%.%.%.%.",
"%.%.@.%.%.@.%.@.%.@.=.@.e =.+.+.@.@.@.%.@.%.%.%.%.%.%.%.@.%.@.%.%.@.=.@.e =.%.%.@.@.@.%.@.%.%.%.",
"%.%.%.@.@.%.@.%.@.%.@.@.& +.+.+. .%. .+.@. .@. .%.%.%.%.%.@.%.@.%.%.@.@.*  .+.+. .%. .+. .%. .+.",
"@. .@. . .%.%. .%. . . .* +. . .+.) +...) +. .%. . . . . . . .@.+.+.) +.*  . . .+.) +... . .+.+.",
") ) )  .)  .)  . .+. . .&  . . . . . .) +.) +.)  . . . . . . . .) ..+. .*  . . . . . .) +. .....",
") ) ) ) ) ) ) ) ) ) ) ) &  .) ) ) ) ) ) ) ) ) ) ) ) ) )  .) ) )  .) ) ) & ) ) ) ) ) ) ) ) ) ) ) ",
"X X X X X X X X X X X X M X X X X X X X X X X X X X X X X X X X X X X X M X X X X X X X X X X X ",
"M M M M M M M M M M M M M M M M b # B b M Z M B M M M M M M M M M M M M M M M M b # B b Z B M B ",
"M M M M M M M M M M M M M M M M b & M M M M M B M M M M M M M M M M M M M M M M b & M M M M M B ",
"M M M M M M M M M M M M M M M M M ; M M M Z B B M M M M M M M M b b M M M M M M M ; M M M Z M B ",
"M M M M M M M M M M M M M M M M M ; M M M M M B M M M M M M M M b b M M M M M M M ; M M M M M B ",
"M M M M M M M M M M b b M b M M M ; M M M M M B b M M M M M M M b x M B M b M M M ; M M M M M B ",
") ) )  . .Q  . .)       )       ) 3 ) )        .      ) ) ) )       )       ) ) ) 2 ) ) ) )  .) ",
"M Z M M l l M M   b.n.m.  M.M.M.  3 5   K K T   F Z T   l l   C K U   U G I   u 8 5 8 B V V B V ",
"=.=.=.=.l l z.z.  b.b.m.m.M.S.M.  j.d.  a.d.g.d.g.c.x.  l =.  3.1.1.3.=.u.1.  0.=.=.%.0.%.w.9.w.",
")  . . .l j.w.w.  v.b.n.m.m.m.M.  w.w.  0.0.r.r.r.t.7.  h  .   . .! o.^  .o.  ) ) ) ) ) ) ) ) ) ",
") (  .` l j.q.w.  v.v.b.m.m.m.m.  w.w.  3.0.0.w.r.r.7.  l  .  ! !  .o./ o.!   ) ) ) ) ) ) ) ) ) ",
") ) ) ) l j.w.w.q.    b.b.b.    q.q.q.q.    6.w.7.    w.l ) )      . .!     ) ) ) ) ) ) ) ) ) ) ",
") ) ) ) u h.w.w.q.q.w.  b.  q.q.q.q.q.q.w.w.  0.  0.q.q., ) ) ) )    .  ) ) ) ) ) ) ) ) ) ) ) ) ",
") ) ) ) , i.q.q.q.q.q.q.  w.w.w.q.q.w.q.w.w.w.  w.w.w.q., ) ) ) ) )   ) ) ) ) ) ) ) ) ) ) ) ) ) ",
"d g w w o o @ , 4 4 p p p p p p w & , , & , & & & o o o d & , , , , 1 3 8 w q q q q w g V V V B ",
"~ ~ ~ ~ ~ ~ ~ ~ ~ ~ ~ ~ ~ ~ ~ ~ ) w l E E E E E E E E E E E E E E E E E E E E E k w ~ ~ ~ ~ ~ ~ ",
"~ ~ ~ ~ ~ ~ ~ ~ ~ ~ ~ ~ ~ ~ ~ ~ Q w E E E E E E E E E E E E E E E E E E E E E E k r ~ ~ ~ ~ ~ ~ ",
"~ ~ ~ ~ ~ ~ ~ ~ ~ ~ ~ ~ ~ ~ ~ ~ ~ z E E E E E E E E E E E E E E E E E E E E E E E i Q ~ ~ ~ ~ ~ ",
"~ ~ ~ ~ ~ ~ ~ ~ ~ ~ ~ ~ ~ ~ ~ ~ ~ z E E E E E E E E E E E E E E E E E E E E E E E d ~ ~ ~ ~ ~ ~ ",
"~ ~ ~ ~ ~ ~ ~ ~ ~ ~ ~ ~ ~ ~ ~ ~ ~ , E E E E E E E E E E E E E E E E E E E E E E E , ~ ~ ~ ~ ~ ~ ",
"~ ~ Q ~ ~ ~ ~ ~ ~ ~ ~ ) ~ ~ ~ ~ ) & E E E E E E E E E E E E E E E E E E E E E E E & ~ ) ~ ~ ~ ~ ",
"9.9.9.%.h %.%.0.0.9.9.%.0.%.9.9.9.9.0.%.q.%.q.9.%.9.%.w.L E w %.9.0.9.%.9.9.%.9.%.0.9.%.0.%.9.9.",
"~ ~ ~ ) k ~ ~ ~ ~ ~ ~ ~ ~ ~ ~ ~ ~ ~ ~ ~ ~ ~ ~ ~ ) ~ ~ ~ w w ~ ~ ~ ~ ~ ~ ~ ~ ) ~ ~ ~ ~ ~ ~ ~ ~ ~ ",
"~ ~ ~ ~ h ~ ~ ~ ~ ~ ~ ~ ~ ~ ~ ~ ~ ~ ~ ~ ~ ~ ~ ~ ~ ~ ~ ~ w ~ ~ ~ ~ ~ ~ ~ ~ ~ ~ ~ ~ ~ ~ ~ ~ ~ ~ ~ ",
"~ ~ ~ ~ B ~ ~ ~ ~ ~ ~ ~ ~ ~ ~ ~ ~ ~ ~ ~ ~ ~ ~ ~ ~ ~ ~ ~ d ~ ~ ~ ~ ~ ~ ~ ~ ~ ~ ~ ~ ~ ~ ~ ~ ~ ~ ~ ",
"~ ~ ~ ~ u ~ ~ ~ ~ ~ ~ ~ ~ ~ ~ ~ ~ ~ ~ ~ ~ ~ Q ) ~ ~ ~ ~ d ~ ~ ~ ~ ~ ~ ~ ~ ~ ~ ~ ~ ~ ~ ~ ~ ~ ~ ~ ",
"~ ~ ~ ~ r ~ ~ ~ ~ ~ ~ ~ ~ ~ ~ ~ ~ ~ ~ ~ ~ ~ ) ) ~ ~ ~ ~ w ~ ~ ~ ~ ~ ~ ~ ~ ~ ~ ~ ~ ~ ~ ~ ~ ~ ~ ~ ",
"- - - - - - - - * * - - ~ - - - - - - - - - - - - - - - - - - - - - - - ` - - * * * - - - - - - ",
"l.l.l.l.l.l.l.l.l.l.l.l.7 l.l.l.l.l.l.l.l.l.l.l.l.l.l.l.l.l.l.l.l.l.l.l.7 l.l.l.l.l.l.l.l.l.l.l.",
"l.l.l.l.l.l.l.l.l.l.l.l.D l.l.l.l.l.l.l.l.l.l.l.l.l.l.l.l.l.l.l.l.l.l.l.D l.l.l.l.l.l.l.l.l.l.l.",
"l.l.l.l.l.l.l.j.l.l.l.l.D l.l.l.l.l.l.j.l.l.l.l.l.l.l.l.l.l.l.j.l.l.l.j.D l.l.j.l.l.l.l.l.l.l.l.",
"B.N.B.B.N.B.B.N.B.N.B.N.A N.B.B.N.B.B.N.B.N.B.N.B.N.B.B.N.B.B.N.N.N.B.B.A N.B.N.B.N.B.N.B.N.N.B.",
") ( ( ) ( ( ) ( ~ ( ~ ( A Q ( ) ( ( ) ( ~ ( ~ ( ) ( ( ) ( ( ~ ( ( ( ( ) A ( ~ ) ) Q ) ( ` ( Q ~ ",
"( ( ( ( ( ( ( ( ) Q ( ( X ( ( ( ( ( ( ( ) Q ( ( ( ( ( ( ( ( ( ( ( ( ( ( X ( ( ( ( ( ( ( ( ( ) ( ",
"X X X X X X X X X X X X X X X X X X X X X X X X X X X X X X X X X X X X X X X X X X X X X X X X "
};
