/* XPM */
static char *health_compress_0_[] = {
/* columns rows colors chars-per-pixel */
"48 48 149 2 ",
"   c black",
".  c #010101",
"X  c #4F2913",
"o  c #512D19",
"O  c #512E19",
"+  c #512E1A",
"@  c #512F1B",
"#  c #4F311E",
"$  c #52301D",
"%  c #52301E",
"&  c #52311E",
"*  c #53321E",
"=  c #53321F",
"-  c #56321C",
";  c #4F3625",
":  c #533220",
">  c #533320",
",  c #533321",
"<  c #543321",
"1  c #543422",
"2  c #543523",
"3  c #543624",
"4  c #553726",
"5  c #553827",
"6  c #5A3B27",
"7  c #5E3B25",
"8  c #563929",
"9  c #563B2A",
"0  c #563C2C",
"q  c #573C2D",
"w  c #573D2D",
"e  c #593D2A",
"r  c #583E2E",
"t  c #5B4231",
"y  c #594032",
"u  c #584132",
"i  c #5F4132",
"p  c #594234",
"a  c #5B4435",
"s  c #5A4537",
"d  c #5A4538",
"f  c #5B4538",
"g  c #5B473A",
"h  c #5B483B",
"j  c #5C4B3E",
"k  c #604132",
"l  c #624937",
"z  c #5D4C41",
"x  c #5D4D41",
"c  c #5E4F44",
"v  c #5E4F45",
"b  c #5A5045",
"n  c #5B5146",
"m  c #5B5247",
"M  c #5C5147",
"N  c #5E5146",
"B  c #5F5146",
"V  c #5C5247",
"C  c #5D5247",
"Z  c #5D5248",
"A  c #5F5349",
"S  c #605146",
"D  c #655045",
"F  c #655444",
"G  c #665444",
"H  c #675544",
"J  c #615349",
"K  c #635349",
"L  c #675248",
"P  c #665249",
"I  c #60564F",
"U  c #61574F",
"Y  c #685148",
"T  c #6A5148",
"R  c #6A5248",
"E  c #6B5248",
"W  c #615851",
"Q  c #655C55",
"!  c #655D56",
"~  c #6C5F57",
"^  c #665F58",
"/  c #666057",
"(  c #676159",
")  c #676259",
"_  c #696058",
"`  c #686159",
"'  c #696159",
"]  c #6A6058",
"[  c #6B6058",
"{  c #6A6059",
"}  c #6B6159",
"|  c #68625A",
" . c #68635A",
".. c #69635B",
"X. c #6D6058",
"o. c #69645B",
"O. c #6A645C",
"+. c #6A655C",
"@. c #6B655D",
"#. c #6A665C",
"$. c #6B665D",
"%. c #6B675D",
"&. c #6C675E",
"*. c #6C675F",
"=. c #6F665E",
"-. c #6E675F",
";. c #6C685E",
":. c #6D685F",
">. c #70665E",
",. c #71665E",
"<. c #71665F",
"1. c #72665F",
"2. c #74665E",
"3. c #76665F",
"4. c #6F6760",
"5. c #6D6861",
"6. c #6E6861",
"7. c #6F6861",
"8. c #6E6962",
"9. c #706760",
"0. c #736660",
"q. c #726760",
"w. c #746760",
"e. c #766760",
"r. c #726E67",
"t. c #766D65",
"y. c #746D66",
"u. c #746E66",
"i. c #746F67",
"p. c #786D65",
"a. c #746F69",
"s. c #777068",
"d. c #74706A",
"f. c #75716B",
"g. c #77726B",
"h. c #767469",
"j. c #76726C",
"k. c #7B706A",
"l. c #7A716A",
"z. c #7D7069",
"x. c #79746D",
"c. c #79756E",
"v. c #868579",
"b. c #86847B",
"n. c #918F88",
"m. c #929088",
"M. c #94928B",
"N. c #99978F",
"B. c None",
/* pixels */
"6 6 6 6 6 6 6 6 6 6 6 6 B.6 6 6 6 6 6 6 6 6 6 6 6 6 6 6 6 6 6 6 6 6 6 6 B.6 6 6 6 6 6 6 6 6 6 6 ",
"v.v.v.v.v.v.v.v.v.v.v.v.l v.v.v.v.v.v.v.v.v.v.v.v.v.v.v.v.v.v.v.v.v.v.v.l v.v.v.v.v.v.v.v.v.v.v.",
"v.v.v.v.v.v.v.v.v.v.v.v.H v.v.v.v.v.v.v.v.v.v.v.v.v.v.v.v.v.v.v.v.v.v.v.H v.v.v.v.v.v.v.v.v.v.v.",
"n.n.n.n.n.n.n.n.m.M.N.N.H N.N.N.M.M.M.M.M.M.M.M.n.n.n.n.n.n.n.n.m.M.N.N.H N.N.N.M.M.M.M.M.M.M.M.",
":.:.:.:.:.:.:.:.:.:.:.:.t :.&.&.&.:.&.&.&.&.&.&.:.:.:.:.&.&.6.:.:.:.:.:.u :.&.&.:.:.:.#.:.&.&.&.",
":.:.:.:.:.:.;.:.;.:.#.:.t ;.:.&.;.:.&.&.&.&.&.&.:.:.:.:.&.4.;.:.%.:.:.@.t :.&.&.;.:.:.:.&.&.&.:.",
":.;.&.:.:.&.;.;.&.&.:.:.t #.&.&.#.#.&.&.&.&.&.&.:.;.&.:.:.&.;.;.:.&.&.&.t &.&.&.%.:.&.:.&.:.#.&.",
"#.#.&.#.#.&.#.#.&.&.o.o.t &.&.&.#.&.#.#.#.#.#.#.#.#.&.#.#.&.#.#.@.@.@.&.t &.#.&.o.#.o.o.o.o.#.#.",
"#.#.O.#.#.O.#.O.#.O.&.O.e &.o.o.O.#.#.o.O.#.#.#.#.#.#.#.O.#.O.#.#.#.O.@.e @.#.#.O.#.#.o.#.#.#.o.",
"#.#.#.O.O.#.O.#.O.#.O.O.& o.o.o.| o.| o.| o.| o.#.#.#.#.#.O.#.O.#.#.O.#.& O.o.o.| o.o.o.| o.o.o.",
"O.| O.| | #.#.| #.| | | * o.| | o.| o.| o.| | o.| | | | | | | O.o.o.| o.* | | | | | o.| | | | o.",
"( ( ( | ( | ( | | o.| | & | | | | | | | o.| | | | | | | | | | | | ( o.| * | | | | | | | o.| o.o.",
"( ( ( ( ( ( ( ( ( ( ( ( & | ( ( | | ( ( | | ^ | ( ( ( ( | ( ( ( ( ( ( ( & ( ( ( | ( ( ( ( ( ( ( ",
"X X X X X X X X X X X X V X X X X X X X X X X X X X X X X X X X X X X X V X X X X X X X X X X X ",
"V V V V V V V V V V V V V V V V n # V V V S V Z V V V V V V V V V V V V V V V V n # V V A V V Z ",
"V V V V V V V V V V V V V V V V n & V V V V V Z V V V V V V V V V V V V V V V V V & V V S V V Z ",
"V V V V V V V V V V V V V V V V V ; V V S V V Z V V V V V V V V V V V V V V V V V ; V V V V S Z ",
"V V V V V V V V V V V V V V V V V ; V V V V V J V V V V V V V V V V V V V V V V V ; V V V V Z Z ",
"V V V V V V V V V V n n V n V V V ; V V V V V V n V V V V V V V n n V V V n V V V ; V V Z V Z Z ",
"( ( ( | | ! | | (       (       ( 3 ( (       (       ( ( ( (       |       ( ( ( 3 ( ( ( ( ( ( ",
"V S V S x x V V   Y Y E   J k k   3 5   Y J Y   S S V   x x   D J K   Y K Y   u 8 3 5 Z Z J A A ",
"&.&.:.&.x x j.j.  l.z.z.l.s.c.s.  a.i.  i.i.i.i.p.c.l.  x &.  ,.&.,.3.,.6.,.  4.#.6.5.6.#.6.#.6.",
"( ( | | x d.5.6.  0.0.4.0.6.e.e.  6.6.  ,.4.0.6.0.6.6.  x |   | ~ | } ~ } }   ( ( ( ( ( ( ( ( ( ",
"( ( ( _ x d.5.6.  ,.6.0.e.9.6.6.  6.6.  4.4.4.6.6.6.4.  x |   ~ ~ | } | } }   ( ( ( ( ( ( ( ( ( ",
"( ( ( ( x j.4.5.5.    0.6.6.    5.5.5.5.    6.0.6.    6.x ( (     | | ~     ( ( ( ( ( ( ( ( ( ( ",
"( ( ( ( u a.5.5.5.5.6.  4.  5.5.5.5.5.5.6.6.  4.  6.5.5.> ( ( ( (   |   ( ( ( ( ( ( ( ( ( ( ( ( ",
"( ( ( ( > r.5.5.5.5.5.5.  6.6.6.5.5.5.5.6.6.6.  6.6.6.5.> ( ( ( ^ |   ^ ( ( ( | ( ( ( ( ( ( ( ( ",
"d h w w o o @ > 4 4 a a a a a a w & > > > > @ & & o o o d > > > 1 > 1 5 8 w 0 0 0 w w h A A Z Z ",
"^ ^ ^ ^ ( ^ ^ ^ ^ ^ ^ ^ ^ ^ ^ ^ ( 0 z W W W W W W W W W W W W W W W W W W W W W z r ^ ^ ^ ^ ^ ^ ",
"^ ^ ^ ^ ^ ^ ^ ^ ^ ^ ^ ^ ^ ^ ^ ^ ^ w W W W W W W W W W W W W W W W W W W W W W W z r ^ ^ ^ ^ ^ ^ ",
"^ ^ ^ ^ ^ ^ ^ ^ ^ ^ ^ ^ ^ ^ ^ ^ ^ v W W W W W W W W W W W W W W W W W W W W W W I a ! ^ ^ ^ ( ! ",
"^ ^ ^ ^ ^ ^ ^ ^ ^ ^ ^ ^ ^ ^ ^ ^ ^ v W W W W W W W W W W W W W W W W W W W W W W W d ^ ^ ^ ^ ^ ( ",
"^ ^ ^ ^ ^ ^ ^ ^ ^ ^ ^ ^ ^ ^ ^ ^ ^ > W W W W W W W W W W W W W W W W W W W W W W W 3 ^ ^ ^ ^ ^ ^ ",
"^ ^ ! ^ ^ ^ ^ ^ ^ ^ ( ! ^ ^ ^ ^ ( & W W W W W W W W W W W W W W W W W W W W W W W @ ^ ^ ^ ^ ^ ^ ",
"5.5.5.#.z 5.#.5.#.5.5.5.#.5.#.5.&.4.4.&.5.5.#.5.#.5.#.5.I I w #.5.#.6.4.5.#.#.5.4.5.#.5.#.5.#.5.",
"! ^ ^ ^ h ^ ^ ^ ^ ^ ! ^ ^ ^ ^ ^ ^ ^ ^ ^ ^ ^ ^ ^ ^ ^ ^ ^ w w ^ ^ ^ ^ ^ ^ ^ ^ ^ ^ ^ ^ ^ ^ ^ ^ ^ ^ ",
"^ ^ ^ ^ h ( ^ ^ ^ ^ ^ ^ ^ ^ ^ ^ ^ ^ ^ ^ ^ ^ ^ ^ ^ ^ ^ ^ w ^ ^ ^ ^ ^ ^ ^ ^ ^ ^ ^ ^ ^ ^ ^ ^ ^ ^ ^ ",
"^ ^ ^ ^ Z ^ ^ ^ ^ ^ ^ ^ ^ ^ ^ ^ ^ ^ ^ ^ ^ ^ ^ ^ ^ ^ ^ ^ d ^ ^ ^ ^ ^ ^ ^ ^ ^ ^ ^ ^ ^ ^ ^ ^ ^ ^ ^ ",
"^ ^ ^ ^ a ^ ^ ^ ^ ^ ^ ^ ^ ^ ^ ^ ^ ^ ^ ^ ^ ^ ^ ^ ^ ^ ^ ^ d ^ ^ ^ ^ ^ ^ ^ ^ ^ ^ ^ ^ ^ ^ ^ ^ ^ ^ ^ ",
"^ ^ ^ ^ w ^ ^ ^ ^ ^ ^ ^ ^ ^ ^ ^ ^ ^ ^ ^ ^ ^ ! | ^ ^ ^ ^ w ^ ^ ^ ^ ^ ^ ^ ^ ^ ^ ^ ^ ^ ^ ^ ^ ^ ^ ^ ",
"- - - - - - - & * * - - / - - - * - - - - - - - - - - - - - * * - - - - _ - * * * * - - - - - - ",
"h.h.h.h.h.h.h.h.h.l.h.h.7 h.h.h.h.h.h.h.h.h.h.h.h.h.h.h.h.h.h.h.h.h.h.h.7 h.h.h.h.l.h.h.h.h.h.h.",
"h.h.h.h.h.h.h.h.h.h.h.h.H h.h.h.h.h.h.h.h.h.h.h.h.h.h.h.h.h.h.h.h.h.h.h.H h.h.h.h.h.h.h.h.h.h.h.",
"h.h.h.h.h.h.h.h.h.h.h.h.H h.h.h.h.h.h.h.h.h.h.h.h.h.h.h.h.h.h.s.h.h.h.h.H h.h.s.h.h.h.h.h.h.h.h.",
"v.v.b.b.v.b.b.b.b.v.b.v.F v.b.b.v.b.b.v.b.v.b.v.v.v.v.b.v.b.b.v.v.v.b.b.F v.b.v.b.v.b.v.v.v.b.b.",
"/ / ( ^ / / ( / ^ / ^ / F ! / ( / / ( ! ^ ( ^ / | / ^ ^ / / ( / ^ / ( ^ F / ( / ^ / ( / / / ! ( ",
"/ / ! / / / / / ( ! / / X / / / / / / / ! ( / / / / / / / / / / / / ! / X / / / ( ! / / / / / / ",
"X X X X X X X X X X X X X X X X X X X X X X X X X X X X X X X X X X X X X X X X X X X X X X X X "
};
