/* XPM */
static char *idle_right_compress_3_[] = {
/* columns rows colors chars-per-pixel */
"48 48 27 1 ",
"  c #72751B",
". c #787B21",
"X c #7F8226",
"o c #656C17",
"O c #B3B0A9",
"+ c #C6DBDE",
"@ c #A2814F",
"# c #E6A3A3",
"$ c #9CA8AD",
"% c #DFEDED",
"& c #A7B8C2",
"* c #4E4D5C",
"= c #4F4E5D",
"- c #636917",
"; c #C6A740",
": c #8A98A0",
"> c #A6AFB4",
", c #BD9842",
"< c #A2783C",
"1 c #9BAAB3",
"2 c #BAC4CA",
"3 c #728794",
"4 c #7B888F",
"5 c #6E7A80",
"6 c #5C6D77",
"7 c #686F16",
"8 c #7F8124",
/* pixels */
"                                                ",
"                                                ",
"                                 .              ",
"             X..                                ",
"             .o.         o.O                    ",
"             o o          oO                    ",
"                                        o       ",
"               +++   o        +++      .        ",
"               +++ .@X        +++O         .X   ",
"            +++###+++      +++###++         $O  ",
"            +++###+++      +++###++             ",
"            +++###+++      +++###++             ",
"            +++###%%%%%%%%%%%%%%%++             ",
"            +++###%%%%%%%%%%%%%%%++             ",
"            +++###%%%%%%%%%%%%%%%++             ",
"          ++%%%%%%%%%%%%%%%%%%%%%%%%%%          ",
"          ++%%%%%%%%%%%%%%%%%%%%%%%%%%          ",
"   ..  &&&&&&&&%%%***%%%%%%%%%%%=**%%%&&&       ",
"  oo@O-&&&&&&&&%%%***%%%%%%%%%%%***%%%&&&       ",
"   $ OO&&&&&&&&%%%***%%%%%%%%%%%=**%%%&&&       ",
"   -O-    ++%%%%%%%%%%%%%%%***%%%%%%%%       X  ",
"          ++%%%%%%%%%%%%%%%***%%%%%%%%          ",
"       &&&&&&&&%%%%%%%%%***###***%%%%%&&&       ",
"       &&&&&&&&%%%%%%%%%***###***%%%%%&&&       ",
"       &&&&&&&&%%%%%%%%%***###***%%%%%&&&       ",
"          ++%%%%%%%%%%%%%%%%%%%%%%%%%%          ",
"          ++%%%%%%%%%%%%%%%%%%%%%%%%%%     .    ",
"       X .  +++%%%%%%%%%%%%%%%%%%%%         ;.  ",
"       o.o  +++%%%%%%%%%%%%%%%%%%%%         -   ",
"            +++%%%%%%%%%%%%%%%%%%%%             ",
"          %%::::::>>>>>>:::>>>>>>::             ",
"   ,      %%::::::>>>>>>:::>>>>>>::             ",
"   ,<     %%111111222222>>>>>>>>>::             ",
"          %%111111222222>>>>>>>>>::             ",
"          %%111111222222>>>>>>>>>::             ",
"          33333111444444>>>555555::666          ",
"          33333111444444>>>555555::666          ",
"          33333111444444>>>555555::666          ",
"  7       33333111111222555>>>:::::666          ",
"  7       33333111111222555>>>:::::666          ",
"            %%%111111111>>>::::::           ..  ",
"            %%%111111111>>>::::::          .7.  ",
"         O  %%%111111111>>>::::::          -$.  ",
" 8..        %%%111111111111::::::        7@     ",
" O@7 8      %%%111111111111::::::         -     ",
"    @$       7..  444 .       555               ",
"      -           444.        555               ",
"                  444         555               "
};
