/* XPM */
static char *idle_left_compress_2_[] = {
/* columns rows colors chars-per-pixel */
"48 48 25 1 ",
"  c #72751B",
". c #787B21",
"X c #7F8226",
"o c #B3B0A9",
"O c #656C17",
"+ c #636917",
"@ c #C6DBDE",
"# c #A2814F",
"$ c #9CA8AD",
"% c #E6A3A3",
"& c #DFEDED",
"* c #A7B8C2",
"= c #4E4D5C",
"- c #C6A740",
"; c #BD9842",
": c #A2783C",
"> c #A6AFB4",
", c #8A98A0",
"< c #686F16",
"1 c #6E7A80",
"2 c #7B888F",
"3 c #9BAAB3",
"4 c #7F8124",
"5 c #5C6D77",
"6 c #728794",
/* pixels */
"                                                ",
"                                                ",
"              .                                 ",
"                                ..X             ",
"                    o.O         .O.             ",
"                    oO          O O             ",
"       O                                        ",
"        .       o         O                     ",
"   X.         o+o@@@      X#. @@@               ",
"  o$             @@@       .O @@@               ",
"                 @@@          @@@               ",
"              @@@%%%@@@    @@@%%%@@@            ",
"              @@@%%%@@@    @@@%%%@@@            ",
"              @@@%%%@@@    @@@%%%@@@            ",
"              @@@&&&&&&&&&&&&&%%%@@@            ",
"             O@@@&&&&&&&&&&&&&%%%@@@            ",
"           &&&&&&&&&&&&&&&&&&&&&&&&&@@@         ",
"        O .&&&&&&&&&&&&&&&&&&&&&&&&&@@@    ..   ",
"         .O&&&&&&&&&&&&&&&&&&&&&&&&&@@@  +o#OO  ",
"        ***&&&===&&&&&&&&&&===&&&*********o $   ",
"  X     ***&&&===&&&&&&&&&&===&&&*********+o+   ",
"        ***&&&===&&&&&&&&&&===&&&*********      ",
"           &&&&&&&&&===&&&&&&&&&&&&&@@@         ",
"           &&&&&&&&&===&&&&&&&&&&&&&@@@         ",
"           &&&&&&&&&===&&&&&&&&&&&&&@@@         ",
"        ***&&&&&&===%%%====&&&&&&*********      ",
"    .   ***&&&&&&===%%%====&&&&&&*********      ",
"  .-    ***&&&&&&===%%%====&&&&&&*********      ",
"   +       &&&&&&&&&&&&&&&&&&&&&&&&&@@@.O       ",
"           &&&&&&&&&&&&&&&&&&&&&&&&&@@@         ",
"           &&&&&&&&&&&&&&&&&&&&&&&&&@@@         ",
"              &&&&&&&&&&&&&&&&&&&@@@        ;   ",
"              &&&&&&&&&&&&&&&&&&&@@@       :;   ",
"              &&&&&&&&&&&&&&&&&&&@@@            ",
"                 >>>>>>>>>>>>>,,,      &&&      ",
"                 >>>>>>>>>>>>>,,,      &&&      ",
"                 >>>>>>>>>>>>>,,,      &&&      ",
"             <   111111>>>>222333 .    &&&      ",
"                 111111>>>>222333.4    &&&   <  ",
"              555,,,>>>1111333666666&&&      <  ",
"  ..          555,,,>>>1111333666666&&&         ",
"  .<.         555,,,>>>1111333666666&&&         ",
"  .$+         555,,,,,,>>>>333666666&&&         ",
"     #<       555,,,,,,>>>>333666666&&&     ..4 ",
"     +        555,,,,,,>>>>333666666&&&   4 <#o ",
"                 111     . 222  ..<       $#    ",
"                 111      .222           +      ",
"                 111       222                  "
};
