/* XPM */
static char *idle_right_compress_5_[] = {
/* columns rows colors chars-per-pixel */
"48 48 26 1 ",
"  c #72751B",
". c #787B21",
"X c #7F8226",
"o c #656C17",
"O c #B3B0A9",
"+ c #C6DBDE",
"@ c #A2814F",
"# c #636917",
"$ c #E6A3A3",
"% c #9CA8AD",
"& c #DFEDED",
"* c #A7B8C2",
"= c #4E4D5C",
"- c #C6A740",
"; c #BD9842",
": c #A2783C",
"> c #8A98A0",
", c #A6AFB4",
"< c #728794",
"1 c #9BAAB3",
"2 c #BAC4CA",
"3 c #5C6D77",
"4 c #686F16",
"5 c #7B888F",
"6 c #6E7A80",
"7 c #7F8124",
/* pixels */
"                                                ",
"                                                ",
"                                 .              ",
"             X..                                ",
"             .o.         o.O                    ",
"             o o          oO                    ",
"               +++           +++        o       ",
"               +++   o       +++       .        ",
"               +++ .@X       +++#O         .X   ",
"            +++$$$+++     +++$$$+++         %O  ",
"            +++$$$+++     +++$$$+++             ",
"            +++$$$+++     +++$$$+++             ",
"            +++$$$&&&&&&&&&&&&&&+++             ",
"            +++$$$&&&&&&&&&&&&&&+++             ",
"            +++$$$&&&&&&&&&&&&&&+++             ",
"       *****&&&&&&&&&&&&&&&&&&&&&&&&&&**        ",
"       *****&&&&&&&&&&&&&&&&&&&&&&&&&&**        ",
"   ..    +++***&&&===&&&&&&&&&&&===&&& o        ",
"  oo@O#  +++***&&&===&&&&&&&&&&&===&&&.         ",
"   % OO  +++***&&&===&&&&&&&&&&&===&&&          ",
"   #O#   +++&&&&&&===&&&&&&&&&&&===&&&       X  ",
"         +++&&&&&&===&&&&&&&&&&&===&&&          ",
"         +++&&&&&&===&&&&&&&&&&&===&&&          ",
"       *****&&&&&&&&&&&&&&===&&&&&&&&&**        ",
"       *****&&&&&&&&&&&&&&===&&&&&&&&&**        ",
"       *****&&&&&&&&&&&&&&===&&&&&&&&&**        ",
"         +++***&&&&&&&&===$$$===&&&&&&     .    ",
"       X +++***&&&&&&&&===$$$===&&&&&&      -.  ",
"       o.+++***&&&&&&&&===$$$===&&&&&&      #   ",
"         +++&&&&&&&&&&&&&&&&&&&&&&&&&&          ",
"         +++&&&&&&&&&&&&&&&&&&&&&&&&&&          ",
"   ;   &&   +++&&&&&&&&&&&&&&&&&&&&             ",
"   ;:  &&   +++&&&&&&&&&&&&&&&&&&&&             ",
"       &&   +++&&&&&&&&&&&&&&&&&&&&             ",
"       &&   >>>>>>,,,,,>>>,,,,,,>>>             ",
"       &&   >>>>>>,,,,,>>>,,,,,,>>>             ",
"       &&   >>>>>>,,,,,>>>,,,,,,>>>             ",
"       <<<<<11111122222,,,,,,,,,>>>33333        ",
"  4    <<<<<11111122222,,,,,,,,,>>>33333        ",
"  4    <<<<<11111122222,,,,,,,,,>>>33333        ",
"       <<<<<11111155555,,,666666>>>33333    ..  ",
"       <<<<<11111155555,,,666666>>>33333   .4.  ",
"       <<<<<11111155555,,,666666>>>33333   #%.  ",
" 7..     &&&11111111122666,,,>>>>>>      4@     ",
" O@4 7   &&&11111111122666,,,>>>>>>       #     ",
"    @%   &&&11111111122666,,,>>>>>>             ",
"      #     11111111111,,,>>>>>>>>>             ",
"            11111111111,,,>>>>>>>>>             "
};
