/* XPM */
static char *idle_right_compress_4_[] = {
/* columns rows colors chars-per-pixel */
"48 48 26 1 ",
"  c #72751B",
". c #C6DBDE",
"X c #787B21",
"o c #7F8226",
"O c #656C17",
"+ c #B3B0A9",
"@ c #E6A3A3",
"# c #DFEDED",
"$ c #9CA8AD",
"% c #A7B8C2",
"& c #4E4D5C",
"* c #A2814F",
"= c #636917",
"- c #C6A740",
"; c #8A98A0",
": c #A6AFB4",
"> c #686F16",
", c #BD9842",
"< c #728794",
"1 c #9BAAB3",
"2 c #BAC4CA",
"3 c #5C6D77",
"4 c #A2783C",
"5 c #7B888F",
"6 c #6E7A80",
"7 c #7F8124",
/* pixels */
"                                                ",
"                                                ",
"               ...           ... X              ",
"             oX...           ...                ",
"             XO...       OX+ ...                ",
"            ...@@@...     ...@@@...             ",
"            ...@@@...     ...@@@...     O       ",
"            ...@@@...O    ...@@@...    X        ",
"            ...@@@##############...        Xo   ",
"            ...@@@##############...         $+  ",
"            ...@@@##############...             ",
"         ...##########################          ",
"         ...##########################          ",
"         ...##########################          ",
"       %%%%%%%%###&&&###########&&&###%%        ",
"       %%%%%%%%###&&&###########&&&###%%        ",
"         ...##############&&&#########          ",
"   XX    ...##############&&&######### O        ",
"  OO*+=  ...##############&&&#########X         ",
"   $ ++%%%%%%%%########&&&@@@&&&######%%        ",
"   =+= %%%%%%%%########&&&@@@&&&######%%     o  ",
"       %%%%%%%%########&&&@@@&&&######%%        ",
"         ...##########################          ",
"         ...##########################          ",
"         ...##########################          ",
"            ...####################             ",
"            ...####################        X    ",
"       o X  ...####################         -X  ",
"       OXO  ###;;;:::::;;;::::::            =   ",
"            ###;;;:::::;;;::::::                ",
"            ###;;;:::::;;;::::::>               ",
"   ,   <<<<<11111122222:::::::::;;;33333        ",
"   ,4  <<<<<11111122222:::::::::;;;33333        ",
"       <<<<<11111155555:::666666;;;33333        ",
"       <<<<<11111155555:::666666;;;33333        ",
"       <<<<<11111155555:::666666;;;33333        ",
"            11111111122666:::;;;;;;             ",
"            11111111122666:::;;;;;;             ",
"  >         11111111122666:::;;;;;;             ",
"  >         ###11111111:::;;;;;;                ",
"            ###11111111:::;;;;;;            XX  ",
"            ###11111111:::;;;;;;           X>X  ",
"         +  ###11111111111;;;;;;           =$X  ",
" 7XX        ###11111111111;;;;;;         >*     ",
" +*> 7      ###11111111111;;;;;;          =     ",
"    *$       >XX  555 X      666                ",
"      =           555X       666                ",
"                  555        666                "
};
