/* XPM */
static char *idle_right_compress_1_[] = {
/* columns rows colors chars-per-pixel */
"48 48 26 1 ",
"  c #72751B",
". c #C6DBDE",
"X c #787B21",
"o c #7F8226",
"O c #656C17",
"+ c #B3B0A9",
"@ c #E6A3A3",
"# c #DFEDED",
"$ c #9CA8AD",
"% c #A7B8C2",
"& c #4E4D5C",
"* c #A2814F",
"= c #636917",
"- c #C6A740",
"; c #8A98A0",
": c #A6AFB4",
"> c #7F8124",
", c #686F16",
"< c #BD9842",
"1 c #A2783C",
"2 c #9BAAB3",
"3 c #7B888F",
"4 c #6E7A80",
"5 c #728794",
"6 c #BAC4CA",
"7 c #5C6D77",
/* pixels */
"                                                ",
"                                                ",
"               ...          ...  X              ",
"             oX...          ...                 ",
"             XO...       OX+...                 ",
"             O ...        O+...                 ",
"            ...@@@...    ...@@@...      O       ",
"            ...@@@...O   ...@@@...     X        ",
"            ...@@@...o   ...@@@...         Xo   ",
"            ...@@@#############...          $+  ",
"            ...@@@#############...              ",
"            ...@@@#############...              ",
"         ...#########################           ",
"         ...#########################           ",
"         ...#########################           ",
"      %%%%%%%%%###&&&##########&&&###%%%        ",
"      %%%%%%%%%###&&&##########&&&###%%%        ",
"   XX %%%%%%%%%###&&&##########&&&###%%%        ",
"  OO*+=  ...#############&&&#########OX         ",
"   $ ++  ...#############&&&#########           ",
"   =+=   ...#############&&&#########        o  ",
"         ...#############&&&#########           ",
"      %%%%%%%%%#######&&&@@@&&&######%%%        ",
"      %%%%%%%%%#######&&&@@@&&&######%%%        ",
"         ...#########################           ",
"         ...#########################           ",
"            ...###################         X    ",
"       o X  ...###################          -X  ",
"       OXO  ...###################          =   ",
"      ###      ;;;:::::::::::::>                ",
"      ###      ;;;:::::::::::::X,               ",
"   <  ###      ;;;:::::::::::::                 ",
"   <1 ###      2223333:::444444                 ",
"      ###     X2223333:::444444                 ",
"      ###      2223333:::444444                 ",
"      ###      2223333:::444444                 ",
"         ###5555552226444:::;;;777              ",
"         ###5555552226444:::;;;777,             ",
"  ,      ###5555552226444:::;;;777              ",
"  ,      ###5555552222:::;;;;;;777              ",
"         ###5555552222:::;;;;;;777          XX  ",
"         ###5555552222:::;;;;;;777         X,X  ",
"         +  ###2222222222;;;;;;            =$X  ",
" >XX        ###2222222222;;;;;;          ,*     ",
" +*, >      ###2222222222;;;;;;           =     ",
"    *$       ,XX  333 X     444                 ",
"      =           333X      444                 ",
"                  333       444                 "
};
