/* XPM */
static char *idle_left_compress_1_[] = {
/* columns rows colors chars-per-pixel */
"48 48 27 1 ",
"  c #72751B",
". c #787B21",
"X c #7F8226",
"o c #C6DBDE",
"O c #656C17",
"+ c #B3B0A9",
"@ c #E6A3A3",
"# c #9CA8AD",
"$ c #DFEDED",
"% c #A7B8C2",
"& c #4E4D5C",
"* c #A2814F",
"= c #636917",
"- c #4F4E5D",
"; c #C6A740",
": c #A6AFB4",
"> c #8A98A0",
", c #686F16",
"< c #BD9842",
"1 c #A2783C",
"2 c #6E7A80",
"3 c #7B888F",
"4 c #9BAAB3",
"5 c #5C6D77",
"6 c #BAC4CA",
"7 c #728794",
"8 c #7F8124",
/* pixels */
"                                                ",
"                                                ",
"                                 .              ",
"             X.ooo           ooo                ",
"             .Oooo       O.+ ooo                ",
"             O ooo        O+ ooo                ",
"               ooo           ooo        O       ",
"            ooo@@@oooO    ooo@@@ooo    .        ",
"            ooo@@@oooX    ooo@@@ooo        .X   ",
"            ooo@@@ooo     ooo@@@ooo         #+  ",
"            ooo$$$$$$$$$$$$$$@@@ooo             ",
"            ooo$$$$$$$$$$$$$$@@@ooo             ",
"         $$$$$$$$$$$$$$$$$$$$$$$$$$ooo          ",
"         $$$$$$$$$$$$$$$$$$$$$$$$$$ooo          ",
"         $$$$$$$$$$$$$$$$$$$$$$$$$$ooo          ",
"       %%$$$&&&$$$$$$$$$$$&&&$$$%%%%%%%%        ",
"       %%$$$&&&$$$$$$$$$$$&&&$$$%%%%%%%%        ",
"   ..  %%$$$&&&$$$$$$$$$$$&&&$$$%%%%%%%%        ",
"  OO*+=  $$$$$$$$$&&&$$$$$$$$$$$$$$ooo.         ",
"   # ++  $$$$$$$$$&&&$$$$$$$$$$$$$$ooo          ",
"   =+=   $$$$$$$$$&&&$$$$$$$$$$$$$$ooo       X  ",
"         $$$$$$$$$&&&$$$$$$$$$$$$$$ooo          ",
"       %%$$$$$$&&&@@@&&-$$$$$$$$%%%%%%%%        ",
"       %%$$$$$$&&&@@@&&-$$$$$$$$%%%%%%%%        ",
"       %%$$$$$$&&&@@@&&-$$$$$$$$%%%%%%%%        ",
"         $$$$$$$$$$$$$$$$$$$$$$$$$$ooo          ",
"         $$$$$$$$$$$$$$$$$$$$$$$$$$ooo     .    ",
"       X .  $$$$$$$$$$$$$$$$$$$$ooo         ;.  ",
"       O.O  $$$$$$$$$$$$$$$$$$$$ooo         =   ",
"            $$$$$$$$$$$$$$$$$$$$ooo             ",
"               ::::::::::::::>>>,     $$        ",
"   <           ::::::::::::::>>>      $$        ",
"   <1          ::::::::::::::>>>      $$        ",
"              .222222::333333444      $$        ",
"               222222::333333444      $$        ",
"               222222::333333444      $$        ",
"               222222::333333444      $$        ",
"            555>>>:::22666444777777$$$          ",
"  ,         555>>>:::22666444777777$$$          ",
"  ,         555>>>:::22666444777777$$$          ",
"            555>>>>>>::444444777777$$$      ..  ",
"            555>>>>>>::444444777777$$$     .,.  ",
"         +     >>>>>>44444444444$$$        =#.  ",
" 8..           >>>>>>44444444444$$$      ,*     ",
" +*, 8         >>>>>>44444444444$$$       =     ",
"    *#       ,.222    .   333                   ",
"      =        222   .    333                   ",
"               222        333                   "
};
