/* XPM */
static char *idle_left_compress_3_[] = {
/* columns rows colors chars-per-pixel */
"48 48 27 1 ",
"  c #72751B",
". c #787B21",
"X c #7F8226",
"o c #B3B0A9",
"O c #656C17",
"+ c #C6DBDE",
"@ c #A2814F",
"# c #9CA8AD",
"$ c #E6A3A3",
"% c #DFEDED",
"& c #A7B8C2",
"* c #4E4D5C",
"= c #4F4E5D",
"- c #636917",
"; c #C6A740",
": c #8A98A0",
"> c #A6AFB4",
", c #BD9842",
"< c #BAC4CA",
"1 c #9BAAB3",
"2 c #A2783C",
"3 c #5C6D77",
"4 c #6E7A80",
"5 c #7B888F",
"6 c #728794",
"7 c #686F16",
"8 c #7F8124",
/* pixels */
"                                                ",
"                                                ",
"              .                                 ",
"                                ..X             ",
"                    o.O         .O.             ",
"                    oO          O O             ",
"       O                                        ",
"        .      +++        O   +++               ",
"   X.         o+++        X@. +++               ",
"  o#         ++$$$+++      +++$$$+++            ",
"             ++$$$+++      +++$$$+++            ",
"             ++$$$+++      +++$$$+++            ",
"             ++%%%%%%%%%%%%%%%$$$+++            ",
"             ++%%%%%%%%%%%%%%%$$$+++            ",
"             ++%%%%%%%%%%%%%%%$$$+++            ",
"          %%%%%%%%%%%%%%%%%%%%%%%%%%++          ",
"          %%%%%%%%%%%%%%%%%%%%%%%%%%++          ",
"       &&&%%%**=%%%%%%%%%%%***%%%&&&&&&&&  ..   ",
"       &&&%%%***%%%%%%%%%%%***%%%&&&&&&&&-o@OO  ",
"       &&&%%%**=%%%%%%%%%%%***%%%&&&&&&&&oo #   ",
"  X       %%%%%%%%***%%%%%%%%%%%%%%%++    -o-   ",
"          %%%%%%%%***%%%%%%%%%%%%%%%++          ",
"       &&&%%%%%***$$$***%%%%%%%%%&&&&&&&&       ",
"       &&&%%%%%***$$$***%%%%%%%%%&&&&&&&&       ",
"       &&&%%%%%***$$$***%%%%%%%%%&&&&&&&&       ",
"          %%%%%%%%%%%%%%%%%%%%%%%%%%++          ",
"    .     %%%%%%%%%%%%%%%%%%%%%%%%%%++          ",
"  .;         %%%%%%%%%%%%%%%%%%%%+++  . X       ",
"   -         %%%%%%%%%%%%%%%%%%%%+++  O.O       ",
"             %%%%%%%%%%%%%%%%%%%%+++            ",
"             ::>>>>>>:::>>>>>>::::::%%          ",
"             ::>>>>>>:::>>>>>>::::::%%      ,   ",
"             ::>>>>>>>>><<<<<<111111%%     2,   ",
"             ::>>>>>>>>><<<<<<111111%%          ",
"             ::>>>>>>>>><<<<<<111111%%          ",
"          333::444444>>>55555511166666          ",
"          333::444444>>>55555511166666          ",
"          333::444444>>>55555511166666          ",
"          333:::::>>>444<<<11111166666       7  ",
"          333:::::>>>444<<<11111166666       7  ",
"  ..           ::::::>>>111111111%%%            ",
"  .7.          ::::::>>>111111111%%%            ",
"  .#-          ::::::>>>111111111%%%  o         ",
"     @7        ::::::111111111111%%%        ..8 ",
"     -         ::::::111111111111%%%      8 7@o ",
"               444       . 555  ..7       #@    ",
"               444        .555           -      ",
"               444         555                  "
};
