/* XPM */
static char *idle_right_compress_6_[] = {
/* columns rows colors chars-per-pixel */
"48 48 26 1 ",
"  c #72751B",
". c #787B21",
"X c #7F8226",
"o c #656C17",
"O c #B3B0A9",
"+ c #A2814F",
"@ c #636917",
"# c #C6DBDE",
"$ c #9CA8AD",
"% c #E6A3A3",
"& c #DFEDED",
"* c #A7B8C2",
"= c #4E4D5C",
"- c #C6A740",
"; c #BD9842",
": c #A2783C",
"> c #8A98A0",
", c #A6AFB4",
"< c #728794",
"1 c #9BAAB3",
"2 c #7B888F",
"3 c #6E7A80",
"4 c #5C6D77",
"5 c #686F16",
"6 c #BAC4CA",
"7 c #7F8124",
/* pixels */
"                                                ",
"                                                ",
"                                 .              ",
"             X..                                ",
"             .o.         o.O                    ",
"             o o          oO                    ",
"                                        o       ",
"                     o         O       .        ",
"                   .+X         O@O         .X   ",
"               ### o.        ###            $O  ",
"               ###           ###                ",
"            ###%%%###     ###%%%###             ",
"            ###%%%###     ###%%%###             ",
"            ###%%%###     ###%%%###             ",
"            ###%%%&&&&&&&&&&&&&&###             ",
"            ###%%%&&&&&&&&&&&&&&###             ",
"            ###%%%&&&&&&&&&&&&&&###             ",
"   ..    ###&&&&&&&&&&&&&&&&&&&&&&&&&& o        ",
"  oo+O@  ###&&&&&&&&&&&&&&&&&&&&&&&&&&.         ",
"   $ OO  ###&&&&&&&&&&&&&&&&&&&&&&&&&&          ",
"   @O@ ********&&&===&&&&&&&&&&&===&&&**     X  ",
"       ********&&&===&&&&&&&&&&&===&&&**        ",
"       ********&&&===&&&&&&&&&&&===&&&**        ",
"         ###&&&&&&&&&&&&&&===&&&&&&&&&          ",
"         ###&&&&&&&&&&&&&&===&&&&&&&&&          ",
"       ********&&&&&&&&===%%%===&&&&&&**        ",
"       ********&&&&&&&&===%%%===&&&&&&**   .    ",
"       ********&&&&&&&&===%%%===&&&&&&**    -.  ",
"       o.###&&&&&&&&&&&&&&&&&&&&&&&&&&      @   ",
"         ###&&&&&&&&&&&&&&&&&&&&&&&&&&          ",
"         ###&&&&&&&&&&&&&&&&&&&&&&&&&&          ",
"   ;        ###&&&&&&&&&&&&&&&&&&&&             ",
"   ;:       ###&&&&&&&&&&&&&&&&&&&&             ",
"            ###&&&&&&&&&&&&&&&&&&&&             ",
"            >>>>>>,,,,,,,,,,,,,,>>>             ",
"            >>>>>>,,,,,,,,,,,,,,>>>             ",
"            >>>>>>,,,,,,,,,,,,,,>>>             ",
"    &&&  <<<<<<11122222,,,333333>>>444          ",
"  5 &&&  <<<<<<11122222,,,333333>>>444          ",
"  5 &&&  <<<<<<11122222,,,333333>>>444          ",
"    &&&  <<<<<<11111166333,,,>>>>>>444      ..  ",
"    &&&  <<<<<<11111166333,,,>>>>>>444     .5.  ",
"       &&O  11111111111,,,>>>>>>>>>        @$.  ",
" 7..   &&   11111111111,,,>>>>>>>>>      5+     ",
" O+5 7 &&   11111111111,,,>>>>>>>>>       @     ",
"    +$   &&&&&&11111111>>>>>>>>>                ",
"      @  &&&&&&11111111>>>>>>>>>                ",
"         &&&&&&11111111>>>>>>>>>                "
};
