/* XPM */
static char *idle_left_compress_5_[] = {
/* columns rows colors chars-per-pixel */
"48 48 26 1 ",
"  c #72751B",
". c #787B21",
"X c #7F8226",
"o c #B3B0A9",
"O c #656C17",
"+ c #C6DBDE",
"@ c #636917",
"# c #A2814F",
"$ c #9CA8AD",
"% c #E6A3A3",
"& c #DFEDED",
"* c #A7B8C2",
"= c #4E4D5C",
"- c #C6A740",
"; c #BD9842",
": c #A2783C",
"> c #8A98A0",
", c #A6AFB4",
"< c #5C6D77",
"1 c #BAC4CA",
"2 c #9BAAB3",
"3 c #728794",
"4 c #686F16",
"5 c #6E7A80",
"6 c #7B888F",
"7 c #7F8124",
/* pixels */
"                                                ",
"                                                ",
"              .                                 ",
"                                ..X             ",
"                    o.O         .O.             ",
"                    oO          O O             ",
"       O        +++           +++               ",
"        .       +++       O   +++               ",
"   X.         o@+++       X#. +++               ",
"  o$         +++%%%+++     +++%%%+++            ",
"             +++%%%+++     +++%%%+++            ",
"             +++%%%+++     +++%%%+++            ",
"             +++&&&&&&&&&&&&&&%%%+++            ",
"             +++&&&&&&&&&&&&&&%%%+++            ",
"             +++&&&&&&&&&&&&&&%%%+++            ",
"        **&&&&&&&&&&&&&&&&&&&&&&&&&&*****       ",
"        **&&&&&&&&&&&&&&&&&&&&&&&&&&*****       ",
"        O &&&===&&&&&&&&&&&===&&&***+++    ..   ",
"         .&&&===&&&&&&&&&&&===&&&***+++  @o#OO  ",
"          &&&===&&&&&&&&&&&===&&&***+++  oo $   ",
"  X       &&&===&&&&&&&&&&&===&&&&&&+++   @o@   ",
"          &&&===&&&&&&&&&&&===&&&&&&+++         ",
"          &&&===&&&&&&&&&&&===&&&&&&+++         ",
"        **&&&&&&&&&===&&&&&&&&&&&&&&*****       ",
"        **&&&&&&&&&===&&&&&&&&&&&&&&*****       ",
"        **&&&&&&&&&===&&&&&&&&&&&&&&*****       ",
"    .     &&&&&&===%%%===&&&&&&&&***+++         ",
"  .-      &&&&&&===%%%===&&&&&&&&***+++ X       ",
"   @      &&&&&&===%%%===&&&&&&&&***+++.O       ",
"          &&&&&&&&&&&&&&&&&&&&&&&&&&+++         ",
"          &&&&&&&&&&&&&&&&&&&&&&&&&&+++         ",
"             &&&&&&&&&&&&&&&&&&&&+++   &&   ;   ",
"             &&&&&&&&&&&&&&&&&&&&+++   &&  :;   ",
"             &&&&&&&&&&&&&&&&&&&&+++   &&       ",
"             >>>,,,,,,>>>,,,,,>>>>>>   &&       ",
"             >>>,,,,,,>>>,,,,,>>>>>>   &&       ",
"             >>>,,,,,,>>>,,,,,>>>>>>   &&       ",
"        <<<<<>>>,,,,,,,,,1111122222233333       ",
"        <<<<<>>>,,,,,,,,,1111122222233333    4  ",
"        <<<<<>>>,,,,,,,,,1111122222233333    4  ",
"  ..    <<<<<>>>555555,,,6666622222233333       ",
"  .4.   <<<<<>>>555555,,,6666622222233333       ",
"  .$@   <<<<<>>>555555,,,6666622222233333       ",
"     #4      >>>>>>,,,55511222222222&&&     ..7 ",
"     @       >>>>>>,,,55511222222222&&&   7 4#o ",
"             >>>>>>,,,55511222222222&&&   $#    ",
"             >>>>>>>>>,,,22222222222     @      ",
"             >>>>>>>>>,,,22222222222            "
};
