/* XPM */
static char *idle_left_compress_6_[] = {
/* columns rows colors chars-per-pixel */
"48 48 26 1 ",
"  c #72751B",
". c #787B21",
"X c #7F8226",
"o c #B3B0A9",
"O c #656C17",
"+ c #636917",
"@ c #A2814F",
"# c #9CA8AD",
"$ c #C6DBDE",
"% c #E6A3A3",
"& c #DFEDED",
"* c #A7B8C2",
"= c #4E4D5C",
"- c #C6A740",
"; c #BD9842",
": c #A2783C",
"> c #8A98A0",
", c #A6AFB4",
"< c #5C6D77",
"1 c #6E7A80",
"2 c #7B888F",
"3 c #9BAAB3",
"4 c #728794",
"5 c #686F16",
"6 c #BAC4CA",
"7 c #7F8124",
/* pixels */
"                                                ",
"                                                ",
"              .                                 ",
"                                ..X             ",
"                    o.O         .O.             ",
"                    oO          O O             ",
"       O                                        ",
"        .       o         O                     ",
"   X.         o+o         X@.                   ",
"  o#            $$$        .O $$$               ",
"                $$$           $$$               ",
"             $$$%%%$$$     $$$%%%$$$            ",
"             $$$%%%$$$     $$$%%%$$$            ",
"             $$$%%%$$$     $$$%%%$$$            ",
"             $$$&&&&&&&&&&&&&&%%%$$$            ",
"             $$$&&&&&&&&&&&&&&%%%$$$            ",
"             $$$&&&&&&&&&&&&&&%%%$$$            ",
"        O &&&&&&&&&&&&&&&&&&&&&&&&&&$$$    ..   ",
"         .&&&&&&&&&&&&&&&&&&&&&&&&&&$$$  +o@OO  ",
"          &&&&&&&&&&&&&&&&&&&&&&&&&&$$$  oo #   ",
"  X     **&&&===&&&&&&&&&&&===&&&******** +o+   ",
"        **&&&===&&&&&&&&&&&===&&&********       ",
"        **&&&===&&&&&&&&&&&===&&&********       ",
"          &&&&&&&&&===&&&&&&&&&&&&&&$$$         ",
"          &&&&&&&&&===&&&&&&&&&&&&&&$$$         ",
"        **&&&&&&===%%%===&&&&&&&&********       ",
"    .   **&&&&&&===%%%===&&&&&&&&********       ",
"  .-    **&&&&&&===%%%===&&&&&&&&********       ",
"   +      &&&&&&&&&&&&&&&&&&&&&&&&&&$$$.O       ",
"          &&&&&&&&&&&&&&&&&&&&&&&&&&$$$         ",
"          &&&&&&&&&&&&&&&&&&&&&&&&&&$$$         ",
"             &&&&&&&&&&&&&&&&&&&&$$$        ;   ",
"             &&&&&&&&&&&&&&&&&&&&$$$       :;   ",
"             &&&&&&&&&&&&&&&&&&&&$$$            ",
"             >>>,,,,,,,,,,,,,,>>>>>>            ",
"             >>>,,,,,,,,,,,,,,>>>>>>            ",
"             >>>,,,,,,,,,,,,,,>>>>>>            ",
"          <<<>>>111111,,,22222333444444  &&&    ",
"          <<<>>>111111,,,22222333444444  &&& 5  ",
"          <<<>>>111111,,,22222333444444  &&& 5  ",
"  ..      <<<>>>>>>,,,11166333333444444  &&&    ",
"  .5.     <<<>>>>>>,,,11166333333444444  &&&    ",
"  .#+        >>>>>>>>>,,,33333333333  o&&       ",
"     @5      >>>>>>>>>,,,33333333333   &&   ..7 ",
"     +       >>>>>>>>>,,,33333333333   && 7 5@o ",
"                >>>>>>>>>33333333&&&&&&   #@    ",
"                >>>>>>>>>33333333&&&&&&  +      ",
"                >>>>>>>>>33333333&&&&&&         "
};
