/* XPM */
static char *idle_right_compress_2_[] = {
/* columns rows colors chars-per-pixel */
"48 48 25 1 ",
"  c #72751B",
". c #787B21",
"X c #7F8226",
"o c #656C17",
"O c #B3B0A9",
"+ c #C6DBDE",
"@ c #A2814F",
"# c #636917",
"$ c #9CA8AD",
"% c #E6A3A3",
"& c #DFEDED",
"* c #A7B8C2",
"= c #4E4D5C",
"- c #C6A740",
"; c #BD9842",
": c #A2783C",
"> c #8A98A0",
", c #A6AFB4",
"< c #9BAAB3",
"1 c #7B888F",
"2 c #6E7A80",
"3 c #686F16",
"4 c #7F8124",
"5 c #728794",
"6 c #5C6D77",
/* pixels */
"                                                ",
"                                                ",
"                                 .              ",
"             X..                                ",
"             .o.         o.O                    ",
"             o o          oO                    ",
"                                        o       ",
"                     o         O       .        ",
"               +++ .@X      +++O#O         .X   ",
"               +++ o.       +++             $O  ",
"               +++          +++                 ",
"            +++%%%+++    +++%%%+++              ",
"            +++%%%+++    +++%%%+++              ",
"            +++%%%+++    +++%%%+++              ",
"            +++%%%&&&&&&&&&&&&&+++              ",
"            +++%%%&&&&&&&&&&&&&+++o             ",
"         +++&&&&&&&&&&&&&&&&&&&&&&&&&           ",
"   ..    +++&&&&&&&&&&&&&&&&&&&&&&&&&. o        ",
"  oo@O#  +++&&&&&&&&&&&&&&&&&&&&&&&&&o.         ",
"   $ O*********&&&===&&&&&&&&&&===&&&***        ",
"   #O#*********&&&===&&&&&&&&&&===&&&***     X  ",
"      *********&&&===&&&&&&&&&&===&&&***        ",
"         +++&&&&&&&&&&&&&===&&&&&&&&&           ",
"         +++&&&&&&&&&&&&&===&&&&&&&&&           ",
"         +++&&&&&&&&&&&&&===&&&&&&&&&           ",
"      *********&&&&&&====%%%===&&&&&&***        ",
"      *********&&&&&&====%%%===&&&&&&***   .    ",
"      *********&&&&&&====%%%===&&&&&&***    -.  ",
"       o.+++&&&&&&&&&&&&&&&&&&&&&&&&&       #   ",
"         +++&&&&&&&&&&&&&&&&&&&&&&&&&           ",
"         +++&&&&&&&&&&&&&&&&&&&&&&&&&           ",
"   ;        +++&&&&&&&&&&&&&&&&&&&              ",
"   ;:       +++&&&&&&&&&&&&&&&&&&&              ",
"            +++&&&&&&&&&&&&&&&&&&&              ",
"      &&&      >>>,,,,,,,,,,,,,                 ",
"      &&&      >>>,,,,,,,,,,,,,                 ",
"      &&&      >>>,,,,,,,,,,,,,                 ",
"      &&&    . <<<111,,,,222222   3             ",
"  3   &&&    4.<<<111,,,,222222                 ",
"  3      &&&555555<<<2222,,,>>>666              ",
"         &&&555555<<<2222,,,>>>666          ..  ",
"         &&&555555<<<2222,,,>>>666         .3.  ",
"         &&&555555<<<,,,,>>>>>>666         #$.  ",
" 4..     &&&555555<<<,,,,>>>>>>666       3@     ",
" O@3 4   &&&555555<<<,,,,>>>>>>666        #     ",
"    @$       3..  111 .     222                 ",
"      #           111.      222                 ",
"                  111       222                 "
};
