/* XPM */
static char *idle_left_compress_4_[] = {
/* columns rows colors chars-per-pixel */
"48 48 26 1 ",
"  c #72751B",
". c #787B21",
"X c #C6DBDE",
"o c #7F8226",
"O c #B3B0A9",
"+ c #656C17",
"@ c #E6A3A3",
"# c #DFEDED",
"$ c #9CA8AD",
"% c #A7B8C2",
"& c #4E4D5C",
"* c #636917",
"= c #A2814F",
"- c #C6A740",
"; c #A6AFB4",
": c #8A98A0",
"> c #686F16",
", c #5C6D77",
"< c #BAC4CA",
"1 c #9BAAB3",
"2 c #728794",
"3 c #BD9842",
"4 c #A2783C",
"5 c #6E7A80",
"6 c #7B888F",
"7 c #7F8124",
/* pixels */
"                                                ",
"                                                ",
"              . XXX           XXX               ",
"                XXX           XXX.o             ",
"                XXX O.+       XXX+.             ",
"             XXX@@@XXX     XXX@@@XXX            ",
"       +     XXX@@@XXX     XXX@@@XXX            ",
"        .    XXX@@@XXX    +XXX@@@XXX            ",
"   o.        XXX##############@@@XXX            ",
"  O$         XXX##############@@@XXX            ",
"             XXX##############@@@XXX            ",
"          ##########################XXX         ",
"          ##########################XXX         ",
"          ##########################XXX         ",
"        %%###&&&###########&&&###%%%%%%%%       ",
"        %%###&&&###########&&&###%%%%%%%%       ",
"          #########&&&##############XXX         ",
"        + #########&&&##############XXX    ..   ",
"         .#########&&&##############XXX  *O=++  ",
"        %%######&&&@@@&&&########%%%%%%%%OO $   ",
"  o     %%######&&&@@@&&&########%%%%%%%% *O*   ",
"        %%######&&&@@@&&&########%%%%%%%%       ",
"          ##########################XXX         ",
"          ##########################XXX         ",
"          ##########################XXX         ",
"             ####################XXX            ",
"    .        ####################XXX            ",
"  .-         ####################XXX  . o       ",
"   *            ;;;;;;:::;;;;;:::###  +.+       ",
"                ;;;;;;:::;;;;;:::###            ",
"               >;;;;;;:::;;;;;:::###            ",
"        ,,,,,:::;;;;;;;;;<<<<<11111122222   3   ",
"        ,,,,,:::;;;;;;;;;<<<<<11111122222  43   ",
"        ,,,,,:::555555;;;6666611111122222       ",
"        ,,,,,:::555555;;;6666611111122222       ",
"        ,,,,,:::555555;;;6666611111122222       ",
"             ::::::;;;555<<111111111            ",
"             ::::::;;;555<<111111111            ",
"             ::::::;;;555<<111111111         >  ",
"                ::::::;;;11111111###         >  ",
"  ..            ::::::;;;11111111###            ",
"  .>.           ::::::;;;11111111###            ",
"  .$*           ::::::11111111111###  O         ",
"     =>         ::::::11111111111###        ..7 ",
"     *          ::::::11111111111###      7 >=O ",
"                555      . 666  ..>       $=    ",
"                555       .666           *      ",
"                555        666                  "
};
