/* XPM */
static char * wall_grey_right_xpm[] = {
"48 48 99 2",
"  	c None",
". 	c #4F2913",
"+ 	c #666057",
"@ 	c #86847B",
"# 	c #767469",
"$ 	c #56321C",
"% 	c #665F58",
"& 	c #6C675F",
"* 	c #5B483B",
"= 	c #676159",
"- 	c #6D685F",
"; 	c #5E5146",
"> 	c #5C5247",
", 	c #676259",
"' 	c #69635B",
") 	c #6A655C",
"! 	c #6B675D",
"~ 	c #918F88",
"{ 	c #868579",
"] 	c #5A3B27",
"^ 	c #6B665D",
"/ 	c #6C685E",
"( 	c #655D56",
"_ 	c #573C2D",
": 	c #573D2D",
"< 	c #584132",
"[ 	c #5F5349",
"} 	c #5C4B3E",
"| 	c #512D19",
"1 	c #533321",
"2 	c #5D4D41",
"3 	c #512E19",
"4 	c #726E67",
"5 	c #746F69",
"6 	c #75716B",
"7 	c #74706A",
"8 	c #68625A",
"9 	c #512E1A",
"0 	c #6D6861",
"a 	c #76726C",
"b 	c #543422",
"c 	c #553726",
"d 	c #6C675E",
"e 	c #929088",
"f 	c #68635A",
"g 	c #6B655D",
"h 	c #94928B",
"i 	c #5B4435",
"j 	c #6A645C",
"k 	c #99978F",
"l 	c #76726B",
"m 	c #655444",
"n 	c #5E3B25",
"o 	c #53321E",
"p 	c #593D2A",
"q 	c #5B4231",
"r 	c #665444",
"s 	c #675544",
"t 	c #624937",
"u 	c #757068",
"v 	c #69645B",
"w 	c #747068",
"x 	c #583E2E",
"y 	c #746F67",
"z 	c #563B2A",
"A 	c #53321F",
"B 	c #543523",
"C 	c #5E4F44",
"D 	c #5E4F45",
"E 	c #563C2C",
"F 	c #52311E",
"G 	c #543624",
"H 	c #4F3625",
"I 	c #4F311E",
"J 	c #615851",
"K 	c #5D4C41",
"L 	c #533320",
"M 	c #553827",
"N 	c #5C5147",
"O 	c #736E66",
"P 	c #5D5247",
"Q 	c #533220",
"R 	c #6A665C",
"S 	c #52301D",
"T 	c #5D5248",
"U 	c #52301E",
"V 	c #736E67",
"W 	c #5A4537",
"X 	c #60564F",
"Y 	c #5B4538",
"Z 	c #61574F",
"` 	c #543321",
" .	c #563929",
"..	c #512F1B",
"+.	c #5A4538",
"@.	c #594234",
"#.	c #594032",
"$.	c #655C55",
"%.	c #5B473A",
". + + @ # # # $ % % % % % & % % % % % % * = = = = = - ; = > > > > > . = , ' ) ) ! - - - ~ { { ] ",
". + + @ # # # $ % % % % % & % % % % % % * = = = = = - ; = > > > > > . = , ' ) ) ^ / - - ~ { { ] ",
". + + @ # # # $ % % % % % & ( % % % % % _ = = = = = - ; = > > > > > . = , ' ) ) ^ / - - ~ { { ] ",
". + + @ # # # $ % % % % % & % % % % % % _ = = = = = - ; = > > > > > . = , ' ) ) ^ / - - ~ { { ] ",
". + + @ # # # $ : < [ } } } % % % % % % | 1 < 2 2 2 2 2 = > > > > > . = , ' ) ) ^ / - - ~ { { ] ",
". + + @ # # # $ % % % % % & % % % % % % 3 4 5 6 6 7 2 2 = > > > > > . = 8 ' ) ) ^ / - - ~ { { ] ",
". + + @ # # # $ % % % % % & % % % % % % 9 0 0 0 0 0 a ; = > > > > > . = , ' ) ) ^ / / - ~ { { ] ",
". + + @ # # # $ % % % % % & % % % % % % b 0 0 0 0 0 a ; = > > > > > . = 8 ' ) ) ^ / / - ~ { { ] ",
". + + @ # # # $ % % % % % & % % % % % % c 0 0 0 0 0 a [ = > > > > > . = 8 ' ) ) ^ d / - e { { ] ",
". + + @ # # # $ % % % % % & % % % % % % c 0 0 0 0 0 a [ = > > > > > . = f ' ) g ^ d / - h { { ] ",
". + + @ # # # $ % % % % % & % % % % % % i 0 0 0 0 0 a [ = > > > > > . = f f j g ^ d d - k { { ] ",
". + + @ # # # $ % % % % % & % % % % % % i 0 0 0 0 0 l [ = > > > > > . = 8 f ) g ^ d d - k { { ] ",
". . m m m m n % % % % % % & % % % % % % i 0 0 0 0 0 l [ = > > > > > > o o o o p q q q q r s t   ",
". + + @ # # # $ % % % % % & % % % % % % i 0 0 0 0 0 u [ = > > > > > . = 8 f v g ^ d / - k { { ] ",
". + + @ # # # $ % % % % % & % % % % % % i 0 0 0 0 0 u < = > > > > > . = 8 f v ) ^ d / / k { { ] ",
". + + @ # # # $ % % % % % & % % % % % % i 0 0 0 0 0 w < = > > > > > . = 8 f v j ^ d d / k { { ] ",
". + + @ # # # $ % % % % % & % % % % % % x 0 0 0 0 0 y z = > > > > > . = 8 f v j g ! / - h { { ] ",
". + + @ # # # $ % % % % % & A B C D : E F 0 0 0 0 0 y c G H H H I I . = 8 f v j g ! / - h { { ] ",
". + + @ # # # $ % % % % % & J J J J J K L 0 0 0 0 0 y M = N > > > N . = 8 f v j ) d / - h { { ] ",
". + + @ # # # $ % % % % % & J J J J J J L 0 0 0 0 0 O [ = > > > P > . = f f v j ) d d d h { { ] ",
". + + @ # # # $ % % % % % & J J J J J J L 0 0 0 0 0 O [ = P P P P P . = f f v j ) d d d h { { ] ",
". + + @ # # # $ % % % % % & J J J J J J Q 0 0 0 0 0 O [ = P P P P P . = 8 f v ) R d d d h { { ] ",
". + + @ # # # $ % % % % % & J J J J J J S 0 0 0 0 0 O [ = P P P P P . = f ' v ) R ^ d d h { { ] ",
". + + @ # # # $ % % % % % & J J J J J J S 0 0 0 0 0 O [ = P T T T T . = f ' v ) R ^ d d h { { ] ",
". + + @ # # # $ % % % % % & J J J J J J U 0 0 0 0 0 O ; = > > > > > . = , ' ) ) ! - - - ~ { { ] ",
". + + @ # # # $ % % % % % & J J J J J J | 0 0 0 0 0 l ; = > > > > > . = , ' ) ) ^ / - - ~ { { ] ",
". + + @ # # # $ % % % % % & J J J J J J | 0 0 0 0 0 l ; = > > > > > . = , ' ) ) ^ / - - ~ { { ] ",
". + + @ # # # $ % % % % % & J J J J J J 3 0 0 0 0 0 V ; = > > > > > . = , ' ) ) ^ / - - ~ { { ] ",
". + + @ # # # $ : W W : : X J J J J J J Y L L 2 2 2 2 2 = > > > > > . = , ' ) ) ^ / - - ~ { { ] ",
". + + @ # # # $ % % % % : Z J J J J J J A = = = = = & 2 = > > > > > . = 8 ' ) ) ^ / - - ~ { { ] ",
". + + @ # # # $ % % % % % : J J J J J J 1 = = = = = & ; = > > > > > . = , ' ) ) ^ / / - ~ { { ] ",
". + + @ # # # $ % % % % % & J J J J J J 1 = = = = = & ; = > > > > > . = 8 ' ) ) ^ / / - ~ { { ] ",
". + + @ # # # $ % % % % % & J J J J J J 1 = = = = = & [ = > > > > > . = 8 ' ) ) ^ d / - e { { ] ",
". + + @ # # # $ % % % % % & J J J J J J 1 = = = = = & [ = > > > > > . = f ' ) g ^ d / - h { { ] ",
". + + @ # # # $ % % % % % & J J J J J J ` = = = = = & [ = > > > > > . = f f j g ^ d d - k { { ] ",
". + + @ # # # $ % % % % % & J J J J J J c = = = = = & [ = > > > > > . = 8 f ) g ^ d d - k { { ] ",
". . m m m m n % % % % % % & J J J J J J  .= = = = = & [ = > > > > > > o o o o p q q q q r s t   ",
". + + @ # # # $ % % % % % & J J J J J J _ = = = = = & [ = > > > > > . = 8 f v g ^ d / - k { { ] ",
". + + @ # # # $ % % % % % & J J J J J J _ = = = = = & < = > > > > > . = 8 f v ) ^ d / / k { { ] ",
". + + @ # # # $ % % % % % & J J J J J J _ = = = = = & < = > > > > > . = 8 f v j ^ d d / k { { ] ",
". + + @ # # # $ % % % % % & J J J J K K _ = = = = = & z = > > > > > . = 8 f v j g ! / - h { { ] ",
". + + @ # # # $ % % % % % & ..B +.@.#._ _ = = = = = & c G H H H I I . = 8 f v j g ! / - h { { ] ",
". + + @ # # # $ % % % % % & % % % $.% % _ = = = = = & M = N > > > N . = 8 f v j ) d / - h { { ] ",
". + + @ # # # $ % % % % % & % % % % % % %.= = = = = & [ = > > > P > . = f f v j ) d d d h { { ] ",
". + + @ # # # $ % % % % % & % % % % % % [ = = = = = & [ = P P P P P . = f f v j ) d d d h { { ] ",
". + + @ # # # $ % % % % % & % % % % % % [ = = = = = & [ = P P P P P . = 8 f v ) R d d d h { { ] ",
". + + @ # # # $ % % % % % & % % % % % % [ = = = = = & [ = P P P P P . = f ' v ) R ^ d d h { { ] ",
". + + @ # # # $ % % % % % & % % % % % % [ = = = = = & [ = P T T T T . = f ' v ) R ^ d d h { { ] "};
