/* XPM */
static char *monster_left_compress_4_[] = {
/* columns rows colors chars-per-pixel */
"48 48 20 1 ",
"  c #72751B",
". c #3E4652",
"X c #787B21",
"o c #7F8226",
"O c #252329",
"+ c #656C17",
"@ c #B3B0A9",
"# c #A2814F",
"$ c #636917",
"% c #9CA8AD",
"& c #BDB3AC",
"* c #F7ECD5",
"= c #615E70",
"- c #3B3B4D",
"; c #C6A740",
": c #686F16",
"> c #BD9842",
", c #A2783C",
"< c #968C94",
"1 c #7F8124",
/* pixels */
"        ..                                      ",
"       ...                                      ",
"       ...                       X              ",
"       ....  oXX                                ",
"       ....  XOO         +X@                    ",
"       ....  +OO          +@                    ",
"       ...... OO                        +       ",
"       .......OO.... +         @       X        ",
"       .......OO....#o         @$@         Xo   ",
"       .......OO...+X                       %@  ",
"        ..... OO                                ",
"        ..... OO                                ",
"        ...   OO       &&****&&                 ",
"          .   OO      &********&                ",
"          .   OO      &********&o               ",
"              OO   o==******===*XX+             ",
"              OO   o+%-**=---***$$;             ",
"   XX         OO   @#@-**=---***; $  X +        ",
"  ++#@$       OO     $-***---***     +X         ",
"   % @@       OO      *==******&                ",
"   $@$        OO      *==******&             o  ",
"              OO      &*****&&&                 ",
"              OOX      **&**===                 ",
"              OO       **&**===                 ",
"              OO         *===&&&&&***           ",
"              OO o       *******&&****          ",
"              OO ++o     *******&&****     X    ",
"       o X    ---%X      =&&*&&=== *****    ;X  ",
"       +X+    -----------*******&&   ***    $   ",
"              -----------*******&&   ***        ",
"              OO ------==&**&===:    ***        ",
"   >          OO       ********&   *****        ",
"   >,         OOo      ********&   *****        ",
"              OO          ===        ***        ",
"              OO$         ===        *          ",
"              OO          ===        *          ",
"              OO       <<<<<****                ",
"             XOO       <<<******  :             ",
"  :          1OO       <<<******                ",
"  :           OO    X1 ===   *****              ",
"              OO$  X;: ===   *****          XX  ",
"              OO   $;X ===   *****         X:X  ",
"         @    OO  X  >   ===X  ****        $%X  ",
" 1XX          OO    ;    ===$   ***      :#     ",
" @#: 1        OO         ===    ***       $     ",
"    #%       :OO      X  ===      ***           ",
"      $       OO     X =====      ***           ",
"              OO       =====      ***           "
};
