/* XPM */
static char *monster_rigt_compress_1_[] = {
/* columns rows colors chars-per-pixel */
"48 48 20 1 ",
"  c #72751B",
". c #3E4652",
"X c #787B21",
"o c #7F8226",
"O c #656C17",
"+ c #B3B0A9",
"@ c #252329",
"# c #A2814F",
"$ c #9CA8AD",
"% c #BDB3AC",
"& c #F7ECD5",
"* c #615E70",
"= c #3B3B4D",
"- c #636917",
"; c #C6A740",
": c #686F16",
"> c #BD9842",
", c #A2783C",
"< c #7F8124",
"1 c #968C94",
/* pixels */
"                                     .          ",
"                                     ...        ",
"                                 X   ...        ",
"             oXX                   .....        ",
"             XOX         OX+   @   .....        ",
"             O O          O+   @   .....        ",
"                               @  ......O       ",
"                     O    .....@........        ",
"                   X#o    .....@........   Xo   ",
"                   OX       ...@........    $+  ",
"                               @  ....          ",
"                               @  ....          ",
"                %&&&&&%        @   ...          ",
"              %%&&&&&&&%%      @   ..           ",
"              %%&&&&&&&%%      @o  ..           ",
"              &&&&&&&&&&&      @XXO             ",
"              &&*===**&==*     @--;             ",
"   XX         &&*===**&==*     @; -  X O        ",
"  OO#+-       &&&===&&&==      @     OX         ",
"   $ ++       %%&&&&&&*&&      @                ",
"   -+-        %%&&&&&&*&&  o   @             o  ",
"              o %%%&&&&%%oX    @                ",
"                ***&%%&        @                ",
"                ***&%%&        @                ",
"          &&&%%%%***&&         @                ",
"        &&&&&%&&&&&&&&         @                ",
"        &&&&&%&&&&&&&&         @           X    ",
"       &&&&  ***%&&%**       ===            ;X  ",
"       &&&   %&&&&&&&&==========            -   ",
"       &&&   %&&&&&&&&==========                ",
"       &&&    ***%%&%%*======: @:               ",
"   >   &&&&   %%&&&&&&&        @                ",
"   >,  &&&&   %%&&&&&&&        @                ",
"       &&&    X# ***      <    @                ",
"        &&      -***           @                ",
"        &&       ***           @                ",
"              &&&&&1111        @                ",
"             X&&&&&&111        @  :             ",
"  :          <&&&&&&111        @                ",
"  :          &&&&   ***        @                ",
"             &&&&  X***        @            XX  ",
"             &&&&  -***        @           X:X  ",
"         + &&&&&  X***    <XX  @           -$X  ",
" <XX       &&&     ***     #-  @         :#     ",
" +#: <     &&&     ***     -   @          -     ",
"    #$    &&&:XX   ***X        @                ",
"      -   &&&      ****        @                ",
"          &&&      ****        @                "
};
