/* XPM */
static char *monster_rigt_compress_4_[] = {
/* columns rows colors chars-per-pixel */
"48 48 20 1 ",
"  c #72751B",
". c #3E4652",
"X c #787B21",
"o c #7F8226",
"O c #656C17",
"+ c #B3B0A9",
"@ c #252329",
"# c #A2814F",
"$ c #9CA8AD",
"% c #BDB3AC",
"& c #F7ECD5",
"* c #615E70",
"= c #3B3B4D",
"- c #636917",
"; c #C6A740",
": c #A2783C",
"> c #BD9842",
", c #7F8124",
"< c #968C94",
"1 c #686F16",
/* pixels */
"                                      .         ",
"                                      ...       ",
"                                 X    ...       ",
"             oXX                    .....       ",
"             XOX         OX+    @   .....       ",
"             O O          O+    @   .....       ",
"                                @  ......       ",
"                     O     .....@........       ",
"                   X#o     .....@........  Xo   ",
"                   OX        ...@........   $+  ",
"                                @  ....         ",
"                                @  ....         ",
"                 %&&&&&%        @   ...         ",
"               %%&&&&&&&%%      @   ..          ",
"               %%&&&&&&&%%      @   ..          ",
"               &&***&&&&&&*    o@XO             ",
"               &&*===**&==*     @-;             ",
"   XX          &&*===**&==*    :@ -  X O        ",
"  OO#+-        &&&===&&&==      @    OX         ",
"   $ ++        %%&&&&&&*&&      @               ",
"   -+-         %%&&&&&&*&& o    @            o  ",
"              o  %%%&&&&%%X     @               ",
"                X***&%%&        @               ",
"                 ***&%%&        @               ",
"           &&&%%%%***&&         @               ",
"         &&&&&%&&&&&&&&         @               ",
"         &&&&&%&&&&&&&&         @          X    ",
"       o&&&&  ***%&&%**       ===           ;X  ",
"       O&&&   %&&&&&&&&==========           -   ",
"        &&&   %&&&&&&&&==========               ",
"        &&&    ***%%&%%*====== X@               ",
"   >    &&&&   %%&&&&&&&        @               ",
"   >:   &&&&   %%&&&&&&&        @               ",
"        &&&   X#  ***     ,     @               ",
"         &&     - ***           @               ",
"         &&       ***           @               ",
"               &&&&&<<<<        @               ",
"             X &&&&&&<<<        @ 1             ",
"  1          ,X&&&&&&<<<        @               ",
"  1           &&&&  X***        @               ",
"              &&&& X;***        @           XX  ",
"              &&&& -;***        @          X1X  ",
"         +  &&&&& X ***   ,XX   @          -$X  ",
" ,XX        &&&     ***    #-   @        1#     ",
" +#1 ,      &&&     ***    -    @         -     ",
"    #$     &&&XX    ***         @               ",
"      -    &&&      ****        @               ",
"           &&&      ****        @               "
};
