/* XPM */
static char *p_on_e_right_comopress_6_[] = {
/* columns rows colors chars-per-pixel */
"48 48 45 1 ",
"  c #72751B",
". c #E4A672",
"X c #B86F50",
"o c #787B21",
"O c #7F8226",
"+ c #3F2832",
"@ c #743F39",
"# c #656C17",
"$ c #C6DBDE",
"% c #9CA8AD",
"& c #B3B0A9",
"* c #E6A3A3",
"= c #DFEDED",
"- c #A2814F",
"; c #636917",
": c #A7B8C2",
"> c #4E4D5C",
", c #C6A740",
"< c #BD9842",
"1 c #A2783C",
"2 c #8A98A0",
"3 c #A6AFB4",
"4 c #728794",
"5 c #9BAAB3",
"6 c #7B888F",
"7 c #6E7A80",
"8 c #5C6D77",
"9 c #686F16",
"0 c #BAC4CA",
"q c #563915",
"w c #644E25",
"e c #5B4216",
"r c #B9B4AC",
"t c #888930",
"y c #6B5631",
"u c #6E5935",
"i c #7F8124",
"p c #6A552E",
"a c #664F27",
"s c #A9854E",
"d c #A8854F",
"f c #644D24",
"g c #5F4C17",
"h c #645619",
"j c #695E1B",
/* pixels */
"                                                ",
"                     .....                      ",
"                 ....XXXXX....   o              ",
"             Oo..XXXXX+++XXXXX..                ",
"             ..XXX++++@@@++++XXX..              ",
"            .XXX++@@@@XXX@@@@++XXX@             ",
"           .XX++@@XXXXXXX@XXX@@++XX@    #       ",
"          .XX+@@X@XXXXXXX@XXXXX@@+XX@  o        ",
"          .X+@XXX@XXXXXXX@XXXXXXX@+X@      oO   ",
"         .XX+@X$$$XXXXXXX@XXX$$$X@+XX@      %&  ",
"         .X+@XX$$$XXXXXXX@XXX$$$XX@+X@          ",
"        .XX+$$$***$$$XXXX@$$$***$$$+XX@         ",
"        .X+@$$$***$$$XXXX@$$$***$$$@+X@         ",
"        .X+@$$$***$$$XXXX@$$$***$$$@+X@         ",
"        .X+@$$$***==============$$$@+X@         ",
"        .X+@$$$***==============$$$@+X@         ",
"        .X+@$$$***==============$$$@+X@         ",
"   oo   .$$$==========================@#        ",
"  ##-&; .$$$==========================@         ",
"   % && .$$$==========================@         ",
"   ;&; ::::::::===>>>===========>>>===::     O  ",
"       ::::::::===>>>===========>>>===::        ",
"       ::::::::===>>>===========>>>===::        ",
"        .$$$==============>>>=========@         ",
"        .$$$==============>>>=========@         ",
"       ::::::::========>>>***>>>======::        ",
"       ::::::::========>>>***>>>======::   o    ",
"       ::::::::========>>>***>>>======::    ,o  ",
"       #.$$$==========================@     ;   ",
"        .$$$==========================@         ",
"        .$$$==========================@         ",
"   <    .X+@$$$====================@+X@         ",
"   <1   .X+@$$$====================@+X@         ",
"        .X+@$$$====================@+X@         ",
"        .X+@22222233333333333333222@+X@         ",
"        .X+@22222233333333333333222@+X@         ",
"        .X+@22222233333333333333222@+X@         ",
"    === .44444455566666333777777222888@         ",
"  9 === .44444455566666333777777222888@         ",
"  9 === .44444455566666333777777222888@         ",
"    === .44444455555500777333222222888q     oo  ",
"    === w44444455555500777333222222888oq   o9o  ",
"       ==err55555555555333222222222qtoqyu  ;%o  ",
" ioqq  ==tee55555555555333222222222ttqprra-     ",
" &qotq ==tq@55555555555333222222222tqwrsdrf     ",
"   qttqqo======55555555222222222Xqooqqerre      ",
"    gooqo======55555555222222222qqoogttee       ",
"    googo======55555555222222222ogoohooj        "
};
