/* XPM */
static char *p_on_e_right_comopress_4_[] = {
/* columns rows colors chars-per-pixel */
"48 48 45 1 ",
"  c #72751B",
". c #E4A672",
"X c #C6DBDE",
"o c #B86F50",
"O c #787B21",
"+ c #7F8226",
"@ c #3F2832",
"# c #743F39",
"$ c #E6A3A3",
"% c #656C17",
"& c #DFEDED",
"* c #9CA8AD",
"= c #B3B0A9",
"- c #A7B8C2",
"; c #4E4D5C",
": c #A2814F",
"> c #636917",
", c #C6A740",
"< c #8A98A0",
"1 c #A6AFB4",
"2 c #BD9842",
"3 c #728794",
"4 c #9BAAB3",
"5 c #BAC4CA",
"6 c #5C6D77",
"7 c #A2783C",
"8 c #7B888F",
"9 c #6E7A80",
"0 c #686F16",
"q c #6B5631",
"w c #6E5935",
"e c #6A552E",
"r c #B9B4AC",
"t c #563915",
"y c #644E25",
"u c #A9854E",
"i c #A8854F",
"p c #5B4216",
"a c #888930",
"s c #7F8124",
"d c #664F27",
"f c #644D24",
"g c #5F4C17",
"h c #645619",
"j c #695E1B",
/* pixels */
"                                                ",
"                     .....                      ",
"               XXX...ooooo...XXX O              ",
"             +OXXXoooo@@@ooooXXX                ",
"             ..XXX@@@@###@@@@XXX..              ",
"            XXX$$$XXX#ooo#XXX$$$XXX             ",
"           .XXX$$$XXXoooo#XXX$$$XXX#    %       ",
"          .oXXX$$$XXXoooo#XXX$$$XXXo#  O        ",
"          .oXXX$$$&&&&&&&&&&&&&&XXXo#      O+   ",
"         .ooXXX$$$&&&&&&&&&&&&&&XXXoo#      *=  ",
"         .o@XXX$$$&&&&&&&&&&&&&&XXX@o#          ",
"        .XXX&&&&&&&&&&&&&&&&&&&&&&&&&&#         ",
"        .XXX&&&&&&&&&&&&&&&&&&&&&&&&&&#         ",
"        .XXX&&&&&&&&&&&&&&&&&&&&&&&&&&#         ",
"       --------&&&;;;&&&&&&&&&&&;;;&&&--        ",
"       --------&&&;;;&&&&&&&&&&&;;;&&&--        ",
"        .XXX&&&&&&&&&&&&&&;;;&&&&&&&&&#         ",
"   OO   .XXX&&&&&&&&&&&&&&;;;&&&&&&&&&#%        ",
"  %%:=> .XXX&&&&&&&&&&&&&&;;;&&&&&&&&&#         ",
"   * ==--------&&&&&&&&;;;$$$;;;&&&&&&--        ",
"   >=> --------&&&&&&&&;;;$$$;;;&&&&&&--     +  ",
"       --------&&&&&&&&;;;$$$;;;&&&&&&--        ",
"        .XXX&&&&&&&&&&&&&&&&&&&&&&&&&&#         ",
"        .XXX&&&&&&&&&&&&&&&&&&&&&&&&&&#         ",
"        .XXX&&&&&&&&&&&&&&&&&&&&&&&&&&#         ",
"        .o@#XXX&&&&&&&&&&&&&&&&&&&&#@o#         ",
"        .o@#XXX&&&&&&&&&&&&&&&&&&&&#@o#    O    ",
"       +.o@#XXX&&&&&&&&&&&&&&&&&&&&#@o#     ,O  ",
"       %.o@#&&&<<<11111<<<111111o#o#@o#     >   ",
"        .o@#&&&<<<11111<<<111111o#o#@o#         ",
"        .o@#&&&<<<11111<<<111111o#o#@o#         ",
"   2   3333344444455555111111111<<<66666        ",
"   27  3333344444455555111111111<<<66666        ",
"       3333344444488888111999999<<<66666        ",
"       3333344444488888111999999<<<66666        ",
"       3333344444488888111999999<<<66666        ",
"        .o@#44444444455999111<<<<<<#@o#         ",
"        .o@#44444444455999111<<<<<<#@o#         ",
"  0     .o@#44444444455999111<<<<<<#@o#         ",
"  0     .oqw&&&44444444111<<<<<<ooo#@o#         ",
"        .err&&&44444444111<<<<<<ooo#@ot     OO  ",
"        yrui&&&44444444111<<<<<<ooo#ttOt   O0O  ",
"        tprr&&&44444444444<<<<<<oootaOtqw  >*O  ",
" sOtt   tapp&&&44444444444<<<<<<ootaaterrd:     ",
" =tOat taat#&&&44444444444<<<<<<ootatyruirf     ",
"   taattOOttagOOto888oooo#oot999otOOttprrp      ",
"    gOOtOOtaagOgoo888oooo#ooo999ttOOgaapp       ",
"    gOOgOOgOOgOgoo888oooo#ooo999OgOOhOOj        "
};
