/* XPM */
static char *p_on_e_right_comopress_2_[] = {
/* columns rows colors chars-per-pixel */
"48 48 44 1 ",
"  c #72751B",
". c #E4A672",
"X c #B86F50",
"o c #787B21",
"O c #7F8226",
"+ c #3F2832",
"@ c #743F39",
"# c #656C17",
"$ c #C6DBDE",
"% c #9CA8AD",
"& c #B3B0A9",
"* c #E6A3A3",
"= c #DFEDED",
"- c #A2814F",
"; c #636917",
": c #A7B8C2",
"> c #4E4D5C",
", c #C6A740",
"< c #BD9842",
"1 c #A2783C",
"2 c #8A98A0",
"3 c #A6AFB4",
"4 c #9BAAB3",
"5 c #7B888F",
"6 c #6E7A80",
"7 c #686F16",
"8 c #728794",
"9 c #5C6D77",
"0 c #6A552E",
"q c #563915",
"w c #644E25",
"e c #B9B4AC",
"r c #5B4216",
"t c #888930",
"y c #6B5631",
"u c #6E5935",
"i c #7F8124",
"p c #664F27",
"a c #A9854E",
"s c #A8854F",
"d c #644D24",
"f c #5F4C17",
"g c #645619",
"h c #695E1B",
/* pixels */
"                                                ",
"                     .....                      ",
"                 ....XXXXX....   o              ",
"             Oo..XXXXX+++XXXXX..                ",
"             ..XXX++++@@@++++XXX..              ",
"            .XXX++@@@@XXX@@@@++XXX@             ",
"           .XX++@@XXXXXXX@XXX@@++XX@    #       ",
"          .XX+@@X@XXXXXXX@XXXXX@@+XX@  o        ",
"          .X+@XX$$$XXXXXX@XXX$$$X@+X@      oO   ",
"         .XX+@XX$$$XXXXXX@XXX$$$X@+XX@      %&  ",
"         .X+@XXX$$$XXXXXX@XXX$$$XX@+X@          ",
"        .XX+@$$$***$$$XXX@$$$***$$$+XX@         ",
"        .X+@X$$$***$$$XXX@$$$***$$$@+X@         ",
"        .X+@X$$$***$$$XXX@$$$***$$$@+X@         ",
"        .X+@X$$$***=============$$$@+X@         ",
"        .X+@X$$$***=============$$$@+X@         ",
"        .X$$$=========================@         ",
"   oo   .X$$$=========================@#        ",
"  ##-&; .X$$$=========================@         ",
"   % &&:::::::::===>>>==========>>>===:::       ",
"   ;&; :::::::::===>>>==========>>>===:::    O  ",
"       :::::::::===>>>==========>>>===:::       ",
"        .X$$$=============>>>=========@         ",
"        .X$$$=============>>>=========@         ",
"        .X$$$=============>>>=========@         ",
"       :::::::::======>>>>***>>>======:::       ",
"       :::::::::======>>>>***>>>======:::  o    ",
"       :::::::::======>>>>***>>>======:::   ,o  ",
"       #.X$$$=========================@     ;   ",
"        .X$$$=========================@         ",
"        .X$$$=========================@         ",
"   <    .X+@@$$$===================@+X@         ",
"   <1   .X+@X$$$===================@+X@         ",
"        .X+@X$$$===================@+X@         ",
"       ===+@XXXX2223333333333333X@X@+X@         ",
"       ===+@XXXX2223333333333333X@X@+X@         ",
"       ===+@XXXX2223333333333333X@X@+X@         ",
"       ===+@XXXX4445553333666666X@X@+X@         ",
"  7    ===+@XXXX4445553333666666XXX@+X@         ",
"  7     .X===8888884446666333222999@+X@         ",
"        .0===8888884446666333222999@+Xq     oo  ",
"        we===8888884446666333222999@qqoq   o7o  ",
"        qr===8888884443333222222999qtoqyu  ;%o  ",
" ioqq   qt===8888884443333222222999ttq0eep-     ",
" &qotq qtt===8888884443333222222999tqweased     ",
"   qttqqooqqtfooqX@555XXX@XXq666Xqooqqreer      ",
"    fooqooqttfofXX@555XXX@XXX666qqoofttrr       ",
"    foofoofoofofXX@555XXX@XXX666ofoogooh        "
};
