/* XPM */
static char *p_on_e_right_comopress_5_[] = {
/* columns rows colors chars-per-pixel */
"48 48 44 1 ",
"  c #72751B",
". c #E4A672",
"X c #B86F50",
"o c #787B21",
"O c #7F8226",
"+ c #3F2832",
"@ c #743F39",
"# c #C6DBDE",
"$ c #656C17",
"% c #E6A3A3",
"& c #9CA8AD",
"* c #B3B0A9",
"= c #DFEDED",
"- c #A7B8C2",
"; c #4E4D5C",
": c #A2814F",
"> c #636917",
", c #C6A740",
"< c #BD9842",
"1 c #A2783C",
"2 c #8A98A0",
"3 c #A6AFB4",
"4 c #728794",
"5 c #9BAAB3",
"6 c #BAC4CA",
"7 c #5C6D77",
"8 c #686F16",
"9 c #7B888F",
"0 c #6E7A80",
"q c #6E5935",
"w c #7F8124",
"e c #563915",
"r c #888930",
"t c #6A552E",
"y c #B9B4AC",
"u c #664F27",
"i c #644E25",
"p c #A9854E",
"a c #A8854F",
"s c #644D24",
"d c #5B4216",
"f c #5F4C17",
"g c #645619",
"h c #695E1B",
/* pixels */
"                                                ",
"                     .....                      ",
"                 ....XXXXX....   o              ",
"             Oo..XXXXX+++XXXXX..                ",
"             ..XXX++++@@@++++XXX..              ",
"            .XXX++@@@@XXX@@@@++XXX@             ",
"           .XX+###XXXXXXX@XXX###+XX@    $       ",
"          .XX+@###XXXXXXX@XXX###@+XX@  o        ",
"          .X+@X###XXXXXXX@XXX###X@+X@      oO   ",
"         .XX###%%%###XXXX@###%%%###XX@      &*  ",
"         .X+###%%%###XXXX@###%%%###+X@          ",
"        .XX+###%%%###XXXX@###%%%###+XX@         ",
"        .X+@###%%%==============###@+X@         ",
"        .X+@###%%%==============###@+X@         ",
"        .X+@###%%%==============###@+X@         ",
"       -----==========================--        ",
"       -----==========================--        ",
"   oo   .###---===;;;===========;;;===@$        ",
"  $$:*> .###---===;;;===========;;;===@         ",
"   & ** .###---===;;;===========;;;===@         ",
"   >*>  .###======;;;===========;;;===@      O  ",
"        .###======;;;===========;;;===@         ",
"        .###======;;;===========;;;===@         ",
"       -----==============;;;=========--        ",
"       -----==============;;;=========--        ",
"       -----==============;;;=========--        ",
"        .###---========;;;%%%;;;======@    o    ",
"       O.###---========;;;%%%;;;======@     ,o  ",
"       $.###---========;;;%%%;;;======@     >   ",
"        .###==========================@         ",
"        .###==========================@         ",
"   <   ==X+@###====================@+X@         ",
"   <1  ==X+@###====================@+X@         ",
"       ==X+@###====================@+X@         ",
"       ==X+@22222233333222333333222@+X@         ",
"       ==X+@22222233333222333333222@+X@         ",
"       ==X+@22222233333222333333222@+X@         ",
"       444445555556666633333333322277777        ",
"  8    444445555556666633333333322277777        ",
"  8    444445555556666633333333322277777        ",
"       444445555559999933300000022277777    oo  ",
"       444445555559999933300000022277777   o8o  ",
"       444445555559999933300000022277777q  >&o  ",
" woee   e===55555555566000333222222rretyyu:     ",
" *eore er===55555555566000333222222reiypays     ",
"   erreeo===55555555566000333222222oeedyyd      ",
"    fooeooer55555555555333222222222ofrrdd       ",
"    foofoofo55555555555333222222222ogooh        "
};
