/* XPM */
static char *p_on_e_right_comopress_3_[] = {
/* columns rows colors chars-per-pixel */
"48 48 46 1 ",
"  c #72751B",
". c #E4A672",
"X c #B86F50",
"o c #787B21",
"O c #7F8226",
"+ c #3F2832",
"@ c #743F39",
"# c #656C17",
"$ c #C6DBDE",
"% c #E6A3A3",
"& c #9CA8AD",
"* c #B3B0A9",
"= c #DFEDED",
"- c #A7B8C2",
"; c #4E4D5C",
": c #4F4E5D",
"> c #A2814F",
", c #636917",
"< c #C6A740",
"1 c #8A98A0",
"2 c #A6AFB4",
"3 c #BD9842",
"4 c #A2783C",
"5 c #9BAAB3",
"6 c #BAC4CA",
"7 c #728794",
"8 c #7B888F",
"9 c #6E7A80",
"0 c #5C6D77",
"q c #686F16",
"w c #6A552E",
"e c #B9B4AC",
"r c #563915",
"t c #644E25",
"y c #A9854E",
"u c #5B4216",
"i c #888930",
"p c #6B5631",
"a c #6E5935",
"s c #7F8124",
"d c #664F27",
"f c #A8854F",
"g c #644D24",
"h c #5F4C17",
"j c #645619",
"k c #695E1B",
/* pixels */
"                                                ",
"                     .....                      ",
"                 ....XXXXX....   o              ",
"             Oo..XXXXX+++XXXXX..                ",
"             ..XXX++++@@@++++XXX..              ",
"            .XXX++@@@@XXX@@@@++XXX@             ",
"           .XX++@@XXXXXXX@XXX@@++XX@    #       ",
"          .XX+$$$@XXXXXXX@XXX$$$@+XX@  o        ",
"          .X+@$$$@XXXXXXX@XXX$$$X@+X@      oO   ",
"         .X$$$%%%$$$XXXXX@$$$%%%$$+XX@      &*  ",
"         .X$$$%%%$$$XXXXX@$$$%%%$$@+X@          ",
"        .XX$$$%%%$$$XXXXX@$$$%%%$$@+XX@         ",
"        .X+$$$%%%===============$$X@+X@         ",
"        .X+$$$%%%===============$$X@+X@         ",
"        .X+$$$%%%===============$$X@+X@         ",
"        .$$==========================X@         ",
"        .$$==========================X@         ",
"   oo --------===;;;===========:;;===---        ",
"  ##>*--------===;;;===========;;;===---        ",
"   & *--------===;;;===========:;;===---        ",
"   ,*,  .$$===============;;;========X@      O  ",
"        .$$===============;;;========X@         ",
"      --------=========;;;%%%;;;=====---        ",
"      --------=========;;;%%%;;;=====---        ",
"      --------=========;;;%%%;;;=====---        ",
"        .$$==========================X@         ",
"        .$$==========================X@    o    ",
"       O.X+$$$====================X@+X@     <o  ",
"       #.X+$$$====================X@+X@     ,   ",
"        .X+$$$====================X@+X@         ",
"        .==11111122222211122222211X@+X@         ",
"   3    .==11111122222211122222211X@+X@         ",
"   34   .==55555566666622222222211X@+X@         ",
"        .==55555566666622222222211X@+X@         ",
"        .==55555566666622222222211X@+X@         ",
"        .7777755588888822299999911000X@         ",
"        .7777755588888822299999911000X@         ",
"        .7777755588888822299999911000X@         ",
"  q     .7777755555566699922211111000X@         ",
"  q     .7777755555566699922211111000X@         ",
"        .we===555555555222111111XXX@+Xr     oo  ",
"        tey===555555555222111111XXX@rror   oqo  ",
"        rue===555555555222111111XXXriorpa  ,&o  ",
" sorr   riu===555555555555111111XXriirweed>     ",
" *roir riir===555555555555111111XXrirteyfeg     ",
"   riirroorrihoor888XXXXX@XXr999Xroorrueeu      ",
"    hoorooriihohX888XXXXX@XXX999rroohiiuu       ",
"    hoohoohoohohX888XXXXX@XXX999ohoojook        "
};
