/* XPM */
static char *pr_on_e_door_open_compress_1_[] = {
/* columns rows colors chars-per-pixel */
"48 48 45 1 ",
"  c #72751B",
". c #E4A672",
"X c #B86F50",
"o c #787B21",
"O c #7F8226",
"+ c #C6DBDE",
"@ c #3F2832",
"# c #743F39",
"$ c #656C17",
"% c #E6A3A3",
"& c #9CA8AD",
"* c #B3B0A9",
"= c #DFEDED",
"- c #A7B8C2",
"; c #4E4D5C",
": c #A2814F",
"> c #636917",
", c #C6A740",
"< c #8A98A0",
"1 c #A6AFB4",
"2 c #BD9842",
"3 c #A2783C",
"4 c #9BAAB3",
"5 c #7B888F",
"6 c #6E7A80",
"7 c #728794",
"8 c #BAC4CA",
"9 c #5C6D77",
"0 c #686F16",
"q c #563915",
"w c #644E25",
"e c #5B4216",
"r c #B9B4AC",
"t c #888930",
"y c #6B5631",
"u c #6E5935",
"i c #7F8124",
"p c #6A552E",
"a c #664F27",
"s c #A9854E",
"d c #A8854F",
"f c #644D24",
"g c #5F4C17",
"h c #645619",
"j c #695E1B",
/* pixels */
"                                                ",
"                     ......                     ",
"                 ....XXXXXX....  o              ",
"             Oo+++XXXX@@@@XXX+++.               ",
"             ..+++@@@@@@@@@@@+++X..             ",
"            .XX+++@@@@@@@@@@@+++XXX#            ",
"           .XX@+++@@@@@@@@@@@+++@@XX#   $       ",
"          .X+++%%%+++@@@@@+++%%%+++XX# o        ",
"          .X+++%%%+++@@@@@+++%%%+++@X#     oO   ",
"         .XX+++%%%+++@@@@@+++%%%+++@XX#     &*  ",
"         .X@+++%%%==============+++@@X#         ",
"        .XX@+++%%%==============+++#@XX#        ",
"        .+++==========================X#        ",
"        .+++==========================X#        ",
"        .+++==========================X#        ",
"       --------===;;;===========;;;===--        ",
"       --------===;;;===========;;;===--        ",
"   oo  --------===;;;===========;;;===--        ",
"  $$:*> .+++==============;;;=========X#        ",
"   & ** .+++==============;;;=========X#        ",
"   >*>  .+++==============;;;=========X#     O  ",
"        .+++==============;;;=========X#        ",
"       --------========;;;%%%;;;======--        ",
"       --------========;;;%%%;;;======--        ",
"       --------========;;;%%%;;;======--        ",
"        .+++==========================X#        ",
"        .+++==========================X#   o    ",
"       O.X@@+++====================#@@X#    ,o  ",
"       $.X@@+++====================#@@X#    >   ",
"        .X@@+++====================#@@X#        ",
"       ==X@@@@@<<<11111111111111@###@@X#        ",
"   2   ==X@@@@@<<<11111111111111@###@@X#        ",
"   23  ==X@@@@@<<<11111111111111@###@@X#        ",
"       ==X@@@@@44455555111666666@###@@X#        ",
"       ==X@@@@@44455555111666666@###@@X#        ",
"       ==X@@@@@44455555111666666@###@@X#        ",
"       ==X@@@@@44455555111666666@###@@X#        ",
"        .===77777744488666111<<<999#@@X#        ",
"  0     .===77777744488666111<<<999#@@X#        ",
"  0     .===77777744488666111<<<999#@@X#        ",
"        .===77777744444111<<<<<<999#@@Xq    oo  ",
"        w===77777744444111<<<<<<999#@qqoq  o0o  ",
"        qerr===44444444444<<<<<<@###qtoyu  >&o  ",
" ioqq   qtee===44444444444<<<<<<@##qttprra:     ",
" *qotq qttq@===44444444444<<<<<<@##qtwrsdrf     ",
"   qttqqooqqtgooq@555@@@@@@@@666q#qooqerre      ",
"    gooqooqttgog@@555@@@@@@@@666tqqoogtee       ",
"    googoogoogog@@555@@@@@@@@666oogoohooj       "
};
