/* XPM */
static char * wall_grey_left_xpm[] = {
"48 48 99 2",
"  	c None",
". 	c #5A3B27",
"+ 	c #868579",
"@ 	c #918F88",
"# 	c #6D685F",
"$ 	c #6B675D",
"% 	c #6A655C",
"& 	c #69635B",
"* 	c #676259",
"= 	c #676159",
"- 	c #4F2913",
"; 	c #5C5247",
"> 	c #5E5146",
", 	c #5B483B",
"' 	c #665F58",
") 	c #6C675F",
"! 	c #56321C",
"~ 	c #767469",
"{ 	c #86847B",
"] 	c #666057",
"^ 	c #6C685E",
"/ 	c #6B665D",
"( 	c #573C2D",
"_ 	c #655D56",
": 	c #5D4D41",
"< 	c #584132",
"[ 	c #533321",
"} 	c #512D19",
"| 	c #5C4B3E",
"1 	c #5F5349",
"2 	c #573D2D",
"3 	c #68625A",
"4 	c #74706A",
"5 	c #75716B",
"6 	c #746F69",
"7 	c #726E67",
"8 	c #512E19",
"9 	c #76726C",
"0 	c #6D6861",
"a 	c #512E1A",
"b 	c #543422",
"c 	c #929088",
"d 	c #6C675E",
"e 	c #553726",
"f 	c #94928B",
"g 	c #6B655D",
"h 	c #68635A",
"i 	c #99978F",
"j 	c #6A645C",
"k 	c #5B4435",
"l 	c #76726B",
"m 	c #624937",
"n 	c #675544",
"o 	c #665444",
"p 	c #5B4231",
"q 	c #593D2A",
"r 	c #53321E",
"s 	c #5E3B25",
"t 	c #655444",
"u 	c #69645B",
"v 	c #757068",
"w 	c #747068",
"x 	c #563B2A",
"y 	c #746F67",
"z 	c #583E2E",
"A 	c #4F311E",
"B 	c #4F3625",
"C 	c #543624",
"D 	c #52311E",
"E 	c #563C2C",
"F 	c #5E4F45",
"G 	c #5E4F44",
"H 	c #543523",
"I 	c #53321F",
"J 	c #5C5147",
"K 	c #553827",
"L 	c #533320",
"M 	c #5D4C41",
"N 	c #615851",
"O 	c #5D5247",
"P 	c #736E66",
"Q 	c #6A665C",
"R 	c #533220",
"S 	c #52301D",
"T 	c #5D5248",
"U 	c #52301E",
"V 	c #736E67",
"W 	c #5B4538",
"X 	c #60564F",
"Y 	c #5A4537",
"Z 	c #61574F",
"` 	c #543321",
" .	c #563929",
"..	c #594032",
"+.	c #594234",
"@.	c #5A4538",
"#.	c #512F1B",
"$.	c #655C55",
"%.	c #5B473A",
". + + @ # # # $ % % & * = - ; ; ; ; ; = > # = = = = = , ' ' ' ' ' ' ) ' ' ' ' ' ! ~ ~ ~ { ] ] - ",
". + + @ # # ^ / % % & * = - ; ; ; ; ; = > # = = = = = , ' ' ' ' ' ' ) ' ' ' ' ' ! ~ ~ ~ { ] ] - ",
". + + @ # # ^ / % % & * = - ; ; ; ; ; = > # = = = = = ( ' ' ' ' ' _ ) ' ' ' ' ' ! ~ ~ ~ { ] ] - ",
". + + @ # # ^ / % % & * = - ; ; ; ; ; = > # = = = = = ( ' ' ' ' ' ' ) ' ' ' ' ' ! ~ ~ ~ { ] ] - ",
". + + @ # # ^ / % % & * = - ; ; ; ; ; = : : : : : < [ } ' ' ' ' ' ' | | | 1 < 2 ! ~ ~ ~ { ] ] - ",
". + + @ # # ^ / % % & 3 = - ; ; ; ; ; = : : 4 5 5 6 7 8 ' ' ' ' ' ' ) ' ' ' ' ' ! ~ ~ ~ { ] ] - ",
". + + @ # ^ ^ / % % & * = - ; ; ; ; ; = > 9 0 0 0 0 0 a ' ' ' ' ' ' ) ' ' ' ' ' ! ~ ~ ~ { ] ] - ",
". + + @ # ^ ^ / % % & 3 = - ; ; ; ; ; = > 9 0 0 0 0 0 b ' ' ' ' ' ' ) ' ' ' ' ' ! ~ ~ ~ { ] ] - ",
". + + c # ^ d / % % & 3 = - ; ; ; ; ; = 1 9 0 0 0 0 0 e ' ' ' ' ' ' ) ' ' ' ' ' ! ~ ~ ~ { ] ] - ",
". + + f # ^ d / g % & h = - ; ; ; ; ; = 1 9 0 0 0 0 0 e ' ' ' ' ' ' ) ' ' ' ' ' ! ~ ~ ~ { ] ] - ",
". + + i # d d / g j h h = - ; ; ; ; ; = 1 9 0 0 0 0 0 k ' ' ' ' ' ' ) ' ' ' ' ' ! ~ ~ ~ { ] ] - ",
". + + i # d d / g % h 3 = - ; ; ; ; ; = 1 l 0 0 0 0 0 k ' ' ' ' ' ' ) ' ' ' ' ' ! ~ ~ ~ { ] ] - ",
"  m n o p p p p q r r r r ; ; ; ; ; ; = 1 l 0 0 0 0 0 k ' ' ' ' ' ' ) ' ' ' ' ' ' s t t t t - - ",
". + + i # ^ d / g u h 3 = - ; ; ; ; ; = 1 v 0 0 0 0 0 k ' ' ' ' ' ' ) ' ' ' ' ' ! ~ ~ ~ { ] ] - ",
". + + i ^ ^ d / % u h 3 = - ; ; ; ; ; = < v 0 0 0 0 0 k ' ' ' ' ' ' ) ' ' ' ' ' ! ~ ~ ~ { ] ] - ",
". + + i ^ d d / j u h 3 = - ; ; ; ; ; = < w 0 0 0 0 0 k ' ' ' ' ' ' ) ' ' ' ' ' ! ~ ~ ~ { ] ] - ",
". + + f # ^ $ g j u h 3 = - ; ; ; ; ; = x y 0 0 0 0 0 z ' ' ' ' ' ' ) ' ' ' ' ' ! ~ ~ ~ { ] ] - ",
". + + f # ^ $ g j u h 3 = - A A B B B C e y 0 0 0 0 0 D E 2 F G H I ) ' ' ' ' ' ! ~ ~ ~ { ] ] - ",
". + + f # ^ d % j u h 3 = - J ; ; ; J = K y 0 0 0 0 0 L M N N N N N ) ' ' ' ' ' ! ~ ~ ~ { ] ] - ",
". + + f d d d % j u h h = - ; O ; ; ; = 1 P 0 0 0 0 0 L N N N N N N ) ' ' ' ' ' ! ~ ~ ~ { ] ] - ",
". + + f d d d % j u h h = - O O O O O = 1 P 0 0 0 0 0 L N N N N N N ) ' ' ' ' ' ! ~ ~ ~ { ] ] - ",
". + + f d d d Q % u h 3 = - O O O O O = 1 P 0 0 0 0 0 R N N N N N N ) ' ' ' ' ' ! ~ ~ ~ { ] ] - ",
". + + f d d / Q % u & h = - O O O O O = 1 P 0 0 0 0 0 S N N N N N N ) ' ' ' ' ' ! ~ ~ ~ { ] ] - ",
". + + f d d / Q % u & h = - T T T T O = 1 P 0 0 0 0 0 S N N N N N N ) ' ' ' ' ' ! ~ ~ ~ { ] ] - ",
". + + @ # # # $ % % & * = - ; ; ; ; ; = > P 0 0 0 0 0 U N N N N N N ) ' ' ' ' ' ! ~ ~ ~ { ] ] - ",
". + + @ # # ^ / % % & * = - ; ; ; ; ; = > l 0 0 0 0 0 } N N N N N N ) ' ' ' ' ' ! ~ ~ ~ { ] ] - ",
". + + @ # # ^ / % % & * = - ; ; ; ; ; = > l 0 0 0 0 0 } N N N N N N ) ' ' ' ' ' ! ~ ~ ~ { ] ] - ",
". + + @ # # ^ / % % & * = - ; ; ; ; ; = > V 0 0 0 0 0 8 N N N N N N ) ' ' ' ' ' ! ~ ~ ~ { ] ] - ",
". + + @ # # ^ / % % & * = - ; ; ; ; ; = : : : : : L L W N N N N N N X 2 2 Y Y 2 ! ~ ~ ~ { ] ] - ",
". + + @ # # ^ / % % & 3 = - ; ; ; ; ; = : ) = = = = = I N N N N N N Z 2 ' ' ' ' ! ~ ~ ~ { ] ] - ",
". + + @ # ^ ^ / % % & * = - ; ; ; ; ; = > ) = = = = = [ N N N N N N 2 ' ' ' ' ' ! ~ ~ ~ { ] ] - ",
". + + @ # ^ ^ / % % & 3 = - ; ; ; ; ; = > ) = = = = = [ N N N N N N ) ' ' ' ' ' ! ~ ~ ~ { ] ] - ",
". + + c # ^ d / % % & 3 = - ; ; ; ; ; = 1 ) = = = = = [ N N N N N N ) ' ' ' ' ' ! ~ ~ ~ { ] ] - ",
". + + f # ^ d / g % & h = - ; ; ; ; ; = 1 ) = = = = = [ N N N N N N ) ' ' ' ' ' ! ~ ~ ~ { ] ] - ",
". + + i # d d / g j h h = - ; ; ; ; ; = 1 ) = = = = = ` N N N N N N ) ' ' ' ' ' ! ~ ~ ~ { ] ] - ",
". + + i # d d / g % h 3 = - ; ; ; ; ; = 1 ) = = = = = e N N N N N N ) ' ' ' ' ' ! ~ ~ ~ { ] ] - ",
"  m n o p p p p q r r r r ; ; ; ; ; ; = 1 ) = = = = =  .N N N N N N ) ' ' ' ' ' ' s t t t t - - ",
". + + i # ^ d / g u h 3 = - ; ; ; ; ; = 1 ) = = = = = ( N N N N N N ) ' ' ' ' ' ! ~ ~ ~ { ] ] - ",
". + + i ^ ^ d / % u h 3 = - ; ; ; ; ; = < ) = = = = = ( N N N N N N ) ' ' ' ' ' ! ~ ~ ~ { ] ] - ",
". + + i ^ d d / j u h 3 = - ; ; ; ; ; = < ) = = = = = ( N N N N N N ) ' ' ' ' ' ! ~ ~ ~ { ] ] - ",
". + + f # ^ $ g j u h 3 = - ; ; ; ; ; = x ) = = = = = ( M M N N N N ) ' ' ' ' ' ! ~ ~ ~ { ] ] - ",
". + + f # ^ $ g j u h 3 = - A A B B B C e ) = = = = = ( ( ..+.@.H #.) ' ' ' ' ' ! ~ ~ ~ { ] ] - ",
". + + f # ^ d % j u h 3 = - J ; ; ; J = K ) = = = = = ( ' ' $.' ' ' ) ' ' ' ' ' ! ~ ~ ~ { ] ] - ",
". + + f d d d % j u h h = - ; O ; ; ; = 1 ) = = = = = %.' ' ' ' ' ' ) ' ' ' ' ' ! ~ ~ ~ { ] ] - ",
". + + f d d d % j u h h = - O O O O O = 1 ) = = = = = 1 ' ' ' ' ' ' ) ' ' ' ' ' ! ~ ~ ~ { ] ] - ",
". + + f d d d Q % u h 3 = - O O O O O = 1 ) = = = = = 1 ' ' ' ' ' ' ) ' ' ' ' ' ! ~ ~ ~ { ] ] - ",
". + + f d d / Q % u & h = - O O O O O = 1 ) = = = = = 1 ' ' ' ' ' ' ) ' ' ' ' ' ! ~ ~ ~ { ] ] - ",
". + + f d d / Q % u & h = - T T T T O = 1 ) = = = = = 1 ' ' ' ' ' ' ) ' ' ' ' ' ! ~ ~ ~ { ] ] - "};
