/* XPM */
static char * wall_grey_48_xpm[] = {
"48 48 99 2",
"  	c None",
". 	c #5A3B27",
"+ 	c #868579",
"@ 	c #624937",
"# 	c #675544",
"$ 	c #918F88",
"% 	c #929088",
"& 	c #94928B",
"* 	c #99978F",
"= 	c #665444",
"- 	c #6D685F",
"; 	c #5B4231",
"> 	c #6C685E",
", 	c #6C675E",
"' 	c #6B675D",
") 	c #6B665D",
"! 	c #6B655D",
"~ 	c #6A655C",
"{ 	c #6A665C",
"] 	c #593D2A",
"^ 	c #6A645C",
"/ 	c #53321E",
"( 	c #69645B",
"_ 	c #69635B",
": 	c #68635A",
"< 	c #676259",
"[ 	c #68625A",
"} 	c #676159",
"| 	c #4F2913",
"1 	c #5C5247",
"2 	c #4F311E",
"3 	c #5C5147",
"4 	c #5D5247",
"5 	c #5D5248",
"6 	c #4F3625",
"7 	c #543624",
"8 	c #5E5146",
"9 	c #5D4D41",
"0 	c #5F5349",
"a 	c #584132",
"b 	c #563B2A",
"c 	c #553726",
"d 	c #553827",
"e 	c #76726C",
"f 	c #76726B",
"g 	c #757068",
"h 	c #747068",
"i 	c #746F67",
"j 	c #736E66",
"k 	c #736E67",
"l 	c #6C675F",
"m 	c #74706A",
"n 	c #6D6861",
"o 	c #75716B",
"p 	c #746F69",
"q 	c #533320",
"r 	c #533321",
"s 	c #726E67",
"t 	c #5B483B",
"u 	c #573C2D",
"v 	c #512D19",
"w 	c #512E19",
"x 	c #512E1A",
"y 	c #543422",
"z 	c #5B4435",
"A 	c #583E2E",
"B 	c #52311E",
"C 	c #533220",
"D 	c #52301D",
"E 	c #52301E",
"F 	c #5B4538",
"G 	c #53321F",
"H 	c #543321",
"I 	c #563929",
"J 	c #5B473A",
"K 	c #665F58",
"L 	c #563C2C",
"M 	c #5D4C41",
"N 	c #615851",
"O 	c #573D2D",
"P 	c #594032",
"Q 	c #5E4F45",
"R 	c #594234",
"S 	c #655C55",
"T 	c #5E4F44",
"U 	c #5A4538",
"V 	c #543523",
"W 	c #655D56",
"X 	c #512F1B",
"Y 	c #5C4B3E",
"Z 	c #60564F",
"` 	c #61574F",
" .	c #5A4537",
"..	c #56321C",
"+.	c #767469",
"@.	c #5E3B25",
"#.	c #655444",
"$.	c #86847B",
"%.	c #666057",
". . . . . . . . . . . .   . . . . . . . . . . . . . . . . . . . . . . .   . . . . . . . . . . . ",
"+ + + + + + + + + + + + @ + + + + + + + + + + + + + + + + + + + + + + + @ + + + + + + + + + + + ",
"+ + + + + + + + + + + + # + + + + + + + + + + + + + + + + + + + + + + + # + + + + + + + + + + + ",
"$ $ $ $ $ $ $ $ % & * * = * * * & & & & & & & & $ $ $ $ $ $ $ $ % & * * = * * * & & & & & & & & ",
"- - - - - - - - - - - - ; - > > - - - , , , , , - - - - - - - - - - - - ; - > > - - - , , , , , ",
"- - - - - - > > > > , , ; > > , > > > , , , , , - - - - - - > > > > , , ; > > , > > > , , , , , ",
"- > > > > > > > , , , , ; , , , ' ' , , , , ) ) - > > > > > > > , , , , ; , , , ' ' , , , , ) ) ",
"' ) ) ) ) ) ) ) ) ) ) ) ; ) ) ) ! ! ~ ~ ~ { { { ' ) ) ) ) ) ) ) ) ) ) ) ; ) ) ) ! ! ~ ~ ~ { { { ",
"~ ~ ~ ~ ~ ~ ~ ~ ~ ! ! ! ] ! ~ ^ ^ ^ ^ ^ ^ ~ ~ ~ ~ ~ ~ ~ ~ ~ ~ ~ ~ ! ! ! ] ! ~ ^ ^ ^ ^ ^ ^ ~ ~ ~ ",
"~ ~ ~ ~ ~ ~ ~ ~ ~ ~ ^ ~ / ( ( ( ( ( ( ( ( ( ( ( ~ ~ ~ ~ ~ ~ ~ ~ ~ ~ ^ ~ / ( ( ( ( ( ( ( ( ( ( ( ",
"_ _ _ _ _ _ _ _ _ _ : : / : : : : : : : : : _ _ _ _ _ _ _ _ _ _ _ _ : : / : : : : : : : : : _ _ ",
"< < < < < [ < [ [ : : [ / [ [ [ [ [ [ : : [ : : < < < < < [ < [ [ : : [ / [ [ [ [ [ [ : : [ : : ",
"} } } } } } } } } } } } / } } } } } } } } } } } } } } } } } } } } } } } / } } } } } } } } } } } ",
"| | | | | | | | | | | | 1 | | | | | | | | | | | | | | | | | | | | | | | 1 | | | | | | | | | | | ",
"1 1 1 1 1 1 1 1 1 1 1 1 1 1 1 1 1 2 3 1 4 4 4 5 1 1 1 1 1 1 1 1 1 1 1 1 1 1 1 1 1 2 3 1 4 4 4 5 ",
"1 1 1 1 1 1 1 1 1 1 1 1 1 1 1 1 1 2 1 4 4 4 4 5 1 1 1 1 1 1 1 1 1 1 1 1 1 1 1 1 1 2 1 4 4 4 4 5 ",
"1 1 1 1 1 1 1 1 1 1 1 1 1 1 1 1 1 6 1 1 4 4 4 5 1 1 1 1 1 1 1 1 1 1 1 1 1 1 1 1 1 6 1 1 4 4 4 5 ",
"1 1 1 1 1 1 1 1 1 1 1 1 1 1 1 1 1 6 1 1 4 4 4 5 1 1 1 1 1 1 1 1 1 1 1 1 1 1 1 1 1 6 1 1 4 4 4 5 ",
"1 1 1 1 1 1 1 1 1 1 1 1 1 1 1 1 1 6 3 1 4 4 4 4 1 1 1 1 1 1 1 1 1 1 1 1 1 1 1 1 1 6 3 1 4 4 4 4 ",
"} } } } } } } } } } } } } } } } } 7 } } } } } } } } } } } } } } } } } } } } } } } 7 } } } } } } ",
"8 8 8 8 9 9 8 8 0 0 0 0 0 0 a a b c d 0 0 0 0 0 8 8 8 8 9 9 8 8 0 0 0 0 0 0 a a b c d 0 0 0 0 0 ",
"- - - - 9 9 e e e e e f f g g h i i i j j j j j j f f k 9 l l l l l l l l l l l l l l l l l l l ",
"} } } } 9 m n n n n n n n n n n n n n n n n n n n n n n 9 } } } } } } } } } } } } } } } } } } } ",
"} } } } 9 o n n n n n n n n n n n n n n n n n n n n n n 9 } } } } } } } } } } } } } } } } } } } ",
"} } } } 9 o n n n n n n n n n n n n n n n n n n n n n n 9 } } } } } } } } } } } } } } } } } } } ",
"} } } } a p n n n n n n n n n n n n n n n n n n n n n n q } } } } } } } } } } } } } } } } } } } ",
"} } } } r s n n n n n n n n n n n n n n n n n n n n n n q } } } } } } } } } } } } } } } } } } } ",
"t t u u v w x y c c z z z z z z A B q q q C D D E v v w F G r r r r H c I u u u u u u J 0 0 0 0 ",
"K K K K K K K K K K K K K K K K K L M N N N N N N N N N N N N N N N N N N N N N M u K K K K K K ",
"K K K K K K K K K K K K K K K K K O N N N N N N N N N N N N N N N N N N N N N N M P K K K K K K ",
"K K K K K K K K K K K K K K K K K Q N N N N N N N N N N N N N N N N N N N N N N N R S K K K K K ",
"K K K K K K K K K K K K K K K K K T N N N N N N N N N N N N N N N N N N N N N N N U K K K K K K ",
"K K K K K K K K K K K K K K K K K V N N N N N N N N N N N N N N N N N N N N N N N V K K K K K K ",
"K K W K K K K K K K K K K K K K K G N N N N N N N N N N N N N N N N N N N N N N N X K K K K K K ",
"l l l l Y l l l l l l l l l l l l l l l l l l l l l l l Z ` O l l l l l l l l l l l l l l l l l ",
"K K K K Y K K K K K K K K K K K K K K K K K K K K K K K O O K K K K K K K K K K K K K K K K K K ",
"K K K K Y K K K K K K K K K K K K K K K K K K K K K K K O K K K K K K K K K K K K K K K K K K K ",
"K K K K 0 K K K K K K K K K K K K K K K K K K K K K K K  .K K K K K K K K K K K K K K K K K K K ",
"K K K K a K K K K K K K K K K K K K K K K K K K K K K K  .K K K K K K K K K K K K K K K K K K K ",
"K K K K O K K K K K K K K K K K K K K K K K K K K K K K O K K K K K K K K K K K K K K K K K K K ",
"........................K ..............................................K ......................",
"+.+.+.+.+.+.+.+.+.+.+.+.@.+.+.+.+.+.+.+.+.+.+.+.+.+.+.+.+.+.+.+.+.+.+.+.@.+.+.+.+.+.+.+.+.+.+.+.",
"+.+.+.+.+.+.+.+.+.+.+.+.#.+.+.+.+.+.+.+.+.+.+.+.+.+.+.+.+.+.+.+.+.+.+.+.#.+.+.+.+.+.+.+.+.+.+.+.",
"+.+.+.+.+.+.+.+.+.+.+.+.#.+.+.+.+.+.+.+.+.+.+.+.+.+.+.+.+.+.+.+.+.+.+.+.#.+.+.+.+.+.+.+.+.+.+.+.",
"$.$.$.$.$.$.$.$.$.$.$.$.#.$.$.$.$.$.$.$.$.$.$.$.$.$.$.$.$.$.$.$.$.$.$.$.#.$.$.$.$.$.$.$.$.$.$.$.",
"%.%.%.%.%.%.%.%.%.%.%.%.#.%.%.%.%.%.%.%.%.%.%.%.%.%.%.%.%.%.%.%.%.%.%.%.#.%.%.%.%.%.%.%.%.%.%.%.",
"%.%.%.%.%.%.%.%.%.%.%.%.| %.%.%.%.%.%.%.%.%.%.%.%.%.%.%.%.%.%.%.%.%.%.%.| %.%.%.%.%.%.%.%.%.%.%.",
"| | | | | | | | | | | | | | | | | | | | | | | | | | | | | | | | | | | | | | | | | | | | | | | | "};
