/* XPM */
static char * haut_gauche_xpm[] = {
"48 48 85 1",
" 	c None",
".	c #5A3B27",
"+	c #868579",
"@	c #624937",
"#	c #675544",
"$	c #94928B",
"%	c #918F88",
"&	c #665444",
"*	c #99978F",
"=	c #929088",
"-	c #6C675E",
";	c #6D685F",
">	c #6C685E",
",	c #5B4231",
"'	c #6B675D",
")	c #6B665D",
"!	c #6A665C",
"~	c #6A655C",
"{	c #6B655D",
"]	c #6A645C",
"^	c #593D2A",
"/	c #69645B",
"(	c #53321E",
"_	c #68635A",
":	c #69635B",
"<	c #68625A",
"[	c #676259",
"}	c #676159",
"|	c #4F2913",
"1	c #5C5247",
"2	c #4F311E",
"3	c #5C5147",
"4	c #5D5247",
"5	c #5D5248",
"6	c #4F3625",
"7	c #543624",
"8	c #5E5146",
"9	c #5D4D41",
"0	c #5F5349",
"a	c #584132",
"b	c #563B2A",
"c	c #553726",
"d	c #553827",
"e	c #76726C",
"f	c #76726B",
"g	c #757068",
"h	c #747068",
"i	c #746F67",
"j	c #736E66",
"k	c #736E67",
"l	c #6C675F",
"m	c #74706A",
"n	c #6D6861",
"o	c #75716B",
"p	c #746F69",
"q	c #533320",
"r	c #533321",
"s	c #726E67",
"t	c #5B483B",
"u	c #573C2D",
"v	c #512D19",
"w	c #512E19",
"x	c #512E1A",
"y	c #543422",
"z	c #5B4435",
"A	c #583E2E",
"B	c #52311E",
"C	c #533220",
"D	c #52301D",
"E	c #52301E",
"F	c #5B4538",
"G	c #53321F",
"H	c #665F58",
"I	c #563C2C",
"J	c #5D4C41",
"K	c #615851",
"L	c #573D2D",
"M	c #5E4F45",
"N	c #5E4F44",
"O	c #543523",
"P	c #655D56",
"Q	c #5C4B3E",
"R	c #60564F",
"S	c #61574F",
"T	c #5A4537",
"............. ..................................",
".++++++++++++@+++++++++++++++++++++++@++++++++++",
".++++++++++++#+++++++++++++++++++++++#++++++++++",
".++$$$$$$$$%%&**$=%%%%%%%%$$$$$$$$***&%%%%%%%%=$",
".++$---;;;>>;,;;;;;;;;;;;;-----;;;>>;,;;;;;;;;;;",
".++$--->>>->>,-->>>>;;;;;;----->>>->>,;;;;;;>>>>",
".++$----''---,---->>>>>>>;))----''---,;>>>>>>>--",
".++$!~~~{{))),)))))))))))'!!!~~~{{))),')))))))))",
".++$~]]]]]]~{^{{{~~~~~~~~~~~~]]]]]]~{^~~~~~~~~~{",
".++$/////////(~]~~~~~~~~~~///////////(~~~~~~~~~~",
".++$_________(__::::::::::::_________(::::::::::",
".++*<__<<<<<<(<__<<[<[[[[[__<__<<<<<<([[[[[<[<<_",
".++*}}}}}}}}}(}}}}}}}}}}}}}}}}}}}}}}}(}}}}}}}}}}",
" @|||||||||||1|||||||||||||||||||||||1||||||||||",
".++*;--){~_<}|1111111111111111123144451111111111",
".++*;--){]__}|1111111111111111121444451111111111",
".++$;>-){~:_}|1111111111111111161144451111111111",
".++=;>-)~~:<}|1111111111111111161144451111111111",
".++%;>>)~~:<}|1111111111111111163144441111111111",
".++%;>>)~~:[}|}}}}}}}}}}}}}}}}}7}}}}}}}}}}}}}}}}",
".++%;;>)~~:<}|88889988000000aabcd000008888998800",
".++%;;>)~~:[}|;;;;99eeeeeffgghiiijjjjjjffk9lllll",
".++%;;>)~~:[}|}}}}9mnnnnnnnnnnnnnnnnnnnnnn9}}}}}",
".++%;;>)~~:[}|}}}}9onnnnnnnnnnnnnnnnnnnnnn9}}}}}",
".++%;;>)~~:[}|}}}}9onnnnnnnnnnnnnnnnnnnnnn9}}}}}",
".++%;;;'~~:[}|}}}}apnnnnnnnnnnnnnnnnnnnnnnq}}}}}",
".++$--)!~/:_}|}}}}rsnnnnnnnnnnnnnnnnnnnnnnq}}}}}",
".++$--)!~/:_}|ttuuvwxycczzzzzzABqqqCDDEvvwFGrrrr",
".++$---!~/_<}|HHHHHHHHHHHHHHHHHIJKKKKKKKKKKKKKKK",
".++$---~]/__}|HHHHHHHHHHHHHHHHHLKKKKKKKKKKKKKKKK",
".++$---~]/__}|HHHHHHHHHHHHHHHHHMKKKKKKKKKKKKKKKK",
".++$;>-~]/_<}|HHHHHHHHHHHHHHHHHNKKKKKKKKKKKKKKKK",
".++$;>'{]/_<}|HHHHHHHHHHHHHHHHHOKKKKKKKKKKKKKKKK",
".++$;>'{]/_<}|HHPHHHHHHHHHHHHHHGKKKKKKKKKKKKKKKK",
".++*>--)]/_<}|llllQlllllllllllllllllllllllRSLlll",
".++*>>-)~/_<}|HHHHQHHHHHHHHHHHHHHHHHHHHHHHLLHHHH",
".++*;>-){/_<}|HHHHQHHHHHHHHHHHHHHHHHHHHHHHLHHHHH",
" @#&,,,,^((((1ttuuvwxycczzzzzzABqqqCDDEvvwFGrrrr",
".++*;--){~_<}|HHHHHHHHHHHHHHHHHIJKKKKKKKKKKKKKKK",
".++*;--){]__}|HHHHHHHHHHHHHHHHHLKKKKKKKKKKKKKKKK",
".++$;>-){~:_}|HHHHHHHHHHHHHHHHHMKKKKKKKKKKKKKKKK",
".++=;>-)~~:<}|HHHHHHHHHHHHHHHHHNKKKKKKKKKKKKKKKK",
".++%;>>)~~:<}|HHHHHHHHHHHHHHHHHOKKKKKKKKKKKKKKKK",
".++%;>>)~~:[}|HHPHHHHHHHHHHHHHHGKKKKKKKKKKKKKKKK",
".++%;;>)~~:<}|llllQlllllllllllllllllllllllRSLlll",
".++%;;>)~~:[}|HHHHQHHHHHHHHHHHHHHHHHHHHHHHLLHHHH",
".++%;;>)~~:[}|HHHHQHHHHHHHHHHHHHHHHHHHHHHHLHHHHH",
".++%;;>)~~:[}|HHHH0HHHHHHHHHHHHHHHHHHHHHHHTHHHHH"};
