/* XPM */
static char * bord_final_xpm[] = {
"48 48 85 1",
" 	c None",
".	c #5A3B27",
"+	c #868579",
"@	c #624937",
"#	c #675544",
"$	c #4F2913",
"%	c #918F88",
"&	c #929088",
"*	c #94928B",
"=	c #99978F",
"-	c #665444",
";	c #6D685F",
">	c #5B4231",
",	c #6C685E",
"'	c #6C675E",
")	c #676159",
"!	c #68625A",
"~	c #68635A",
"{	c #69645B",
"]	c #6A655C",
"^	c #6A665C",
"/	c #6A645C",
"(	c #6B675D",
"_	c #6B665D",
":	c #6B655D",
"<	c #593D2A",
"[	c #53321E",
"}	c #69635B",
"|	c #676259",
"1	c #5C5247",
"2	c #665F58",
"3	c #6C675F",
"4	c #5B483B",
"5	c #5E5146",
"6	c #655D56",
"7	c #573C2D",
"8	c #5F5349",
"9	c #5C4B3E",
"0	c #512D19",
"a	c #533321",
"b	c #584132",
"c	c #5D4D41",
"d	c #512E19",
"e	c #726E67",
"f	c #746F69",
"g	c #75716B",
"h	c #74706A",
"i	c #512E1A",
"j	c #6D6861",
"k	c #76726C",
"l	c #543422",
"m	c #553726",
"n	c #5B4435",
"o	c #76726B",
"p	c #757068",
"q	c #747068",
"r	c #583E2E",
"s	c #746F67",
"t	c #563B2A",
"u	c #53321F",
"v	c #543523",
"w	c #5E4F44",
"x	c #5E4F45",
"y	c #573D2D",
"z	c #563C2C",
"A	c #52311E",
"B	c #543624",
"C	c #4F3625",
"D	c #4F311E",
"E	c #615851",
"F	c #5D4C41",
"G	c #533320",
"H	c #553827",
"I	c #5C5147",
"J	c #736E66",
"K	c #5D5247",
"L	c #533220",
"M	c #52301D",
"N	c #5D5248",
"O	c #52301E",
"P	c #736E67",
"Q	c #5A4537",
"R	c #60564F",
"S	c #5B4538",
"T	c #61574F",
".......... ....................... .............",
"++++++++++@+++++++++++++++++++++++@++++++++++++.",
"++++++++++#+++++++++++++++++++++++$++++++++++++.",
"%%%%%%&*==-===********%%%%%%%%&*==$==********++.",
";;;;;;;;;;>;,,;;;''''';;;;;;;;;;;;$)!~{]^'''*++.",
";;;;,,,,''>,,',,,''''';;;;;;,,,,''$)~~{/]'''*++.",
",,,,,,''''>'''((''''__;,,,,,,,''''$)~~{/]'''*++.",
"__________>___::]]]^^^(___________$)!~{/]',;*++.",
"]]]]]]]:::<:]//////]]]]]]]]]]]]:::$)!~{/:(,;*++.",
"]]]]]]]]/][{{{{{{{{{{{]]]]]]]]]]/]$)!~{/:(,;*++.",
"}}}}}}}}~~[~~~~~~~~~}}}}}}}}}}}}~~$)!~{/_'',*++.",
"|||!|!!~~![!!!!!!~~!~~|||||!|!!~~!$)!~{]_',,%++.",
"))))))))))[)))))))))))))))))))))))$)!~{:_',;%++.",
"$$$$$$$$$$1$$$$$$$$$$$$$$$$$$$$$$$1[[[[<>>>>-#@ ",
"222322222242232222224)))));5)11111$)!~]:_'';=++.",
"222322222242232222224)))));5)11111$)~~/:_'';=++.",
"222362222272236222227)))));5)11111$)~}]:_',;*++.",
"222322222272232222227)))));5)11111$)!}]]_',;&++.",
"899922222209992222220abccccc)11111$)!}]]_,,;%++.",
"2223222222d223222222defgghcc)11111$)|}]]_,,;%++.",
"2223222222i223222222ijjjjjk5)11111$)!}]]_,;;%++.",
"2223222222l223222222ljjjjjk5)11111$)|}]]_,;;%++.",
"2223222222m223222222mjjjjjk8)11111$)|}]]_,;;%++.",
"2223222222m223222222mjjjjjk8)11111$)|}]]_,;;%++.",
"2223222222n223222222njjjjjk8)11111$)|}]]_,;;%++.",
"2223222222n223222222njjjjjo8)11111$)|}]](;;;%++.",
"2223222222n223222222njjjjjo8)11111$)~}{]^_''*++.",
"2223222222n223222222njjjjjp8)11111$)~}{]^_''*++.",
"2223222222n223222222njjjjjpb)11111$)!~{]^'''*++.",
"2223222222n223222222njjjjjqb)11111$)~~{/]'''*++.",
"2223222222r223222222rjjjjjst)11111$)~~{/]'''*++.",
"2223uvwxyzA223uvwxyzAjjjjjsmBCCCDD$)!~{/]',;*++.",
"2223EEEEEFG223EEEEEFGjjjjjsH)I111I$)!~{/:(,;*++.",
"2223EEEEEEG223EEEEEEGjjjjjJ8)111K1$)!~{/:(,;*++.",
"2223EEEEEEG223EEEEEEGjjjjjJ8)KKKKK$)!~{/_'',=++.",
"2223EEEEEEL223EEEEEELjjjjjJ8)KKKKK$)!~{]_',,=++.",
"2223EEEEEEM223EEEEEEMjjjjjJ8)KKKKK$)!~{:_',;=++.",
"2223EEEEEEM223EEEEEEMjjjjjJ8)KNNNN1[[[[<>>>>-#@.",
"2223EEEEEEO223EEEEEEOjjjjjJ5)11111$)|}]](;;;%++.",
"2223EEEEEE0223EEEEEE0jjjjjo5)11111$)|}]]_,;;%++.",
"2223EEEEEE0223EEEEEE0jjjjjo5)11111$)|}]]_,;;%++.",
"2223EEEEEEd223EEEEEEdjjjjjP5)11111$)|}]]_,;;%++.",
"QyyREEEEEESyyREEEEEESGGccccc)11111$)|}]]_,;;%++.",
"22yTEEEEEEu2yTEEEEEEu)))))3c)11111$)!}]]_,;;%++.",
"222yEEEEEEa22yEEEEEEa)))))35)11111$)|}]]_,,;%++.",
"2223EEEEEEa223EEEEEEa)))))35)11111$)!}]]_,,;%++.",
"2223EEEEEEa223EEEEEEa)))))38)11111$)!}]]_',;&++.",
"2223EEEEEEa223EEEEEEa)))))38)11111$)~}]:_',;*++."};
