/* XPM */
static char * wood_box_xpm[] = {
"48 48 370 2",
"  	c #58341A",
". 	c #5B371F",
"+ 	c #5D3921",
"@ 	c #5C381F",
"# 	c #5C371F",
"$ 	c #532C15",
"% 	c #573119",
"& 	c #5B361D",
"* 	c #5F3B22",
"= 	c #603D23",
"- 	c #623F25",
"; 	c #634026",
"> 	c #623E24",
", 	c #563019",
"' 	c #532C14",
") 	c #5A361E",
"! 	c #5A371E",
"~ 	c #5B371E",
"{ 	c #59341C",
"] 	c #9E8F7C",
"^ 	c #958671",
"/ 	c #948470",
"( 	c #5E3B25",
"_ 	c #816747",
": 	c #816646",
"< 	c #816647",
"[ 	c #64432C",
"} 	c #93836D",
"| 	c #93826D",
"1 	c #9D8F7C",
"2 	c #5D3B22",
"3 	c #5A341C",
"4 	c #9E907C",
"5 	c #66462F",
"6 	c #674731",
"7 	c #8A7150",
"8 	c #8A7250",
"9 	c #8B7351",
"0 	c #8C7453",
"a 	c #8E7554",
"b 	c #907756",
"c 	c #8F7755",
"d 	c #8F7655",
"e 	c #8C7352",
"f 	c #876D4D",
"g 	c #836848",
"h 	c #64422B",
"i 	c #5C3920",
"j 	c #5E3A21",
"k 	c #684832",
"l 	c #826847",
"m 	c #6C4E31",
"n 	c #6F5135",
"o 	c #6F5235",
"p 	c #715437",
"q 	c #74583A",
"r 	c #74593A",
"s 	c #755A3B",
"t 	c #725638",
"u 	c #725437",
"v 	c #715337",
"w 	c #705336",
"x 	c #705236",
"y 	c #715436",
"z 	c #826848",
"A 	c #694B33",
"B 	c #5B351D",
"C 	c #907956",
"D 	c #836849",
"E 	c #836949",
"F 	c #583119",
"G 	c #5B361C",
"H 	c #5F3921",
"I 	c #5E3920",
"J 	c #5D391F",
"K 	c #5A351D",
"L 	c #826948",
"M 	c #917957",
"N 	c #59331A",
"O 	c #927C58",
"P 	c #836A49",
"Q 	c #856A4B",
"R 	c #7B6042",
"S 	c #82684A",
"T 	c #816749",
"U 	c #806748",
"V 	c #816748",
"W 	c #816848",
"X 	c #806648",
"Y 	c #7E6445",
"Z 	c #856B4A",
"` 	c #927A58",
" .	c #573118",
"..	c #937C5A",
"+.	c #856B4B",
"@.	c #856C4B",
"#.	c #856B4C",
"$.	c #866B4C",
"%.	c #856C4D",
"&.	c #866C4D",
"*.	c #866D4D",
"=.	c #866D4E",
"-.	c #5B341C",
";.	c #886F4E",
">.	c #937C59",
",.	c #5A351B",
"'.	c #613E23",
").	c #947D5B",
"!.	c #876E4D",
"~.	c #735639",
"{.	c #7C6042",
"].	c #7C6143",
"^.	c #7D6143",
"/.	c #7D6243",
"(.	c #7B6141",
"_.	c #5E381E",
":.	c #89704E",
"<.	c #88704E",
"[.	c #957F5B",
"}.	c #5A361C",
"|.	c #634226",
"1.	c #957D5B",
"2.	c #735738",
"3.	c #7A6041",
"4.	c #7B6041",
"5.	c #7C6142",
"6.	c #8A724F",
"7.	c #97815D",
"8.	c #66452A",
"9.	c #88704F",
"0.	c #896F4F",
"a.	c #59321A",
"b.	c #73573A",
"c.	c #7C6242",
"d.	c #613D22",
"e.	c #8A7251",
"f.	c #98815E",
"g.	c #644228",
"h.	c #947D5A",
"i.	c #897150",
"j.	c #755739",
"k.	c #634126",
"l.	c #8B7352",
"m.	c #98835E",
"n.	c #5B371D",
"o.	c #613F24",
"p.	c #96815C",
"q.	c #8B7250",
"r.	c #7B5E40",
"s.	c #866B4B",
"t.	c #876D4C",
"u.	c #866C4B",
"v.	c #644026",
"w.	c #8C7452",
"x.	c #5D381E",
"y.	c #846A4B",
"z.	c #866C4C",
"A.	c #876C4D",
"B.	c #623E23",
"C.	c #5C371D",
"D.	c #613E24",
"E.	c #97825E",
"F.	c #886E4D",
"G.	c #876C4C",
"H.	c #633F24",
"I.	c #98825E",
"J.	c #5C361C",
"K.	c #5F3B21",
"L.	c #96805C",
"M.	c #8C7351",
"N.	c #5A331A",
"O.	c #886F4F",
"P.	c #89704F",
"Q.	c #8A704F",
"R.	c #8B7251",
"S.	c #613E22",
"T.	c #8D7553",
"U.	c #5B331B",
"V.	c #967F5C",
"W.	c #715134",
"X.	c #7C6041",
"Y.	c #7D6343",
"Z.	c #7C6141",
"`.	c #7B5F40",
" +	c #623E22",
".+	c #573016",
"++	c #552F16",
"@+	c #947E5A",
"#+	c #7C6243",
"$+	c #7B6040",
"%+	c #633E24",
"&+	c #572F16",
"*+	c #5C351D",
"=+	c #5F3A1F",
"-+	c #664227",
";+	c #68452A",
">+	c #69462B",
",+	c #6B482D",
"'+	c #6A482C",
")+	c #664328",
"!+	c #654127",
"~+	c #613C23",
"{+	c #603B21",
"]+	c #694A33",
"^+	c #5B341B",
"/+	c #978976",
"(+	c #684932",
"_+	c #674831",
":+	c #8D7452",
"<+	c #8E7553",
"[+	c #8E7653",
"}+	c #6A4A33",
"|+	c #998B77",
"1+	c #57321A",
"2+	c #9A9182",
"3+	c #9B9183",
"4+	c #9B9283",
"5+	c #66442B",
"6+	c #957E5C",
"7+	c #967E5C",
"8+	c #9D9283",
"9+	c #562F16",
"0+	c #776753",
"a+	c #776752",
"b+	c #786752",
"c+	c #552E15",
"d+	c #7B6140",
"e+	c #7D6241",
"f+	c #7F6442",
"g+	c #7E6443",
"h+	c #7F6444",
"i+	c #806444",
"j+	c #806544",
"k+	c #806543",
"l+	c #816644",
"m+	c #7C6C57",
"n+	c #7D6E5A",
"o+	c #7C6E59",
"p+	c #57311A",
"q+	c #73604B",
"r+	c #725F4A",
"s+	c #542D15",
"t+	c #7A5E3E",
"u+	c #7E6242",
"v+	c #7E6444",
"w+	c #7F6443",
"x+	c #816544",
"y+	c #7F6544",
"z+	c #75644E",
"A+	c #552E16",
"B+	c #69503B",
"C+	c #765B3C",
"D+	c #5A321A",
"E+	c #5A331B",
"F+	c #705A45",
"G+	c #522C14",
"H+	c #745A3A",
"I+	c #573019",
"J+	c #674B2E",
"K+	c #664B2E",
"L+	c #664A2D",
"M+	c #644528",
"N+	c #644427",
"O+	c #65462B",
"P+	c #65472A",
"Q+	c #66492C",
"R+	c #694B2E",
"S+	c #684B2E",
"T+	c #65482B",
"U+	c #7B603F",
"V+	c #522B14",
"W+	c #735939",
"X+	c #6F5335",
"Y+	c #694C2F",
"Z+	c #694D30",
"`+	c #694D2F",
" @	c #715537",
".@	c #715638",
"+@	c #6A4D30",
"@@	c #684C2F",
"#@	c #785D3D",
"$@	c #715738",
"%@	c #725738",
"&@	c #725838",
"*@	c #563018",
"=@	c #654A2D",
"-@	c #705335",
";@	c #684C2E",
">@	c #684D2F",
",@	c #705536",
"'@	c #765C3B",
")@	c #755A39",
"!@	c #745A39",
"~@	c #512B14",
"{@	c #705636",
"]@	c #715637",
"^@	c #562F18",
"/@	c #6F5435",
"(@	c #674C2E",
"_@	c #705436",
":@	c #715536",
"<@	c #735839",
"[@	c #512A14",
"}@	c #6F5535",
"|@	c #552F18",
"1@	c #64492C",
"2@	c #6E5334",
"3@	c #674C2F",
"4@	c #705537",
"5@	c #502A14",
"6@	c #6E5435",
"7@	c #6E5434",
"8@	c #552E18",
"9@	c #664B2D",
"0@	c #6F5434",
"a@	c #502A13",
"b@	c #6C5233",
"c@	c #6C5133",
"d@	c #6B5132",
"e@	c #542E18",
"f@	c #64492D",
"g@	c #6D5234",
"h@	c #532C16",
"i@	c #6D5233",
"j@	c #6B5032",
"k@	c #522C15",
"l@	c #664A2E",
"m@	c #705437",
"n@	c #6F5336",
"o@	c #6F5436",
"p@	c #522C16",
"q@	c #6A5030",
"r@	c #6A4F30",
"s@	c #6E5336",
"t@	c #6E5235",
"u@	c #6D5134",
"v@	c #654A2C",
"w@	c #6B5131",
"x@	c #6C5131",
"y@	c #502913",
"z@	c #4F2913",
"A@	c #694F30",
"B@	c #522B15",
"C@	c #6D5133",
"D@	c #64482B",
"E@	c #65492C",
"F@	c #64492B",
"G@	c #64482C",
"H@	c #65482C",
"I@	c #6B5031",
"J@	c #6A4F31",
"K@	c #66492D",
"L@	c #6B4F32",
"M@	c #63472B",
"N@	c #63482C",
"O@	c #62472B",
"P@	c #512B15",
"Q@	c #532D17",
"R@	c #6A5031",
"S@	c #7A6A58",
"T@	c #775E3F",
"U@	c #785F40",
"V@	c #795F40",
"W@	c #7A6142",
"X@	c #7B6243",
"Y@	c #7C6344",
"Z@	c #796041",
"`@	c #765D3E",
" #	c #785E3F",
".#	c #6D5A46",
"    . . + @ @ # # $ $ % % & & * = = - - - - ; ; ; ; ; ; - - - > > * * , , ' ' ) ! ! . . ~ ~ + + ",
"{ { ] ] ^ / / ( ( _ _ : : : : : : : < < < < < < : : < < < : : < < < < : : : : [ } } | | 1 1 2 2 ",
"3 3 4 4 5 6 6 7 7 8 8 8 8 9 9 0 a a a a b b b b b b b b b b b c c d d e e f f g [ [ h h ] ] i i ",
"3 3 4 4 5 6 6 7 7 8 8 8 8 9 9 0 a a a a b b b b b b b b b b b c c d d e e f f g [ [ h h ] ] i i ",
"j j k k l l l m m n n n n o o p q q r r s s s s s s q q t u u v v v v w w x x y z z z z A A { { ",
"B B C C D E E % % % % % % F F G H H I I * * * * * * @ @ @ # # J J # # K K F F F L L L L M M N N ",
"j j O O P Q Q % % R R S S T T U V V V V W W V V T T V V X X X T T X X X X Y Y F Z Z Z Z ` `  . .",
"= = ....+.@.@.F F R R #.#.#.#.$.$.$.%.%.%.%.&.&.&.&.&.&.&.&.&.*.*.=.=.&.&.&.&.-.;.;.;.;.>.>.,.,.",
"'.'.).).!.!.!.F F ~.~.{.{.].].].].].^.^.^.^.^.^././.(.(.(.(.(.(.(.(.(.(.(.(.(._.:.:.<.<.[.[.}.}.",
"'.'.).).!.!.!.F F ~.~.{.{.].].].].].^.^.^.^.^.^././.(.(.(.(.(.(.(.(.(.(.(.(.(._.:.:.<.<.[.[.}.}.",
"|.|.1.1.;.;.;.F F 2.2.3.3.3.3.4.4.4.(.(.5.5.5.5.5.5.5.5.5.5.5.5.5.5.5.5.5.5.5.I 6.6.6.6.7.7.}.}.",
"8.8.).).9.0.0.a.a.b.b.3.3.4.4.(.5.5.5.5.5.5.5.5.c.c.c.c.c.5.5.5.5.5.5.5.5.5.5.d.9 9 e.e.f.f.J J ",
"g.g.h.h.i.i.i.a.a.j.j.4.4.(.(.5.5.5.5.5.c.c.c.c.c.c.c.c.c.c.c.c.c.c.c.5.5.5.5.k.l.l.l.l.m.m.n.n.",
"o.o.p.p.8 q.q.a.a.r.r.Z Z +.+.s.s.s.t.t.t.t.t.t.t.t.t.t.t.t.t.u.u.u.u.u.u.s.s.v.w.w.w.w.m.m.x.x.",
"o.o.p.p.8 q.q.a.a.r.r.Z Z +.+.s.s.s.t.t.t.t.t.t.t.t.t.t.t.t.t.u.u.u.u.u.u.s.s.v.w.w.w.w.m.m.x.x.",
"o.o.m.m.8 9 9 a.a.r.r.y.y.y.y.s.z.z.t.t.t.t.t.t.f f A.A.A.t.t.z.z.u.u.u.u.u.u.B.w.w.w.w.m.m.C.C.",
"D.D.E.E.e.l.l.N N r.r.y.y.s.s.$.z.z.t.t.f f t.t.F.F.F.F.F.t.t.G.G.u.u.u.u.u.u.H.w.w.w.w.I.I.J.J.",
"K.K.L.L.M.w.w.N.N.r.r.O.O.O.O.0.P.P.P.P.P.P.P.P.P.P.P.P.P.P.P.P.P.P.P.Q.Q.R.R.S.T.T.T.T.7.7.U.U.",
",.,.V.V.M.w.w.N.N.W.W.X.X.X.X.{.Y.Y././././.Y.Y.Y.Y.Y.Y.Y.5.5.5.5.4.4.Z.Z.`.`. +T.T.T.T.L.L..+.+",
",.,.V.V.M.w.w.N.N.W.W.X.X.X.X.{.Y.Y././././.Y.Y.Y.Y.Y.Y.Y.5.5.5.5.4.4.Z.Z.`.`. +T.T.T.T.L.L..+.+",
"++++@+@+M.w.w.N.N.W.W.X.X.{.{.{.Y.Y.Y.Y.Y.Y.Y.Y.Y.Y.Y.Y.#+5.5.(.(.$+$+$+$+`.`.%+T.T.T.T.V.V.&+&+",
"C.C.[ [ M.w.w.N.N.N.N.*+*+=+=+H.v.v.-+-+;+;+>+>+>+>+,+,+'+>+>+)+)+!+!+v.v.~+~+{+T.T.T.T.]+]+^+^+",
"C.C./+/+(+_+_+w.w.:+:+T.T.T.T.T.<+<+<+<+<+<+<+<+[+[+[+[+[+[+[+[+[+[+[+<+<+<+<+<+}+}+}+}+|+|+&+&+",
"1+1+2+2+3+4+4+5+5+).).).).6+6+6+6+6+6+6+6+6+6+6+6+6+6+6+7+6+6+7+7+7+7+6+6+6+6+}+8+8+8+8+8+8+9+9+",
"1+1+0+0+a+b+b+c+c+d+d+e+e+f+f+g+h+h+i+i+j+j+j+j+j+j+j+j+j+j+j+j+j+k+k+l+l+j+j+&+m+m+n+n+o+o+9+9+",
"1+1+0+0+a+b+b+c+c+d+d+e+e+f+f+g+h+h+i+i+j+j+j+j+j+j+j+j+j+j+j+j+j+k+k+l+l+j+j+&+m+m+n+n+o+o+9+9+",
"p+p+q+q+r+s+s+t+t+$+$+Z.Z.u+u+f+g+g+v+v+i+i+i+i+i+i+i+i+j+i+i+j+j+w+w+j+j+x+x+y+9+9+z+z+z+z+A+A+",
"' ' B+B+$ C+C+F F F F a.a.a.a.a.D+D+N.N.E+E+E+E+E+E+E+E+E+E+E+E+E+E+E+E+E+E+E+N.f+f+A+A+F+F+c+c+",
"G+G+' ' H+H+H+I+I+J+J+K+K+L+L+M+N+N+O+O+P+P+Q+Q+R+R+R+R+S+R+R+S+S+T+T+T+T+T+T+a.4.4.U+U+s+s+s+s+",
"V+V+W+W+W+W+W+I+I+L+L+X+X+X+X+S+Y+Y+Y+Y+Z+Z+`+`+ @ @.@.@t t t t t +@+@Z+Z+@@@@F #@#@#@#@#@#@$ $ ",
"V+V+W+W+W+W+W+I+I+L+L+X+X+X+X+S+Y+Y+Y+Y+Z+Z+`+`+ @ @.@.@t t t t t +@+@Z+Z+@@@@F #@#@#@#@#@#@$ $ ",
"V+V+$@$@%@&@&@*@*@=@=@-@-@-@-@;@>@>@>@>@>@>@`+`+ @ @ @ @ @ @ @,@,@>@>@>@>@>@>@% '@'@)@)@!@!@V+V+",
"~@~@{@{@]@.@.@^@^@=@=@/@/@/@/@>@>@>@(@(@;@;@;@;@_@_@ @ @ @:@:@:@:@`+`+`+`+>@>@, <@<@2.2.&@&@V+V+",
"[@[@}@}@}@,@,@|@|@1@1@2@2@X+X+3@J+J+J+J+J+J+>@>@,@,@ @ @t ,@,@]@]@>@>@>@>@@@@@^@4@4@,@,@{@{@~@~@",
"5@5@6@6@7@6@6@8@8@1@1@2@2@2@2@(@9@9@9@9@9@9@(@(@]@]@_@_@,@/@/@,@,@(@(@(@(@(@(@|@0@0@/@/@/@/@[@[@",
"5@5@6@6@7@6@6@8@8@1@1@2@2@2@2@(@9@9@9@9@9@9@(@(@]@]@_@_@,@/@/@,@,@(@(@(@(@(@(@|@0@0@/@/@/@/@[@[@",
"a@a@b@b@c@d@d@e@e@f@f@g@g@o o J+=@=@L+L+9@9@J+J+]@]@]@]@_@/@/@_@_@J+J+J+J+K+K+h@i@i@b@b@g@g@a@a@",
"a@a@j@j@j@d@d@k@k@f@f@g@g@g@g@l@=@=@=@=@=@=@K+K+m@m@n@n@n@o@o@o@o@K+K+K+K+K+K+p@c@c@c@c@c@c@a@a@",
"a@a@q@q@r@q@q@k@k@f@f@i@i@i@i@=@=@=@=@=@=@=@=@=@s@s@t@t@t@t@t@u@u@=@=@v@v@=@=@~@w@w@w@w@x@x@y@y@",
"z@z@A@A@q@r@r@B@B@1@1@c@c@C@C@D@E@E@E@E@v@v@F@F@u@u@C@C@u@C@C@C@C@F@F@G@G@H@H@~@I@I@J@J@J@J@z@z@",
"z@z@A@A@A@A@A@5@5@K@K@L@L@j@j@M@G@G@N@N@G@G@O@O@Z+Z+L@L@L@L@L@L@L@O@O@M@M@M@M@[@J@J@J@J@J@J@z@z@",
"z@z@A@A@A@A@A@5@5@K@K@L@L@j@j@M@G@G@N@N@G@G@O@O@Z+Z+L@L@L@L@L@L@L@O@O@M@M@M@M@[@J@J@J@J@J@J@z@z@",
"z@z@z@z@A@A@A@5@5@P@P@P@P@p@p@Q@Q@Q@Q@Q@Q@Q@Q@Q@Q@Q@Q@Q@Q@Q@Q@Q@Q@P@P@5@5@p@p@p@R@R@J@J@z@z@z@z@",
"z@z@S@S@z@A@A@T@T@T@T@U@U@V@V@W@X@X@X@X@Y@Y@Y@Y@Y@Y@Y@Y@Y@W@W@W@W@W@W@Z@Z@`@`@ #R@R@z@z@S@S@z@z@",
"z@z@.#.#S@z@z@A@A@A@A@A@A@A@A@A@A@A@A@A@A@A@A@A@J@J@J@J@J@J@J@R@R@R@R@R@R@R@R@R@z@z@S@S@.#.#z@z@",
"z@z@.#.#.#S@S@z@z@A@A@A@A@A@A@A@A@A@A@A@A@A@A@A@J@J@J@J@J@J@J@R@R@R@R@R@R@R@R@z@S@S@.#.#.#.#z@z@",
"z@z@.#.#.#S@S@z@z@A@A@A@A@A@A@A@A@A@A@A@A@A@A@A@J@J@J@J@J@J@J@R@R@R@R@R@R@R@R@z@S@S@.#.#.#.#z@z@",
"z@z@z@z@z@z@z@z@z@z@z@z@z@z@z@z@z@z@z@z@z@z@z@z@z@z@z@z@z@z@z@z@z@z@z@z@z@z@z@z@z@z@z@z@z@z@z@z@"};
