/* XPM */
static char * wood_big_box_xpm[] = {
"48 48 584 2",
"  	c #58331A",
". 	c #5B361E",
"+ 	c #5D3920",
"@ 	c #5C381E",
"# 	c #5C371E",
"$ 	c #5D391F",
"% 	c #603C23",
"& 	c #603E24",
"* 	c #624025",
"= 	c #644227",
"- 	c #654328",
"; 	c #654327",
"> 	c #634126",
", 	c #634026",
"' 	c #634025",
") 	c #614025",
"! 	c #603E23",
"~ 	c #603D23",
"{ 	c #5F3C21",
"] 	c #5E391F",
"^ 	c #5B361D",
"/ 	c #5B371D",
"( 	c #5B371E",
"_ 	c #5D3921",
": 	c #59341B",
"< 	c #9D8F7B",
"[ 	c #958570",
"} 	c #94846F",
"| 	c #5E3B25",
"1 	c #876E4D",
"2 	c #866E4C",
"3 	c #856C4B",
"4 	c #846C4A",
"5 	c #846B4A",
"6 	c #836B4A",
"7 	c #836A4A",
"8 	c #64432C",
"9 	c #93836C",
"0 	c #93826C",
"a 	c #9E8F7B",
"b 	c #5D3B21",
"c 	c #5A341B",
"d 	c #66462F",
"e 	c #674831",
"f 	c #876F4D",
"g 	c #8B7350",
"h 	c #8C734F",
"i 	c #8E7652",
"j 	c #907854",
"k 	c #907954",
"l 	c #927A56",
"m 	c #937B57",
"n 	c #937B58",
"o 	c #947D59",
"p 	c #947D58",
"q 	c #937C57",
"r 	c #927B57",
"s 	c #907955",
"t 	c #907855",
"u 	c #8F7854",
"v 	c #8C7551",
"w 	c #8A714F",
"x 	c #64442C",
"y 	c #64422B",
"z 	c #5C371D",
"A 	c #684832",
"B 	c #816646",
"C 	c #816845",
"D 	c #583119",
"E 	c #593219",
"F 	c #6F5032",
"G 	c #705234",
"H 	c #735637",
"I 	c #76583A",
"J 	c #775A3B",
"K 	c #785B3C",
"L 	c #7A5D3E",
"M 	c #76593A",
"N 	c #755738",
"O 	c #745637",
"P 	c #715233",
"Q 	c #6D4D2F",
"R 	c #593119",
"S 	c #7E6444",
"T 	c #806545",
"U 	c #694B33",
"V 	c #947D5A",
"W 	c #816746",
"X 	c #826845",
"Y 	c #7A5F40",
"Z 	c #7D6242",
"` 	c #7D6243",
" .	c #7E6344",
"..	c #5A3319",
"+.	c #5A3219",
"@.	c #7E6342",
"#.	c #7D6141",
"$.	c #7B5F3F",
"%.	c #76593B",
"&.	c #816645",
"*.	c #5C381F",
"=.	c #603D22",
"-.	c #947E5A",
";.	c #856B49",
">.	c #866D4D",
",.	c #806444",
"'.	c #7E6040",
").	c #7F6141",
"!.	c #806241",
"~.	c #806242",
"{.	c #816243",
"].	c #806343",
"^.	c #806342",
"/.	c #7E6142",
"(.	c #7E6041",
"_.	c #633F25",
":.	c #806544",
"<.	c #7F6543",
"[.	c #7D6442",
"}.	c #846947",
"|.	c #826846",
"1.	c #613E23",
"2.	c #866C49",
"3.	c #866D4A",
"4.	c #5C341B",
"5.	c #876D4E",
"6.	c #866C4C",
"7.	c #7F6443",
"8.	c #846A49",
"9.	c #644026",
"0.	c #836645",
"a.	c #846746",
"b.	c #816443",
"c.	c #68482D",
"d.	c #886F4D",
"e.	c #866D4B",
"f.	c #846948",
"g.	c #886F4F",
"h.	c #5B341B",
"i.	c #5C351C",
"j.	c #846A48",
"k.	c #603C22",
"l.	c #947F5B",
"m.	c #866C4A",
"n.	c #876E4B",
"o.	c #725335",
"p.	c #5C351B",
"q.	c #5D351B",
"r.	c #8E7454",
"s.	c #856B4A",
"t.	c #856C4A",
"u.	c #623E24",
"v.	c #765A3A",
"w.	c #7B603F",
"x.	c #69482D",
"y.	c #896F4D",
"z.	c #89704D",
"A.	c #846B49",
"B.	c #8F7956",
"C.	c #785A3C",
"D.	c #603A20",
"E.	c #856B48",
"F.	c #846A47",
"G.	c #917A56",
"H.	c #623F24",
"I.	c #947F5A",
"J.	c #866E4A",
"K.	c #613B20",
"L.	c #745636",
"M.	c #7B5F3D",
"N.	c #7B5F3E",
"O.	c #927B59",
"P.	c #89704E",
"Q.	c #68472C",
"R.	c #7C6140",
"S.	c #8A704D",
"T.	c #8B714E",
"U.	c #8A714E",
"V.	c #917A57",
"W.	c #795C3D",
"X.	c #623D22",
"Y.	c #876F4B",
"Z.	c #876D4A",
"`.	c #613D23",
" +	c #957F5A",
".+	c #88704C",
"++	c #886F4C",
"@+	c #643F24",
"#+	c #765938",
"$+	c #7C613F",
"%+	c #7E6241",
"&+	c #7E6242",
"*+	c #5D361B",
"=+	c #957E5B",
"-+	c #8C7350",
";+	c #886E4B",
">+	c #927C59",
",+	c #7A5E3E",
"'+	c #795D3D",
")+	c #623E23",
"!+	c #8A724F",
"~+	c #623F23",
"{+	c #8B724F",
"]+	c #654126",
"^+	c #866A48",
"/+	c #886C4B",
"(+	c #886C4A",
"_+	c #896C4B",
":+	c #5D361C",
"<+	c #998360",
"[+	c #8D7451",
"}+	c #6C4A2E",
"|+	c #886E4C",
"1+	c #98835F",
"2+	c #866A4A",
"3+	c #654025",
"4+	c #8B724E",
"5+	c #8A724E",
"6+	c #8B714F",
"7+	c #644024",
"8+	c #7F6240",
"9+	c #896D4B",
"0+	c #97825E",
"a+	c #8D7551",
"b+	c #6C4A2F",
"c+	c #896E4B",
"d+	c #866B4A",
"e+	c #856949",
"f+	c #664026",
"g+	c #96805C",
"h+	c #634024",
"i+	c #654227",
"j+	c #957F59",
"k+	c #633E23",
"l+	c #7F6140",
"m+	c #876B49",
"n+	c #8A6E4C",
"o+	c #8A6E4D",
"p+	c #876D4B",
"q+	c #674227",
"r+	c #8C7451",
"s+	c #97815D",
"t+	c #644226",
"u+	c #957E59",
"v+	c #8D7351",
"w+	c #613C22",
"x+	c #7F6241",
"y+	c #886D4A",
"z+	c #69492D",
"A+	c #97825D",
"B+	c #705033",
"C+	c #896E4D",
"D+	c #886D4C",
"E+	c #876B4B",
"F+	c #8C7351",
"G+	c #99845F",
"H+	c #8D7452",
"I+	c #613C20",
"J+	c #795C3C",
"K+	c #795D3C",
"L+	c #998461",
"M+	c #7B5F40",
"N+	c #7A5E3F",
"O+	c #623C22",
"P+	c #998561",
"Q+	c #633E24",
"R+	c #8E7451",
"S+	c #8E7552",
"T+	c #5F391E",
"U+	c #725334",
"V+	c #896F4C",
"W+	c #7F6442",
"X+	c #998460",
"Y+	c #866E4B",
"Z+	c #866C4B",
"`+	c #866B4B",
" @	c #613A20",
".@	c #9A8762",
"+@	c #8F7551",
"@@	c #8E7551",
"#@	c #5D351C",
"$@	c #725233",
"%@	c #775939",
"&@	c #866B49",
"*@	c #99835E",
"=@	c #806646",
"-@	c #5E381E",
";@	c #988460",
">@	c #5A331A",
",@	c #603C21",
"'@	c #856A49",
")@	c #7B6040",
"!@	c #927956",
"~@	c #806645",
"{@	c #613E24",
"]@	c #5C361D",
"^@	c #988360",
"/@	c #5F3B21",
"(@	c #5F3B20",
"_@	c #7A5B3C",
":@	c #836847",
"<@	c #846848",
"[@	c #846748",
"}@	c #8C7452",
"|@	c #7C6241",
"1@	c #97825F",
"2@	c #5B361C",
"3@	c #7A5D3D",
"4@	c #836746",
"5@	c #7C5F3F",
"6@	c #8B7251",
"7@	c #7D6241",
"8@	c #7C6141",
"9@	c #7A5F3F",
"0@	c #8B7250",
"a@	c #5A351C",
"b@	c #63422B",
"c@	c #5E371E",
"d@	c #5F391F",
"e@	c #5F3A1F",
"f@	c #623B21",
"g@	c #633D22",
"h@	c #653F24",
"i@	c #613A21",
"j@	c #59321A",
"k@	c #8C7250",
"l@	c #664630",
"m@	c #573118",
"n@	c #5A361C",
"o@	c #968874",
"p@	c #8D744F",
"q@	c #8F7651",
"r@	c #907752",
"s@	c #917752",
"t@	c #907651",
"u@	c #8E744F",
"v@	c #8C714D",
"w@	c #8A704C",
"x@	c #886E4A",
"y@	c #866B48",
"z@	c #856947",
"A@	c #532C14",
"B@	c #563019",
"C@	c #999081",
"D@	c #9A9081",
"E@	c #64422A",
"F@	c #95805B",
"G@	c #96815D",
"H@	c #98825D",
"I@	c #98825E",
"J@	c #98835E",
"K@	c #98845E",
"L@	c #9B8560",
"M@	c #9B8661",
"N@	c #9C8761",
"O@	c #9D8862",
"P@	c #9D8762",
"Q@	c #9A8460",
"R@	c #957E5A",
"S@	c #937C58",
"T@	c #9A8F80",
"U@	c #998F80",
"V@	c #522B14",
"W@	c #553019",
"X@	c #756651",
"Y@	c #766550",
"Z@	c #795E3D",
"`@	c #7A5E3D",
" #	c #806644",
".#	c #816644",
"+#	c #826644",
"@#	c #826745",
"##	c #826946",
"$#	c #786853",
"%#	c #7A6A56",
"&#	c #796A55",
"*#	c #715F4A",
"=#	c #705D48",
"-#	c #785C3B",
";#	c #7F6544",
">#	c #826645",
",#	c #826746",
"'#	c #816745",
")#	c #806643",
"!#	c #7E6341",
"~#	c #72604B",
"{#	c #71604B",
"]#	c #512B14",
"^#	c #512A13",
"/#	c #674F3A",
"(#	c #785D3C",
"_#	c #7F6644",
":#	c #826744",
"<#	c #816744",
"[#	c #816544",
"}#	c #7F6342",
"|#	c #7D6341",
"1#	c #6C5742",
"2#	c #502A13",
"3#	c #562F18",
"4#	c #553017",
"5#	c #552F17",
"6#	c #563018",
"7#	c #563118",
"8#	c #573219",
"9#	c #573119",
"0#	c #542E16",
"a#	c #7C6341",
"b#	c #785D3D",
"c#	c #6D5032",
"d#	c #6D5033",
"e#	c #6E5134",
"f#	c #705335",
"g#	c #796041",
"h#	c #624328",
"i#	c #634428",
"j#	c #6C4F32",
"k#	c #6B4D31",
"l#	c #6C4E32",
"m#	c #6D5034",
"n#	c #6E4F33",
"o#	c #6C5034",
"p#	c #66482C",
"q#	c #65472B",
"r#	c #785F3F",
"s#	c #694D2F",
"t#	c #684B2D",
"u#	c #795F3F",
"v#	c #6F5134",
"w#	c #705235",
"x#	c #705536",
"y#	c #725637",
"z#	c #7A6042",
"A#	c #64462B",
"B#	c #6C5033",
"C#	c #6B4E33",
"D#	c #6C4F34",
"E#	c #6D5133",
"F#	c #6E5235",
"G#	c #664A2D",
"H#	c #705435",
"I#	c #694C2F",
"J#	c #795F3E",
"K#	c #694D32",
"L#	c #715537",
"M#	c #725638",
"N#	c #735739",
"O#	c #796042",
"P#	c #6E5234",
"Q#	c #6F5235",
"R#	c #6E5236",
"S#	c #775E3F",
"T#	c #6F5435",
"U#	c #6E5135",
"V#	c #67492D",
"W#	c #785E3D",
"X#	c #785E3C",
"Y#	c #775D3C",
"Z#	c #502913",
"`#	c #785C3C",
" $	c #65482D",
".$	c #725739",
"+$	c #73583A",
"@$	c #74593A",
"#$	c #7D6445",
"$$	c #7F6646",
"%$	c #6D5235",
"&$	c #6F5336",
"*$	c #7A6142",
"=$	c #634529",
"-$	c #6B4E32",
";$	c #775D3B",
">$	c #775C3B",
",$	c #755A3B",
"'$	c #4F2913",
")$	c #765C3B",
"!$	c #765B3B",
"~$	c #735839",
"{$	c #745939",
"]$	c #755A3A",
"^$	c #816949",
"/$	c #705535",
"($	c #65482B",
"_$	c #63472B",
":$	c #6B4F32",
"<$	c #735939",
"[$	c #6D5134",
"}$	c #674A2E",
"|$	c #674A2D",
"1$	c #664B2D",
"2$	c #816848",
"3$	c #5F3F27",
"4$	c #664A2C",
"5$	c #64472C",
"6$	c #6B4F33",
"7$	c #725838",
"8$	c #725738",
"9$	c #67492E",
"0$	c #664B2F",
"a$	c #684C2F",
"b$	c #694D30",
"c$	c #82694A",
"d$	c #826A4A",
"e$	c #684C30",
"f$	c #684D2F",
"g$	c #66492E",
"h$	c #65472C",
"i$	c #715636",
"j$	c #735938",
"k$	c #65492D",
"l$	c #674B2F",
"m$	c #7F6747",
"n$	c #5E3E27",
"o$	c #7E6647",
"p$	c #705636",
"q$	c #725837",
"r$	c #715737",
"s$	c #64482C",
"t$	c #654A2D",
"u$	c #796142",
"v$	c #715637",
"w$	c #715638",
"x$	c #7E6547",
"y$	c #7D6547",
"z$	c #65482C",
"A$	c #6E5434",
"B$	c #715736",
"C$	c #674B30",
"D$	c #6A4D31",
"E$	c #63462B",
"F$	c #775D3E",
"G$	c #6F5436",
"H$	c #705537",
"I$	c #674A2F",
"J$	c #755C3E",
"K$	c #6E5335",
"L$	c #6A4E32",
"M$	c #694D31",
"N$	c #6A4D30",
"O$	c #6C5232",
"P$	c #6B5131",
"Q$	c #715738",
"R$	c #6B5031",
"S$	c #6E5334",
"T$	c #694C30",
"U$	c #674B2E",
"V$	c #614429",
"W$	c #715538",
"X$	c #705437",
"Y$	c #7D6446",
"Z$	c #6D5333",
"`$	c #6D5233",
" %	c #6F5538",
".%	c #6F5437",
"+%	c #614329",
"@%	c #624429",
"#%	c #684B2F",
"$%	c #5F4327",
"%%	c #5F4227",
"&%	c #6A4C30",
"*%	c #786043",
"=%	c #6D5332",
"-%	c #62442A",
";%	c #624329",
">%	c #684A2E",
",%	c #5E4026",
"'%	c #4C2713",
")%	c #776553",
"!%	c #755C3D",
"~%	c #7C6243",
"{%	c #7F6546",
"]%	c #806647",
"^%	c #816849",
"/%	c #7F6647",
"(%	c #7E6445",
"_%	c #806748",
":%	c #7E6546",
"<%	c #7B6243",
"[%	c #7A6A58",
"}%	c #6D5A46",
"|%	c #694F30",
"1%	c #6A4F30",
"2%	c #6A5030",
"3%	c #766452",
"  . . + @ @ # $ $ % & & * * * * = = - ; ; - = = > , , , , , ' * * ) ! ! ~ { { ] ^ ^ / ( ( . _ _ ",
": < < [ } } | 1 1 2 3 3 4 5 5 5 5 5 5 5 5 5 5 5 5 5 5 5 5 5 6 6 6 6 6 6 6 7 7 7 8 8 9 0 0 a b b ",
"c a a d e e f g g h i i j k k l m m m n n o p p p q q q q q r s s s t t u v v w w w x y y a $ $ ",
"z A A B C C D E E E E E E F F G H H I J J J K K L K K M N N O P P Q E E R D D D D D S T T U $ $ ",
"] V V W X X E Y Y Z ` `  .............................+.+.+.+.E E E @.@.#.$.$.%.D D &.&.&.s *.*.",
"=.-.-.;.;.;.E >.>. .` ` ` ,.,.] '.'.).!.!.~.{.{.].^.^.~././.(._._.&.:.:.<.[.[.3 E E }.|.|.u ] ] ",
"1.-.-.2.3.3.E 4.4.5.6.6.7.8.8.8.9.9.0.a.a.a.a.a.a.0.0.0.b.b.c.d.d.e.f.f.g.f f h.i.i.j.}.}.u k.k.",
"1.l.l.m.n.n.4.o.o.p.q.q.r.s.s.8.t.t.u._._.v.L L $.w.w.x.c.c.y.z.z.A.B.B.4.h.h.C.D.D.E.F.F.G.k.k.",
"H.I.I.J.n.n.K.L.L.M.N.N.q.O.O.s.t.t.P.w w Q.R.R.#.x.x.S.T.T.U.t.t.V.p.p.J W.W.W.X.X.Y.Z.Z.r `.`.",
"H. + +.+++++@+#+#+$+%+%+&+*+*+=+t.t.U.-+-+h 9.9.9.;+;+S.T.T.U.>+>+p.,+,+'+W.W.C.)+)+!+.+.+r ~+~+",
"H. + +!+{+{+]+!.!.^+/+/+(+_+_+:+<+<+{+-+-+-+-+-+[+}+}+|+U.U.1+q.q.2+2+2+2+2+2+2+3+3+4+5+5+-.~+~+",
"H. + +!+6+6+7+8+8+^+/+/+/+9+9+/+:+:+1+0+0+a+-+-+-+h h b+1+1+q.c+c+d+e+e+2+2+2+2+f+f+{+!+!+g+h+h+",
"i+j+j+!+{+{+k+l+l+m+/+/+/+/+/+/+_+_+*+*+*+g+[+[+h -+-+-+q.q.n+o+o+p+2+2+2+2+2+2+q+q+r+5+5+s+h+h+",
"t+u+u+v+[+[+w+x+x+m+/+/+/+/+/+y+z+z+S.U.U.*+1+1+A+-+-+{+z.z.B+C+C+D+E+E+2+2+2+2+q+q+[+F+F+G+h+h+",
"H.j+j+H+a+a+I+L.L.J+J+J+K+z+z+z+U.U.U.|+|+1+*+*+q.L+L+U.++++e.c.c.c.#.#.M+M+M+N+O+O+F+-+-+P+Q+Q+",
"H.I.I.R+S+S+T+U+U+J+J+J+x.V+V+4+U.U.T.1+1+q.W+W+W+q.q.X+Y+Y+Z+Z+Z+`+c.c.$.M+M+N+ @ @F+-+-+.@`.`.",
"1.I.I.+@@@@@#@$@$@%@x.x.&@V+V+4+V+V+1+q.q.W+W+W+W+W+W+q.*@*@f.`+`+`+=@=@c.L L K -@-@-+-+-+;@=.=.",
"1.I.I.+@@@@@#@$@$@%@x.x.&@V+V+4+V+V+1+q.q.W+W+W+W+W+W+q.*@*@f.`+`+`+=@=@c.L L K -@-@-+-+-+;@=.=.",
"=.-.-.@@+@+@>@)+)+,@'@'@p+V+V+1+1+1+q.W+W+W+W+W+W+@.@.)@p.p.!@g g ~@Z Z Z u.u.{@]@]@-+-+-+^@/@/@",
"(@-.-.@@@@@@E _@_@:@e+e+'@g g p.p.p.<@<@<@<@[@[@[@[@[@[@[@[@p.4.4.}@Z Z Z Z Z |@>@>@-+g g 1@( ( ",
"2@I.I.R+@@@@R 3@3@4@:@:@g 4.4.5@5@5@[@[@[@[@[@[@[@[@[@[@[@[@5@5@5@h.6@6@7@8@8@9@D D g 0@0@l.a@a@",
"2@b@b@R+R+R+D D D h.c@c@d@d@d@e@ @ @f@g@g@h@@+@+@+@+@+@+k+k+O+i@i@d@-@-@i.j@j@D D D k@0@0@l@m@m@",
"n@o@o@e l@l@;+2.2.4+p@p@@@q@q@r@r@r@s@s@s@s@s@s@s@s@s@s@r@r@r@t@t@u@v@v@w@x@x@y@z@z@l@l@l@o@A@A@",
"B@C@C@C@D@D@E@F@F@G@H@H@I@J@J@K@L@L@M@N@N@N@O@O@O@O@O@P@N@N@Q@Q@Q@Q@Q@Q@X+R@R@S@l@l@T@T@T@U@V@V@",
"W@X@X@Y@Y@Y@A@Z@Z@`@$+$+:.:.:. #.#.#+#&.&.@#@#@#@#X X ##X X X @#@#@#@#@#&.:.:.<.A@A@$#%#%#&#V@V@",
"W@*#*#=#V@V@-#K+K+<.;#;#:.W+W+:. # #:. # #&.@#@#>#@#@#|.W W ,#,#,#'#'#'# #)#)#W+!#!#V@~#~#{#]#]#",
"^#/#/#]#Z@Z@(#K+K+7.7.7.7.7.7.<.;#;#;#_#_# #~@~@&.&.&.W '#'#'#:#:#<#[#[#:.<.<.}#|#|#|#]#]#1#^#^#",
"2#^#^##.Z@Z@]#]#]#V@V@V@V@3#3#4#5#5#6#6#6#7#7#7#7#4#4#6#6#6#6#8#8#9#8#8#0#V@V@]#]#]#a#)@)@^#2#2#",
"2#b#b#b#'+'+^#c#c#d#e#e#f#g#g#V@h#h#i#j#j#k#l#l#m#n#n#o#p#p#q#V@V@r#s#s#s#s#s#t#^#^#9@u#u#u#2#2#",
"2#(#(#(#(#(#2#2#2#v#w#w#x#y#y#z#]#]#A#B#B#C#D#D#E#F#F#F#G#G#]#u#u#H#H#H#I#I#I#^#2#2#J#J#J#Z@2#2#",
"2#(#(#(#(#(#2#K#K#2#^#^#L#M#M#N#O#O#^#^#^#d#P#P#Q#R#R#^#^#^#S#H#H#T#U#U#2#2#2#V#2#2#W#X#X#Y#Z#Z#",
"Z#`#`#(#W#W#2#B#B#B# $ $2#.$.$+$@$@$#$$$$$^#%$%$&$^#^#*$*$*$T#x#x#T#2#2#=$k#k#-$2#2#;$>$>$,$'$'$",
"'$)$)$!$!$!$Z#E#E#B#G#G#G#2#2#~${${$]$]$]$6 2#2#2#^$^$/$/$/$/$/$/$2#($($_$:$:$:$2#2#]$<$<$<$'$'$",
"'$,$,$,$,$,$'$[$[$[$}$}$|$1$1$2#2#2#]$]$]$]$2$2$^$3$3$3$/$/$2#2#2#4$5$5$($6$6$C#'$'$7$x#x#8$'$'$",
"'$@$@$@$@$@$'$[$[$e#9$9$}$0$0$a$b$b$Z#]$]$@$]$]$~$c$c$d$Z#Z#e$f$f$g$ $ $h$6$6$6$'$'$x#x#x#i$'$'$",
"'$<$<$j$j$j$'$6$6$B#k$k$k$l$l$'$'$'$m$n$n$n$+$+$~$~$~$~$o$o$'$'$'$g$k$k$ $6$6$6$'$'$x#x#x#p$'$'$",
"'$q$q$r$q$q$'$:$:$6$s$s$t$'$'$*$u$u$v$w$w$8$'$'$'$~$~$~$~$~$x$y$y$'$k$k$z$6$6$6$'$'$x#x#x#A$'$'$",
"'$r$r$r$B$B$'$C$C$D$E$E$'$F$F$G$H$H$H$v$v$'$D#D#D#'$'$~$+$+$~$~$~$O#'$'$5$-$-$C#'$'$x#x#x#x#'$'$",
"'$r$r$r$r$r$'$I$I$e$'$'$J$K$K$G$x#x#'$'$'$L$M$M$N$D$D$'$'$'$.$8$8$w$g#g#'$}$}$L$'$'$x#x#x#O$'$'$",
"'$P$P$r$r$r$'$'$'$'$Q$Q$R$[$[$S$'$'$A#T$T$N$N$N$T$T$T$U$V$V$'$W$W$X$Q#Q#Y$'$'$'$'$'$Z$x#x#O$'$'$",
"'$P$P$P$`$`$'$ % %.%-$-$-$-$-$'$+%+%@%#%#%I##%#%#%#%#%#%$%$%%%'$'$Q#E#E#&%*%*%*%'$'$=%O$O$O$'$'$",
"'$P$P$P$P$P$'$-$-$-$-$-$-$'$'$@%-%-%;%>%>%}$>%>%>%>%>%g$%%%%%%,%,%'$&%&%&%&%&%&%'$'$O$O$O$O$'$'$",
"'$P$P$P$P$P$'$-$-$-$-$-$-$'$'$@%-%-%;%>%>%}$>%>%>%>%>%g$%%%%%%,%,%'$&%&%&%&%&%&%'$'$O$O$O$O$'$'$",
"'%'$'$P$P$P$'$'$'$'$'$'$'$'$'$'$'$'$'$'$'$'$'$'$'$'$'$'$'$'$'$'$'$'$'$'$'$'$'$'$'$'$P$P$P$'$'$'$",
"'$)%)%'$P$P$!%g#g#g#~%~%~%~%~%{%]%]%^%^%^%^%^%^%^%^%^%^%^%^%/%(%(%(%_%_%]%:%:%/%<%<%P$'$'$[%'$'$",
"'$}%}%[%'$'$|%|%|%|%|%|%|%|%|%|%|%|%|%|%|%|%1%1%1%2%2%2%2%2%2%2%2%2%2%2%2%2%2%2%2%2%'$[%[%}%'$'$",
"'$}%}%}%3%3%'$|%|%|%|%|%|%|%|%|%|%|%|%|%|%|%1%1%2%2%2%2%2%2%2%2%2%2%2%2%2%2%2%2%'$'$[%}%}%}%'$'$",
"'$'$'$'$'$'$'$'$'$'$'$'$'$'$'$'$'$'$'$'$'$'$'$'$'$'$'$'$'$'$'$'$'$'$'$'$'$'$'$'$'$'$'$'$'$'$'$'$"};
